<svg xmlns="http://www.w3.org/2000/svg" width="550" height="500" viewBox="0, 0, 55, 50"><path d="M21 8H0v6h21l3-3-3-3z" fill="#58AB27"/><text transform="translate(10.5 11)"><tspan x="7.165" y="2" font-family="sans-serif" font-size="5" fill="#FFF">A</tspan></text><path d="M18 1H0v6h18l3-3-3-3z" fill="#009036"/><text transform="translate(8.919 4)"><tspan x="4.125" y="2" font-family="sans-serif" font-size="5" fill="#FFF">A⁺</tspan></text><path d="M24 15H0v6h24l3-3-3-3z" fill="#B1C800"/><text transform="translate(12 18)"><tspan x="8.665" y="2" font-family="sans-serif" font-size="5" fill="#FFF">B</tspan></text><path d="M27 22H0v6h27l3-3-3-3z" fill="#FFEC00"/><text transform="translate(13.5 25)"><tspan x="9.889" y="2" font-family="sans-serif" font-size="5" fill="#FFF">C</tspan></text><path d="M30 29H0v6h30l3-3-3-3z" fill="#FECC00"/><text transform="translate(15 32)"><tspan x="11.389" y="2" font-family="sans-serif" font-size="5" fill="#FFF">D</tspan></text><path d="M33 36H0v6h33l3-3-3-3z" fill="#F29400"/><text transform="translate(16.5 39)"><tspan x="13.165" y="2" font-family="sans-serif" font-size="5" fill="#FFF">E</tspan></text><path d="M36 43H0v6h36l3-3-3-3z" fill="#E2001A"/><text transform="translate(18 46)"><tspan x="14.946" y="2" font-family="sans-serif" font-size="5" fill="#FFF">F</tspan></text><g class="marker" id="A"><path d="M44 15l-4-4 4-4h11v8H44z"/><text transform="translate(49.5 11)"><tspan x="-2.001" y="2" font-family="sans-serif" font-size="6" fill="#FFF">A</tspan></text></g></svg>