<svg id="etpxz9fkLoE1" xmlns="http://www.w3.org/2000/svg" xmlns:xlink="http://www.w3.org/1999/xlink" viewBox="91 113 649 344" shape-rendering="geometricPrecision" text-rendering="geometricPrecision" style="background-color:transparent"><style><![CDATA[#etpxz9fkLoE122_ts {animation: etpxz9fkLoE122_ts__ts 3000ms linear infinite normal forwards}@keyframes etpxz9fkLoE122_ts__ts { 0% {transform: translate(406.771655px,372.75479px) scale(1,1)} 100% {transform: translate(406.771655px,372.75479px) scale(3.62295,2.672752)}} #etpxz9fkLoE132_to {animation: etpxz9fkLoE132_to__to 3000ms linear infinite normal forwards}@keyframes etpxz9fkLoE132_to__to { 0% {transform: translate(409.606291px,166.538224px)} 13.333333% {transform: translate(494.345209px,132.748305px)} 30% {transform: translate(603.779521px,166.538224px)} 100% {transform: translate(603.779521px,166.538224px)}} #etpxz9fkLoE132 {animation: etpxz9fkLoE132_c_o 3000ms linear infinite normal forwards}@keyframes etpxz9fkLoE132_c_o { 0% {opacity: 1} 30% {opacity: 1} 33.333333% {opacity: 0} 100% {opacity: 0}} #etpxz9fkLoE145_to {animation: etpxz9fkLoE145_to__to 3000ms linear infinite normal forwards}@keyframes etpxz9fkLoE145_to__to { 0% {transform: translate(605.196839px,186.38077px)} 33.333333% {transform: translate(605.196839px,186.38077px)} 53.333333% {transform: translate(605.196877px,275.078189px)} 100% {transform: translate(605.196877px,275.078189px)}} #etpxz9fkLoE145 {animation: etpxz9fkLoE145_c_o 3000ms linear infinite normal forwards}@keyframes etpxz9fkLoE145_c_o { 0% {opacity: 0} 30% {opacity: 0} 33.333333% {opacity: 1} 53.333333% {opacity: 1} 56.666667% {opacity: 0} 100% {opacity: 0}} #etpxz9fkLoE158_to {animation: etpxz9fkLoE158_to__to 3000ms linear infinite normal forwards}@keyframes etpxz9fkLoE158_to__to { 0% {transform: translate(605.196839px,293.291352px)} 56.666667% {transform: translate(605.196839px,293.291352px)} 73.333333% {transform: translate(605.196839px,376.669299px)} 100% {transform: translate(605.196839px,376.669299px)}} #etpxz9fkLoE158 {animation: etpxz9fkLoE158_c_o 3000ms linear infinite normal forwards}@keyframes etpxz9fkLoE158_c_o { 0% {opacity: 0} 53.333333% {opacity: 0} 56.666667% {opacity: 1} 73.333333% {opacity: 1} 76.666667% {opacity: 0} 100% {opacity: 0}} #etpxz9fkLoE171_to {animation: etpxz9fkLoE171_to__to 3000ms linear infinite normal forwards}@keyframes etpxz9fkLoE171_to__to { 0% {transform: translate(605.196893px,393.557383px)} 76.666667% {transform: translate(605.196893px,393.557383px)} 90% {transform: translate(491.513965px,430.921886px)} 100% {transform: translate(385.511834px,386.219941px)}} #etpxz9fkLoE171 {animation: etpxz9fkLoE171_c_o 3000ms linear infinite normal forwards}@keyframes etpxz9fkLoE171_c_o { 0% {opacity: 0} 73.333333% {opacity: 0} 76.666667% {opacity: 1} 100% {opacity: 1}}]]></style><g id="etpxz9fkLoE2"><g id="etpxz9fkLoE3"><ellipse id="etpxz9fkLoE4" rx="189.921555" ry="119.055313" transform="matrix(1 0 0 1 283.464569 283.464569)" fill="rgb(255,255,255)" stroke="none" stroke-width="1"/><ellipse id="etpxz9fkLoE5" rx="189.921555" ry="119.055313" transform="matrix(1 0 0 1 283.464569 283.464569)" fill="none" stroke="rgb(0,0,0)" stroke-width="1" stroke-linecap="round" stroke-linejoin="round"/><circle id="etpxz9fkLoE6" r="7.086626" transform="matrix(1 0 0 1 202.677155 303.308197)" fill="rgb(230,230,230)" stroke="none" stroke-width="1"/><circle id="etpxz9fkLoE7" r="7.086626" transform="matrix(1 0 0 1 202.677155 303.308197)" fill="none" stroke="rgb(0,0,0)" stroke-width="1" stroke-linecap="round" stroke-linejoin="round"/><path id="etpxz9fkLoE8" d="M189.92126,331.65354C189.92126,320.69482,195.63228,311.81102,202.67716,311.81102C209.72205,311.81102,215.43307,320.69482,215.43307,331.65354L189.92126,331.65354" fill="rgb(230,230,230)" stroke="none" stroke-width="1"/><path id="etpxz9fkLoE9" d="M189.92126,331.65354C189.92126,320.69482,195.63228,311.81102,202.67716,311.81102C209.72205,311.81102,215.43307,320.69482,215.43307,331.65354L189.92126,331.65354" fill="none" stroke="rgb(0,0,0)" stroke-width="1" stroke-linecap="round" stroke-linejoin="round"/><circle id="etpxz9fkLoE10" r="7.086626" transform="matrix(1 0 0 1 225.354324 276.37796)" fill="rgb(230,230,230)" stroke="none" stroke-width="1"/><circle id="etpxz9fkLoE11" r="7.086626" transform="matrix(1 0 0 1 225.354324 276.37796)" fill="none" stroke="rgb(0,0,0)" stroke-width="1" stroke-linecap="round" stroke-linejoin="round"/><path id="etpxz9fkLoE12" d="M212.59842,304.72329C212.59842,293.76456,218.30945,284.88077,225.35433,284.88077C232.39921,284.88077,238.11023,293.76456,238.11023,304.72329L212.59842,304.72329" fill="rgb(230,230,230)" stroke="none" stroke-width="1"/><path id="etpxz9fkLoE13" d="M212.59842,304.72329C212.59842,293.76456,218.30945,284.88077,225.35433,284.88077C232.39921,284.88077,238.11023,293.76456,238.11023,304.72329L212.59842,304.72329" fill="none" stroke="rgb(0,0,0)" stroke-width="1" stroke-linecap="round" stroke-linejoin="round"/><circle id="etpxz9fkLoE14" r="7.086626" transform="matrix(1 0 0 1 282.047241 290.551178)" fill="rgb(230,230,230)" stroke="none" stroke-width="1"/><circle id="etpxz9fkLoE15" r="7.086626" transform="matrix(1 0 0 1 282.047241 290.551178)" fill="none" stroke="rgb(0,0,0)" stroke-width="1" stroke-linecap="round" stroke-linejoin="round"/><path id="etpxz9fkLoE16" d="M269.29134,318.89652C269.29134,307.9378,275.00236,299.054,282.04724,299.054C289.09212,299.054,294.80315,307.9378,294.80315,318.89652L269.29134,318.89652" fill="rgb(230,230,230)" stroke="none" stroke-width="1"/><path id="etpxz9fkLoE17" d="M269.29134,318.89652C269.29134,307.9378,275.00236,299.054,282.04724,299.054C289.09212,299.054,294.80315,307.9378,294.80315,318.89652L269.29134,318.89652" fill="none" stroke="rgb(0,0,0)" stroke-width="1" stroke-linecap="round" stroke-linejoin="round"/><circle id="etpxz9fkLoE18" r="7.086626" transform="matrix(1 0 0 1 154.48819 272.127106)" fill="rgb(230,230,230)" stroke="none" stroke-width="1"/><circle id="etpxz9fkLoE19" r="7.086626" transform="matrix(1 0 0 1 154.48819 272.127106)" fill="none" stroke="rgb(0,0,0)" stroke-width="1" stroke-linecap="round" stroke-linejoin="round"/><path id="etpxz9fkLoE20" d="M141.73228,300.47244C141.73228,289.51371,147.44331,280.62992,154.48819,280.62992C161.53307,280.62992,167.24409,289.51371,167.24409,300.47244L141.73228,300.47244" fill="rgb(230,230,230)" stroke="none" stroke-width="1"/><path id="etpxz9fkLoE21" d="M141.73228,300.47244C141.73228,289.51371,147.44331,280.62992,154.48819,280.62992C161.53307,280.62992,167.24409,289.51371,167.24409,300.47244L141.73228,300.47244" fill="none" stroke="rgb(0,0,0)" stroke-width="1" stroke-linecap="round" stroke-linejoin="round"/><circle id="etpxz9fkLoE22" r="7.086626" transform="matrix(1 0 0 1 194.173233 255.119232)" fill="rgb(230,230,230)" stroke="none" stroke-width="1"/><circle id="etpxz9fkLoE23" r="7.086626" transform="matrix(1 0 0 1 194.173233 255.119232)" fill="none" stroke="rgb(0,0,0)" stroke-width="1" stroke-linecap="round" stroke-linejoin="round"/><path id="etpxz9fkLoE24" d="M181.41732,283.46457C181.41732,272.50584,187.12834,263.62205,194.17323,263.62205C201.21811,263.62205,206.92913,272.50584,206.92913,283.46457L181.41732,283.46457" fill="rgb(230,230,230)" stroke="none" stroke-width="1"/><path id="etpxz9fkLoE25" d="M181.41732,283.46457C181.41732,272.50584,187.12834,263.62205,194.17323,263.62205C201.21811,263.62205,206.92913,272.50584,206.92913,283.46457L181.41732,283.46457" fill="none" stroke="rgb(0,0,0)" stroke-width="1" stroke-linecap="round" stroke-linejoin="round"/><circle id="etpxz9fkLoE26" r="7.086626" transform="matrix(1 0 0 1 265.039368 255.119232)" fill="rgb(230,230,230)" stroke="none" stroke-width="1"/><circle id="etpxz9fkLoE27" r="7.086626" transform="matrix(1 0 0 1 265.039368 255.119232)" fill="none" stroke="rgb(0,0,0)" stroke-width="1" stroke-linecap="round" stroke-linejoin="round"/><path id="etpxz9fkLoE28" d="M252.28346,283.46457C252.28346,272.50584,257.99449,263.62205,265.03937,263.62205C272.08425,263.62205,277.79527,272.50584,277.79527,283.46457L252.28346,283.46457" fill="rgb(230,230,230)" stroke="none" stroke-width="1"/><path id="etpxz9fkLoE29" d="M252.28346,283.46457C252.28346,272.50584,257.99449,263.62205,265.03937,263.62205C272.08425,263.62205,277.79527,272.50584,277.79527,283.46457L252.28346,283.46457" fill="none" stroke="rgb(0,0,0)" stroke-width="1" stroke-linecap="round" stroke-linejoin="round"/><circle id="etpxz9fkLoE30" r="7.086626" transform="matrix(1 0 0 1 250.866135 307.559052)" fill="rgb(230,230,230)" stroke="none" stroke-width="1"/><circle id="etpxz9fkLoE31" r="7.086626" transform="matrix(1 0 0 1 250.866135 307.559052)" fill="none" stroke="rgb(0,0,0)" stroke-width="1" stroke-linecap="round" stroke-linejoin="round"/><path id="etpxz9fkLoE32" d="M238.11023,335.9044C238.11023,324.94567,243.82126,316.06187,250.86614,316.06187C257.91102,316.06187,263.62205,324.94567,263.62205,335.9044L238.11023,335.9044" fill="rgb(230,230,230)" stroke="none" stroke-width="1"/><path id="etpxz9fkLoE33" d="M238.11023,335.9044C238.11023,324.94567,243.82126,316.06187,250.86614,316.06187C257.91102,316.06187,263.62205,324.94567,263.62205,335.9044L238.11023,335.9044" fill="none" stroke="rgb(0,0,0)" stroke-width="1" stroke-linecap="round" stroke-linejoin="round"/><circle id="etpxz9fkLoE34" r="7.086626" transform="matrix(1 0 0 1 219.685043 341.574799)" fill="rgb(230,230,230)" stroke="none" stroke-width="1"/><circle id="etpxz9fkLoE35" r="7.086626" transform="matrix(1 0 0 1 219.685043 341.574799)" fill="none" stroke="rgb(0,0,0)" stroke-width="1" stroke-linecap="round" stroke-linejoin="round"/><path id="etpxz9fkLoE36" d="M206.92913,369.92014C206.92913,358.96141,212.64016,350.07762,219.68504,350.07762C226.72992,350.07762,232.44094,358.96141,232.44094,369.92014L206.92913,369.92014" fill="rgb(230,230,230)" stroke="none" stroke-width="1"/><path id="etpxz9fkLoE37" d="M206.92913,369.92014C206.92913,358.96141,212.64016,350.07762,219.68504,350.07762C226.72992,350.07762,232.44094,358.96141,232.44094,369.92014L206.92913,369.92014" fill="none" stroke="rgb(0,0,0)" stroke-width="1" stroke-linecap="round" stroke-linejoin="round"/><circle id="etpxz9fkLoE38" r="7.086626" transform="matrix(1 0 0 1 160.157486 316.062988)" fill="rgb(230,230,230)" stroke="none" stroke-width="1"/><circle id="etpxz9fkLoE39" r="7.086626" transform="matrix(1 0 0 1 160.157486 316.062988)" fill="none" stroke="rgb(0,0,0)" stroke-width="1" stroke-linecap="round" stroke-linejoin="round"/><path id="etpxz9fkLoE40" d="M147.40157,344.40833C147.40157,333.4496,153.1126,324.56581,160.15748,324.56581C167.20236,324.56581,172.91338,333.4496,172.91338,344.40833L147.40157,344.40833" fill="rgb(230,230,230)" stroke="none" stroke-width="1"/><path id="etpxz9fkLoE41" d="M147.40157,344.40833C147.40157,333.4496,153.1126,324.56581,160.15748,324.56581C167.20236,324.56581,172.91338,333.4496,172.91338,344.40833L147.40157,344.40833" fill="none" stroke="rgb(0,0,0)" stroke-width="1" stroke-linecap="round" stroke-linejoin="round"/><circle id="etpxz9fkLoE42" r="7.086626" transform="matrix(1 0 0 1 120.472443 282.047241)" fill="rgb(230,230,230)" stroke="none" stroke-width="1"/><circle id="etpxz9fkLoE43" r="7.086626" transform="matrix(1 0 0 1 120.472443 282.047241)" fill="none" stroke="rgb(0,0,0)" stroke-width="1" stroke-linecap="round" stroke-linejoin="round"/><path id="etpxz9fkLoE44" d="M107.71653,310.39258C107.71653,299.43386,113.42756,290.55006,120.47244,290.55006C127.51732,290.55006,133.22835,299.43386,133.22835,310.39258L107.71653,310.39258" fill="rgb(230,230,230)" stroke="none" stroke-width="1"/><path id="etpxz9fkLoE45" d="M107.71653,310.39258C107.71653,299.43386,113.42756,290.55006,120.47244,290.55006C127.51732,290.55006,133.22835,299.43386,133.22835,310.39258L107.71653,310.39258" fill="none" stroke="rgb(0,0,0)" stroke-width="1" stroke-linecap="round" stroke-linejoin="round"/><circle id="etpxz9fkLoE46" r="7.086626" transform="matrix(1 0 0 1 160.157486 225.354324)" fill="rgb(230,230,230)" stroke="none" stroke-width="1"/><circle id="etpxz9fkLoE47" r="7.086626" transform="matrix(1 0 0 1 160.157486 225.354324)" fill="none" stroke="rgb(0,0,0)" stroke-width="1" stroke-linecap="round" stroke-linejoin="round"/><path id="etpxz9fkLoE48" d="M147.40157,253.69967C147.40157,242.74094,153.1126,233.85715,160.15748,233.85715C167.20236,233.85715,172.91338,242.74094,172.91338,253.69967L147.40157,253.69967" fill="rgb(230,230,230)" stroke="none" stroke-width="1"/><path id="etpxz9fkLoE49" d="M147.40157,253.69967C147.40157,242.74094,153.1126,233.85715,160.15748,233.85715C167.20236,233.85715,172.91338,242.74094,172.91338,253.69967L147.40157,253.69967" fill="none" stroke="rgb(0,0,0)" stroke-width="1" stroke-linecap="round" stroke-linejoin="round"/><circle id="etpxz9fkLoE50" r="7.086626" transform="matrix(1 0 0 1 202.677155 209.764893)" fill="rgb(230,230,230)" stroke="none" stroke-width="1"/><circle id="etpxz9fkLoE51" r="7.086626" transform="matrix(1 0 0 1 202.677155 209.764893)" fill="none" stroke="rgb(0,0,0)" stroke-width="1" stroke-linecap="round" stroke-linejoin="round"/><path id="etpxz9fkLoE52" d="M189.92126,238.11023C189.92126,227.15151,195.63228,218.26772,202.67716,218.26772C209.72205,218.26772,215.43307,227.15151,215.43307,238.11023L189.92126,238.11023" fill="rgb(230,230,230)" stroke="none" stroke-width="1"/><path id="etpxz9fkLoE53" d="M189.92126,238.11023C189.92126,227.15151,195.63228,218.26772,202.67716,218.26772C209.72205,218.26772,215.43307,227.15151,215.43307,238.11023L189.92126,238.11023" fill="none" stroke="rgb(0,0,0)" stroke-width="1" stroke-linecap="round" stroke-linejoin="round"/><circle id="etpxz9fkLoE54" r="7.086626" transform="matrix(1 0 0 1 291.968506 221.103485)" fill="rgb(230,230,230)" stroke="none" stroke-width="1"/><circle id="etpxz9fkLoE55" r="7.086626" transform="matrix(1 0 0 1 291.968506 221.103485)" fill="none" stroke="rgb(0,0,0)" stroke-width="1" stroke-linecap="round" stroke-linejoin="round"/><path id="etpxz9fkLoE56" d="M279.2126,249.44882C279.2126,238.49009,284.92362,229.6063,291.9685,229.6063C299.01338,229.6063,304.7244,238.49009,304.7244,249.44882L279.2126,249.44882" fill="rgb(230,230,230)" stroke="none" stroke-width="1"/><path id="etpxz9fkLoE57" d="M279.2126,249.44882C279.2126,238.49009,284.92362,229.6063,291.9685,229.6063C299.01338,229.6063,304.7244,238.49009,304.7244,249.44882L279.2126,249.44882" fill="none" stroke="rgb(0,0,0)" stroke-width="1" stroke-linecap="round" stroke-linejoin="round"/><circle id="etpxz9fkLoE58" r="7.086626" transform="matrix(1 0 0 1 307.559052 272.127106)" fill="rgb(230,230,230)" stroke="none" stroke-width="1"/><circle id="etpxz9fkLoE59" r="7.086626" transform="matrix(1 0 0 1 307.559052 272.127106)" fill="none" stroke="rgb(0,0,0)" stroke-width="1" stroke-linecap="round" stroke-linejoin="round"/><path id="etpxz9fkLoE60" d="M294.80315,300.47244C294.80315,289.51371,300.51417,280.62992,307.55905,280.62992C314.60394,280.62992,320.31496,289.51371,320.31496,300.47244L294.80315,300.47244" fill="rgb(230,230,230)" stroke="none" stroke-width="1"/><path id="etpxz9fkLoE61" d="M294.80315,300.47244C294.80315,289.51371,300.51417,280.62992,307.55905,280.62992C314.60394,280.62992,320.31496,289.51371,320.31496,300.47244L294.80315,300.47244" fill="none" stroke="rgb(0,0,0)" stroke-width="1" stroke-linecap="round" stroke-linejoin="round"/><circle id="etpxz9fkLoE62" r="7.086626" transform="matrix(1 0 0 1 364.251984 216.850388)" fill="rgb(230,230,230)" stroke="none" stroke-width="1"/><circle id="etpxz9fkLoE63" r="7.086626" transform="matrix(1 0 0 1 364.251984 216.850388)" fill="none" stroke="rgb(0,0,0)" stroke-width="1" stroke-linecap="round" stroke-linejoin="round"/><path id="etpxz9fkLoE64" d="M351.49606,245.19573C351.49606,234.237,357.20708,225.35321,364.25197,225.35321C371.29685,225.35321,377.00787,234.237,377.00787,245.19573L351.49606,245.19573" fill="rgb(230,230,230)" stroke="none" stroke-width="1"/><path id="etpxz9fkLoE65" d="M351.49606,245.19573C351.49606,234.237,357.20708,225.35321,364.25197,225.35321C371.29685,225.35321,377.00787,234.237,377.00787,245.19573L351.49606,245.19573" fill="none" stroke="rgb(0,0,0)" stroke-width="1" stroke-linecap="round" stroke-linejoin="round"/><circle id="etpxz9fkLoE66" r="7.086626" transform="matrix(1 0 0 1 418.110229 225.354324)" fill="rgb(230,230,230)" stroke="none" stroke-width="1"/><circle id="etpxz9fkLoE67" r="7.086626" transform="matrix(1 0 0 1 418.110229 225.354324)" fill="none" stroke="rgb(0,0,0)" stroke-width="1" stroke-linecap="round" stroke-linejoin="round"/><path id="etpxz9fkLoE68" d="M405.35433,253.69967C405.35433,242.74094,411.06535,233.85715,418.11023,233.85715C425.15512,233.85715,430.86614,242.74094,430.86614,253.69967L405.35433,253.69967" fill="rgb(230,230,230)" stroke="none" stroke-width="1"/><path id="etpxz9fkLoE69" d="M405.35433,253.69967C405.35433,242.74094,411.06535,233.85715,418.11023,233.85715C425.15512,233.85715,430.86614,242.74094,430.86614,253.69967L405.35433,253.69967" fill="none" stroke="rgb(0,0,0)" stroke-width="1" stroke-linecap="round" stroke-linejoin="round"/><circle id="etpxz9fkLoE70" r="7.086626" transform="matrix(1 0 0 1 386.929138 255.119232)" fill="rgb(230,230,230)" stroke="none" stroke-width="1"/><circle id="etpxz9fkLoE71" r="7.086626" transform="matrix(1 0 0 1 386.929138 255.119232)" fill="none" stroke="rgb(0,0,0)" stroke-width="1" stroke-linecap="round" stroke-linejoin="round"/><path id="etpxz9fkLoE72" d="M374.17323,283.46457C374.17323,272.50584,379.88425,263.62205,386.92913,263.62205C393.97401,263.62205,399.68504,272.50584,399.68504,283.46457L374.17323,283.46457" fill="rgb(230,230,230)" stroke="none" stroke-width="1"/><path id="etpxz9fkLoE73" d="M374.17323,283.46457C374.17323,272.50584,379.88425,263.62205,386.92913,263.62205C393.97401,263.62205,399.68504,272.50584,399.68504,283.46457L374.17323,283.46457" fill="none" stroke="rgb(0,0,0)" stroke-width="1" stroke-linecap="round" stroke-linejoin="round"/><circle id="etpxz9fkLoE74" r="7.086626" transform="matrix(1 0 0 1 423.779541 266.457825)" fill="rgb(230,230,230)" stroke="none" stroke-width="1"/><circle id="etpxz9fkLoE75" r="7.086626" transform="matrix(1 0 0 1 423.779541 266.457825)" fill="none" stroke="rgb(0,0,0)" stroke-width="1" stroke-linecap="round" stroke-linejoin="round"/><path id="etpxz9fkLoE76" d="M411.02362,294.80315C411.02362,283.84442,416.73464,274.96063,423.77953,274.96063C430.8244,274.96063,436.53543,283.84442,436.53543,294.80315L411.02362,294.80315" fill="rgb(230,230,230)" stroke="none" stroke-width="1"/><path id="etpxz9fkLoE77" d="M411.02362,294.80315C411.02362,283.84442,416.73464,274.96063,423.77953,274.96063C430.8244,274.96063,436.53543,283.84442,436.53543,294.80315L411.02362,294.80315" fill="none" stroke="rgb(0,0,0)" stroke-width="1" stroke-linecap="round" stroke-linejoin="round"/><circle id="etpxz9fkLoE78" r="7.086626" transform="matrix(1 0 0 1 282.047241 341.574799)" fill="rgb(230,230,230)" stroke="none" stroke-width="1"/><circle id="etpxz9fkLoE79" r="7.086626" transform="matrix(1 0 0 1 282.047241 341.574799)" fill="none" stroke="rgb(0,0,0)" stroke-width="1" stroke-linecap="round" stroke-linejoin="round"/><path id="etpxz9fkLoE80" d="M269.29134,369.92014C269.29134,358.96141,275.00236,350.07762,282.04724,350.07762C289.09212,350.07762,294.80315,358.96141,294.80315,369.92014L269.29134,369.92014" fill="rgb(230,230,230)" stroke="none" stroke-width="1"/><path id="etpxz9fkLoE81" d="M269.29134,369.92014C269.29134,358.96141,275.00236,350.07762,282.04724,350.07762C289.09212,350.07762,294.80315,358.96141,294.80315,369.92014L269.29134,369.92014" fill="none" stroke="rgb(0,0,0)" stroke-width="1" stroke-linecap="round" stroke-linejoin="round"/><circle id="etpxz9fkLoE82" r="7.086626" transform="matrix(1 0 0 1 250.866135 358.582672)" fill="rgb(230,230,230)" stroke="none" stroke-width="1"/><circle id="etpxz9fkLoE83" r="7.086626" transform="matrix(1 0 0 1 250.866135 358.582672)" fill="none" stroke="rgb(0,0,0)" stroke-width="1" stroke-linecap="round" stroke-linejoin="round"/><path id="etpxz9fkLoE84" d="M238.11023,386.92801C238.11023,375.96929,243.82126,367.0855,250.86614,367.0855C257.91102,367.0855,263.62205,375.96929,263.62205,386.92801L238.11023,386.92801" fill="rgb(230,230,230)" stroke="none" stroke-width="1"/><path id="etpxz9fkLoE85" d="M238.11023,386.92801C238.11023,375.96929,243.82126,367.0855,250.86614,367.0855C257.91102,367.0855,263.62205,375.96929,263.62205,386.92801L238.11023,386.92801" fill="none" stroke="rgb(0,0,0)" stroke-width="1" stroke-linecap="round" stroke-linejoin="round"/><circle id="etpxz9fkLoE86" r="7.086626" transform="matrix(1 0 0 1 233.858276 229.607407)" fill="rgb(230,230,230)" stroke="none" stroke-width="1"/><circle id="etpxz9fkLoE87" r="7.086626" transform="matrix(1 0 0 1 233.858276 229.607407)" fill="none" stroke="rgb(0,0,0)" stroke-width="1" stroke-linecap="round" stroke-linejoin="round"/><path id="etpxz9fkLoE88" d="M221.10236,257.95275C221.10236,246.99403,226.81338,238.11023,233.85827,238.11023C240.90315,238.11023,246.61417,246.99403,246.61417,257.95275L221.10236,257.95275" fill="rgb(230,230,230)" stroke="none" stroke-width="1"/><path id="etpxz9fkLoE89" d="M221.10236,257.95275C221.10236,246.99403,226.81338,238.11023,233.85827,238.11023C240.90315,238.11023,246.61417,246.99403,246.61417,257.95275L221.10236,257.95275" fill="none" stroke="rgb(0,0,0)" stroke-width="1" stroke-linecap="round" stroke-linejoin="round"/><circle id="etpxz9fkLoE90" r="7.086626" transform="matrix(1 0 0 1 306.141724 323.150726)" fill="rgb(230,230,230)" stroke="none" stroke-width="1"/><circle id="etpxz9fkLoE91" r="7.086626" transform="matrix(1 0 0 1 306.141724 323.150726)" fill="none" stroke="rgb(0,0,0)" stroke-width="1" stroke-linecap="round" stroke-linejoin="round"/><path id="etpxz9fkLoE92" d="M293.38583,351.49606C293.38583,340.53734,299.09685,331.65354,306.14173,331.65354C313.18661,331.65354,318.89764,340.53734,318.89764,351.49606L293.38583,351.49606" fill="rgb(230,230,230)" stroke="none" stroke-width="1"/><path id="etpxz9fkLoE93" d="M293.38583,351.49606C293.38583,340.53734,299.09685,331.65354,306.14173,331.65354C313.18661,331.65354,318.89764,340.53734,318.89764,351.49606L293.38583,351.49606" fill="none" stroke="rgb(0,0,0)" stroke-width="1" stroke-linecap="round" stroke-linejoin="round"/><circle id="etpxz9fkLoE94" r="7.086626" transform="matrix(1 0 0 1 316.062988 364.251984)" fill="rgb(230,230,230)" stroke="none" stroke-width="1"/><circle id="etpxz9fkLoE95" r="7.086626" transform="matrix(1 0 0 1 316.062988 364.251984)" fill="none" stroke="rgb(0,0,0)" stroke-width="1" stroke-linecap="round" stroke-linejoin="round"/><path id="etpxz9fkLoE96" d="M303.30708,392.5973C303.30708,381.63858,309.0181,372.75479,316.06299,372.75479C323.10787,372.75479,328.8189,381.63858,328.8189,392.5973L303.30708,392.5973" fill="rgb(230,230,230)" stroke="none" stroke-width="1"/><path id="etpxz9fkLoE97" d="M303.30708,392.5973C303.30708,381.63858,309.0181,372.75479,316.06299,372.75479C323.10787,372.75479,328.8189,381.63858,328.8189,392.5973L303.30708,392.5973" fill="none" stroke="rgb(0,0,0)" stroke-width="1" stroke-linecap="round" stroke-linejoin="round"/><circle id="etpxz9fkLoE98" r="7.086626" transform="matrix(1 0 0 1 345.826782 259.370087)" fill="rgb(230,230,230)" stroke="none" stroke-width="1"/><circle id="etpxz9fkLoE99" r="7.086626" transform="matrix(1 0 0 1 345.826782 259.370087)" fill="none" stroke="rgb(0,0,0)" stroke-width="1" stroke-linecap="round" stroke-linejoin="round"/><path id="etpxz9fkLoE100" d="M333.07086,287.71542C333.07086,276.75669,338.78189,267.8729,345.82677,267.8729C352.87165,267.8729,358.58268,276.75669,358.58268,287.71542L333.07086,287.71542" fill="rgb(230,230,230)" stroke="none" stroke-width="1"/><path id="etpxz9fkLoE101" d="M333.07086,287.71542C333.07086,276.75669,338.78189,267.8729,345.82677,267.8729C352.87165,267.8729,358.58268,276.75669,358.58268,287.71542L333.07086,287.71542" fill="none" stroke="rgb(0,0,0)" stroke-width="1" stroke-linecap="round" stroke-linejoin="round"/><circle id="etpxz9fkLoE102" r="7.086626" transform="matrix(1 0 0 1 342.992126 328.820007)" fill="rgb(230,230,230)" stroke="none" stroke-width="1"/><circle id="etpxz9fkLoE103" r="7.086626" transform="matrix(1 0 0 1 342.992126 328.820007)" fill="none" stroke="rgb(0,0,0)" stroke-width="1" stroke-linecap="round" stroke-linejoin="round"/><path id="etpxz9fkLoE104" d="M330.23622,357.16535C330.23622,346.20663,335.94724,337.32283,342.99212,337.32283C350.037,337.32283,355.74803,346.20663,355.74803,357.16535L330.23622,357.16535" fill="rgb(230,230,230)" stroke="none" stroke-width="1"/><path id="etpxz9fkLoE105" d="M330.23622,357.16535C330.23622,346.20663,335.94724,337.32283,342.99212,337.32283C350.037,337.32283,355.74803,346.20663,355.74803,357.16535L330.23622,357.16535" fill="none" stroke="rgb(0,0,0)" stroke-width="1" stroke-linecap="round" stroke-linejoin="round"/><circle id="etpxz9fkLoE106" r="7.086626" transform="matrix(1 0 0 1 406.771637 331.654663)" fill="rgb(230,230,230)" stroke="none" stroke-width="1"/><circle id="etpxz9fkLoE107" r="7.086626" transform="matrix(1 0 0 1 406.771637 331.654663)" fill="none" stroke="rgb(0,0,0)" stroke-width="1" stroke-linecap="round" stroke-linejoin="round"/><path id="etpxz9fkLoE108" d="M394.01575,360C394.01575,349.04127,399.72677,340.15748,406.77165,340.15748C413.81653,340.15748,419.52756,349.04127,419.52756,360L394.01575,360" fill="rgb(230,230,230)" stroke="none" stroke-width="1"/><path id="etpxz9fkLoE109" d="M394.01575,360C394.01575,349.04127,399.72677,340.15748,406.77165,340.15748C413.81653,340.15748,419.52756,349.04127,419.52756,360L394.01575,360" fill="none" stroke="rgb(0,0,0)" stroke-width="1" stroke-linecap="round" stroke-linejoin="round"/><circle id="etpxz9fkLoE110" r="7.086626" transform="matrix(1 0 0 1 375.590546 341.574799)" fill="rgb(230,230,230)" stroke="none" stroke-width="1"/><circle id="etpxz9fkLoE111" r="7.086626" transform="matrix(1 0 0 1 375.590546 341.574799)" fill="none" stroke="rgb(0,0,0)" stroke-width="1" stroke-linecap="round" stroke-linejoin="round"/><path id="etpxz9fkLoE112" d="M362.83464,369.92014C362.83464,358.96141,368.54567,350.07762,375.59055,350.07762C382.63543,350.07762,388.34645,358.96141,388.34645,369.92014L362.83464,369.92014" fill="rgb(230,230,230)" stroke="none" stroke-width="1"/><path id="etpxz9fkLoE113" d="M362.83464,369.92014C362.83464,358.96141,368.54567,350.07762,375.59055,350.07762C382.63543,350.07762,388.34645,358.96141,388.34645,369.92014L362.83464,369.92014" fill="none" stroke="rgb(0,0,0)" stroke-width="1" stroke-linecap="round" stroke-linejoin="round"/><circle id="etpxz9fkLoE114" r="7.086626" transform="matrix(1 0 0 1 449.291351 290.551178)" fill="rgb(230,230,230)" stroke="none" stroke-width="1"/><circle id="etpxz9fkLoE115" r="7.086626" transform="matrix(1 0 0 1 449.291351 290.551178)" fill="none" stroke="rgb(0,0,0)" stroke-width="1" stroke-linecap="round" stroke-linejoin="round"/><path id="etpxz9fkLoE116" d="M436.53543,318.89652C436.53543,307.9378,442.24645,299.054,449.29134,299.054C456.33622,299.054,462.04724,307.9378,462.04724,318.89652L436.53543,318.89652" fill="rgb(230,230,230)" stroke="none" stroke-width="1"/><path id="etpxz9fkLoE117" d="M436.53543,318.89652C436.53543,307.9378,442.24645,299.054,449.29134,299.054C456.33622,299.054,462.04724,307.9378,462.04724,318.89652L436.53543,318.89652" fill="none" stroke="rgb(0,0,0)" stroke-width="1" stroke-linecap="round" stroke-linejoin="round"/><rect id="etpxz9fkLoE118" width="59" height="20" rx="0" ry="0" transform="matrix(1 0 0 1 346.35434 300.472443)" fill="rgb(255,255,255)" stroke="none" stroke-width="1"/><text id="etpxz9fkLoE119" dx="0" dy="0" font-family="&quot;-webkit-standard&quot;" font-size="16" font-weight="400" transform="matrix(1 0 0 1 346.35434 301.240387)" fill="rgb(0,0,0)" stroke="none" stroke-width="1"><tspan id="etpxz9fkLoE120" x="0.148" y="15" font-family="&quot;Helvetica Neue&quot;" font-size="16" font-weight="300" font-style="normal" fill="rgb(0,0,0)" stroke-width="1"><![CDATA[Gr]]></tspan><tspan id="etpxz9fkLoE121" x="16.756001" y="15" font-family="&quot;Helvetica Neue&quot;" font-size="16" font-weight="300" font-style="normal" fill="rgb(0,0,0)" stroke-width="1"><![CDATA[een IT]]></tspan></text><g id="etpxz9fkLoE122_ts" transform="translate(406.771655,372.75479) scale(1,1)"><g id="etpxz9fkLoE122" transform="translate(-406.771655,-372.754789)"><path id="etpxz9fkLoE123" style="mix-blend-mode:overlay" d="M-53.858353,0C-53.858353,-24.265778,-29.745147,-43.937077,0,-43.937077C29.745147,-43.937077,53.858353,-24.265778,53.858353,0C53.858353,24.265778,29.745147,43.937077,0,43.937077C-29.745147,43.937077,-53.858353,24.265778,-53.858353,0Z" transform="matrix(1 0 0 1 374.173218 338.740173)" fill="rgb(0,255,0)" stroke="none" stroke-width="1"/><path id="etpxz9fkLoE124" d="M-53.858353,0C-53.858353,-24.265778,-29.745147,-43.937077,0,-43.937077C29.745147,-43.937077,53.858353,-24.265778,53.858353,0C53.858353,24.265778,29.745147,43.937077,0,43.937077C-29.745147,43.937077,-53.858353,24.265778,-53.858353,0Z" transform="matrix(1 0 0 1 374.173218 338.740173)" fill="none" stroke="rgb(0,0,0)" stroke-width="1" stroke-linecap="round" stroke-linejoin="round"/></g></g><rect id="etpxz9fkLoE125" width="85" height="30" rx="0" ry="0" transform="matrix(1 0 0 1 242.944885 169.8414)" fill="rgb(255,255,255)" stroke="none" stroke-width="1"/><text id="etpxz9fkLoE126" dx="0" dy="0" font-family="&quot;-webkit-standard&quot;" font-size="16" font-weight="400" transform="matrix(1 0 0 1 247.944885 175.609344)" fill="rgb(0,0,0)" stroke="none" stroke-width="1"><tspan id="etpxz9fkLoE127" x="0.004" y="15" font-family="&quot;Helvetica Neue&quot;" font-size="16" font-weight="300" font-style="normal" fill="rgb(0,0,0)" stroke-width="1"><![CDATA[IT Services]]></tspan></text><path id="etpxz9fkLoE128" d="M390.85538,185.24429C417.09936,166.3784,445.6334,149.94193,473.38582,141.73228C536.10585,123.17861,574.45675,152.67144,592.17255,172.67605" fill="none" stroke="rgb(0,0,0)" stroke-width="1" stroke-linecap="round" stroke-linejoin="round"/><line id="etpxz9fkLoE129" x1="603.89368" y1="204.67606" x2="603.89368" y2="269.29135" fill="none" stroke="rgb(0,0,0)" stroke-width="1" stroke-linecap="round" stroke-linejoin="round"/><line id="etpxz9fkLoE130" x1="603.89368" y1="301.29135" x2="603.89368" y2="369.68503" fill="none" stroke="rgb(0,0,0)" stroke-width="1" stroke-linecap="round" stroke-linejoin="round"/><path id="etpxz9fkLoE131" d="M590.80406,401.68504C571.38314,421.52514,530.35212,450.42563,467.71653,430.44418C439.55992,421.4619,411.14417,403.91175,385.33879,383.97277" fill="none" stroke="rgb(0,0,0)" stroke-width="1" stroke-linecap="round" stroke-linejoin="round"/><g id="etpxz9fkLoE132_to" transform="translate(409.606291,166.538224)"><g id="etpxz9fkLoE132" transform="translate(-488.976379,-136.173783)"><circle id="etpxz9fkLoE133" r="7.086626" transform="matrix(1 0 0 1 474.803162 122.709778)" fill="rgb(230,230,230)" stroke="none" stroke-width="1"/><circle id="etpxz9fkLoE134" r="7.086626" transform="matrix(1 0 0 1 474.803162 122.709778)" fill="none" stroke="rgb(0,0,0)" stroke-width="1" stroke-linecap="round" stroke-linejoin="round"/><path id="etpxz9fkLoE135" d="M462.04724,151.05512C462.04724,140.09639,467.75826,131.2126,474.80315,131.2126C481.84803,131.2126,487.55905,140.09639,487.55905,151.05512L462.04724,151.05512" fill="rgb(230,230,230)" stroke="none" stroke-width="1"/><path id="etpxz9fkLoE136" d="M462.04724,151.05512C462.04724,140.09639,467.75826,131.2126,474.80315,131.2126C481.84803,131.2126,487.55905,140.09639,487.55905,151.05512L462.04724,151.05512" fill="none" stroke="rgb(0,0,0)" stroke-width="1" stroke-linecap="round" stroke-linejoin="round"/><circle id="etpxz9fkLoE137" r="7.086626" transform="matrix(1 0 0 1 503.149597 122.709778)" fill="rgb(230,230,230)" stroke="none" stroke-width="1"/><circle id="etpxz9fkLoE138" r="7.086626" transform="matrix(1 0 0 1 503.149597 122.709778)" fill="none" stroke="rgb(0,0,0)" stroke-width="1" stroke-linecap="round" stroke-linejoin="round"/><path id="etpxz9fkLoE139" d="M490.3937,151.05512C490.3937,140.09639,496.10472,131.2126,503.1496,131.2126C510.1945,131.2126,515.9055,140.09639,515.9055,151.05512L490.3937,151.05512" fill="rgb(230,230,230)" stroke="none" stroke-width="1"/><path id="etpxz9fkLoE140" d="M490.3937,151.05512C490.3937,140.09639,496.10472,131.2126,503.1496,131.2126C510.1945,131.2126,515.9055,140.09639,515.9055,151.05512L490.3937,151.05512" fill="none" stroke="rgb(0,0,0)" stroke-width="1" stroke-linecap="round" stroke-linejoin="round"/><circle id="etpxz9fkLoE141" r="7.086626" transform="matrix(1 0 0 1 488.976379 128.379074)" fill="rgb(230,230,230)" stroke="none" stroke-width="1"/><circle id="etpxz9fkLoE142" r="7.086626" transform="matrix(1 0 0 1 488.976379 128.379074)" fill="none" stroke="rgb(0,0,0)" stroke-width="1" stroke-linecap="round" stroke-linejoin="round"/><path id="etpxz9fkLoE143" d="M476.22047,156.72441C476.22047,145.76568,481.9315,136.88189,488.97638,136.88189C496.02126,136.88189,501.73228,145.76568,501.73228,156.72441L476.22047,156.72441" fill="rgb(230,230,230)" stroke="none" stroke-width="1"/><path id="etpxz9fkLoE144" d="M476.22047,156.72441C476.22047,145.76568,481.9315,136.88189,488.97638,136.88189C496.02126,136.88189,501.73228,145.76568,501.73228,156.72441L476.22047,156.72441" fill="none" stroke="rgb(0,0,0)" stroke-width="1" stroke-linecap="round" stroke-linejoin="round"/></g></g><g id="etpxz9fkLoE145_to" transform="translate(605.196839,186.38077)"><g id="etpxz9fkLoE145" transform="translate(-605.196838,-230.314392)" opacity="0"><circle id="etpxz9fkLoE146" r="7.086626" transform="matrix(1 0 0 1 591.023621 216.850388)" fill="rgb(197,255,205)" stroke="none" stroke-width="1"/><circle id="etpxz9fkLoE147" r="7.086626" transform="matrix(1 0 0 1 591.023621 216.850388)" fill="none" stroke="rgb(0,0,0)" stroke-width="1" stroke-linecap="round" stroke-linejoin="round"/><path id="etpxz9fkLoE148" d="M578.2677,245.19573C578.2677,234.237,583.97874,225.35321,591.02362,225.35321C598.0685,225.35321,603.77952,234.237,603.77952,245.19573L578.2677,245.19573" fill="rgb(197,255,205)" stroke="none" stroke-width="1"/><path id="etpxz9fkLoE149" d="M578.2677,245.19573C578.2677,234.237,583.97874,225.35321,591.02362,225.35321C598.0685,225.35321,603.77952,234.237,603.77952,245.19573L578.2677,245.19573" fill="none" stroke="rgb(0,0,0)" stroke-width="1" stroke-linecap="round" stroke-linejoin="round"/><circle id="etpxz9fkLoE150" r="7.086626" transform="matrix(1 0 0 1 619.370056 216.850388)" fill="rgb(230,230,230)" stroke="none" stroke-width="1"/><circle id="etpxz9fkLoE151" r="7.086626" transform="matrix(1 0 0 1 619.370056 216.850388)" fill="none" stroke="rgb(0,0,0)" stroke-width="1" stroke-linecap="round" stroke-linejoin="round"/><path id="etpxz9fkLoE152" d="M606.61417,245.19573C606.61417,234.237,612.3252,225.35321,619.37008,225.35321C626.41496,225.35321,632.12598,234.237,632.12598,245.19573L606.61417,245.19573" fill="rgb(230,230,230)" stroke="none" stroke-width="1"/><path id="etpxz9fkLoE153" d="M606.61417,245.19573C606.61417,234.237,612.3252,225.35321,619.37008,225.35321C626.41496,225.35321,632.12598,234.237,632.12598,245.19573L606.61417,245.19573" fill="none" stroke="rgb(0,0,0)" stroke-width="1" stroke-linecap="round" stroke-linejoin="round"/><circle id="etpxz9fkLoE154" r="7.086626" transform="matrix(1 0 0 1 605.196838 222.519684)" fill="rgb(230,230,230)" stroke="none" stroke-width="1"/><circle id="etpxz9fkLoE155" r="7.086626" transform="matrix(1 0 0 1 605.196838 222.519684)" fill="none" stroke="rgb(0,0,0)" stroke-width="1" stroke-linecap="round" stroke-linejoin="round"/><path id="etpxz9fkLoE156" d="M592.44094,250.86502C592.44094,239.9063,598.15196,231.0225,605.19685,231.0225C612.24173,231.0225,617.95275,239.9063,617.95275,250.86502L592.44094,250.86502" fill="rgb(230,230,230)" stroke="none" stroke-width="1"/><path id="etpxz9fkLoE157" d="M592.44094,250.86502C592.44094,239.9063,598.15196,231.0225,605.19685,231.0225C612.24173,231.0225,617.95275,239.9063,617.95275,250.86502L592.44094,250.86502" fill="none" stroke="rgb(0,0,0)" stroke-width="1" stroke-linecap="round" stroke-linejoin="round"/></g></g><g id="etpxz9fkLoE158_to" transform="translate(605.196839,293.291352)"><g id="etpxz9fkLoE158" transform="translate(-605.196838,-329.526978)" opacity="0"><circle id="etpxz9fkLoE159" r="7.086626" transform="matrix(1 0 0 1 591.023621 316.062988)" fill="rgb(197,255,205)" stroke="none" stroke-width="1"/><circle id="etpxz9fkLoE160" r="7.086626" transform="matrix(1 0 0 1 591.023621 316.062988)" fill="none" stroke="rgb(0,0,0)" stroke-width="1" stroke-linecap="round" stroke-linejoin="round"/><path id="etpxz9fkLoE161" d="M578.2677,344.40833C578.2677,333.4496,583.97874,324.56581,591.02362,324.56581C598.0685,324.56581,603.77952,333.4496,603.77952,344.40833L578.2677,344.40833" fill="rgb(197,255,205)" stroke="none" stroke-width="1"/><path id="etpxz9fkLoE162" d="M578.2677,344.40833C578.2677,333.4496,583.97874,324.56581,591.02362,324.56581C598.0685,324.56581,603.77952,333.4496,603.77952,344.40833L578.2677,344.40833" fill="none" stroke="rgb(0,0,0)" stroke-width="1" stroke-linecap="round" stroke-linejoin="round"/><circle id="etpxz9fkLoE163" r="7.086626" transform="matrix(1 0 0 1 619.370056 316.062988)" fill="rgb(230,230,230)" stroke="none" stroke-width="1"/><circle id="etpxz9fkLoE164" r="7.086626" transform="matrix(1 0 0 1 619.370056 316.062988)" fill="none" stroke="rgb(0,0,0)" stroke-width="1" stroke-linecap="round" stroke-linejoin="round"/><path id="etpxz9fkLoE165" d="M606.61417,344.40833C606.61417,333.4496,612.3252,324.56581,619.37008,324.56581C626.41496,324.56581,632.12598,333.4496,632.12598,344.40833L606.61417,344.40833" fill="rgb(230,230,230)" stroke="none" stroke-width="1"/><path id="etpxz9fkLoE166" d="M606.61417,344.40833C606.61417,333.4496,612.3252,324.56581,619.37008,324.56581C626.41496,324.56581,632.12598,333.4496,632.12598,344.40833L606.61417,344.40833" fill="none" stroke="rgb(0,0,0)" stroke-width="1" stroke-linecap="round" stroke-linejoin="round"/><circle id="etpxz9fkLoE167" r="7.086626" transform="matrix(1 0 0 1 605.196838 321.732269)" fill="rgb(197,255,205)" stroke="none" stroke-width="1"/><circle id="etpxz9fkLoE168" r="7.086626" transform="matrix(1 0 0 1 605.196838 321.732269)" fill="none" stroke="rgb(0,0,0)" stroke-width="1" stroke-linecap="round" stroke-linejoin="round"/><path id="etpxz9fkLoE169" d="M592.44094,350.07762C592.44094,339.1189,598.15196,330.2351,605.19685,330.2351C612.24173,330.2351,617.95275,339.1189,617.95275,350.07762L592.44094,350.07762" fill="rgb(197,255,205)" stroke="none" stroke-width="1"/><path id="etpxz9fkLoE170" d="M592.44094,350.07762C592.44094,339.1189,598.15196,330.2351,605.19685,330.2351C612.24173,330.2351,617.95275,339.1189,617.95275,350.07762L592.44094,350.07762" fill="none" stroke="rgb(0,0,0)" stroke-width="1" stroke-linecap="round" stroke-linejoin="round"/></g></g><g id="etpxz9fkLoE171_to" transform="translate(605.196893,393.557383)"><g id="etpxz9fkLoE171" transform="translate(-494.645676,-434.408874)" opacity="0"><circle id="etpxz9fkLoE172" r="7.086626" transform="matrix(1 0 0 1 480.472443 420.944885)" fill="rgb(197,255,205)" stroke="none" stroke-width="1"/><circle id="etpxz9fkLoE173" r="7.086626" transform="matrix(1 0 0 1 480.472443 420.944885)" fill="none" stroke="rgb(0,0,0)" stroke-width="1" stroke-linecap="round" stroke-linejoin="round"/><path id="etpxz9fkLoE174" d="M467.71653,449.29022C467.71653,438.3315,473.42756,429.4477,480.47244,429.4477C487.51732,429.4477,493.22834,438.3315,493.22834,449.29022L467.71653,449.29022" fill="rgb(197,255,205)" stroke="none" stroke-width="1"/><path id="etpxz9fkLoE175" d="M467.71653,449.29022C467.71653,438.3315,473.42756,429.4477,480.47244,429.4477C487.51732,429.4477,493.22834,438.3315,493.22834,449.29022L467.71653,449.29022" fill="none" stroke="rgb(0,0,0)" stroke-width="1" stroke-linecap="round" stroke-linejoin="round"/><circle id="etpxz9fkLoE176" r="7.086626" transform="matrix(1 0 0 1 508.818909 420.944885)" fill="rgb(197,255,205)" stroke="none" stroke-width="1"/><circle id="etpxz9fkLoE177" r="7.086626" transform="matrix(1 0 0 1 508.818909 420.944885)" fill="none" stroke="rgb(0,0,0)" stroke-width="1" stroke-linecap="round" stroke-linejoin="round"/><path id="etpxz9fkLoE178" d="M496.063,449.29022C496.063,438.3315,501.774,429.4477,508.8189,429.4477C515.86378,429.4477,521.5748,438.3315,521.5748,449.29022L496.063,449.29022" fill="rgb(197,255,205)" stroke="none" stroke-width="1"/><path id="etpxz9fkLoE179" d="M496.063,449.29022C496.063,438.3315,501.774,429.4477,508.8189,429.4477C515.86378,429.4477,521.5748,438.3315,521.5748,449.29022L496.063,449.29022" fill="none" stroke="rgb(0,0,0)" stroke-width="1" stroke-linecap="round" stroke-linejoin="round"/><circle id="etpxz9fkLoE180" r="7.086626" transform="matrix(1 0 0 1 494.64566 426.614166)" fill="rgb(197,255,205)" stroke="none" stroke-width="1"/><circle id="etpxz9fkLoE181" r="7.086626" transform="matrix(1 0 0 1 494.64566 426.614166)" fill="none" stroke="rgb(0,0,0)" stroke-width="1" stroke-linecap="round" stroke-linejoin="round"/><path id="etpxz9fkLoE182" d="M481.88976,454.9595C481.88976,444.00078,487.60078,435.117,494.64567,435.117C501.69055,435.117,507.40157,444.00078,507.40157,454.9595L481.88976,454.9595" fill="rgb(197,255,205)" stroke="none" stroke-width="1"/><path id="etpxz9fkLoE183" d="M481.88976,454.9595C481.88976,444.00078,487.60078,435.117,494.64567,435.117C501.69055,435.117,507.40157,444.00078,507.40157,454.9595L481.88976,454.9595" fill="none" stroke="rgb(0,0,0)" stroke-width="1" stroke-linecap="round" stroke-linejoin="round"/></g></g><g id="etpxz9fkLoE184"><rect id="etpxz9fkLoE185" width="197" height="32" rx="0" ry="0" transform="matrix(1 0 0 1 505.393707 269.291351)" fill="rgb(197,255,205)" stroke="none" stroke-width="1"/><rect id="etpxz9fkLoE186" width="197" height="32" rx="0" ry="0" transform="matrix(1 0 0 1 505.393707 269.291351)" fill="none" stroke="rgb(0,0,0)" stroke-width="1" stroke-linecap="round" stroke-linejoin="round"/><text id="etpxz9fkLoE187" dx="0" dy="0" font-family="&quot;-webkit-standard&quot;" font-size="16" font-weight="400" transform="matrix(1 0 0 1 513.393677 276.059265)" fill="rgb(0,0,0)" stroke="none" stroke-width="1"><tspan id="etpxz9fkLoE188" x="0.34" y="15" font-family="&quot;Helvetica Neue&quot;" font-size="16" font-weight="300" font-style="normal" fill="rgb(0,0,0)" stroke-width="1"><![CDATA[Measur]]></tspan><tspan id="etpxz9fkLoE189" x="51.124001" y="15" font-family="&quot;Helvetica Neue&quot;" font-size="16" font-weight="300" font-style="normal" fill="rgb(0,0,0)" stroke-width="1"><![CDATA[e Energy Effi]]></tspan><tspan id="etpxz9fkLoE190" x="136.78799" y="15" font-family="&quot;Helvetica Neue&quot;" font-size="16" font-weight="300" font-style="normal" fill="rgb(0,0,0)" stroke-width="1"><![CDATA[ciency]]></tspan></text></g><g id="etpxz9fkLoE191"><rect id="etpxz9fkLoE192" width="219" height="32" rx="0" ry="0" transform="matrix(1 0 0 1 494.393707 369.685028)" fill="rgb(197,255,205)" stroke="none" stroke-width="1"/><rect id="etpxz9fkLoE193" width="219" height="32" rx="0" ry="0" transform="matrix(1 0 0 1 494.393707 369.685028)" fill="none" stroke="rgb(0,0,0)" stroke-width="1" stroke-linecap="round" stroke-linejoin="round"/><text id="etpxz9fkLoE194" dx="0" dy="0" font-family="&quot;-webkit-standard&quot;" font-size="16" font-weight="400" transform="matrix(1 0 0 1 502.393707 376.452972)" fill="rgb(0,0,0)" stroke="none" stroke-width="1"><tspan id="etpxz9fkLoE195" x="0.124" y="15" font-family="&quot;Helvetica Neue&quot;" font-size="16" font-weight="300" font-style="normal" fill="rgb(0,0,0)" stroke-width="1"><![CDATA[Gr]]></tspan><tspan id="etpxz9fkLoE196" x="16.732" y="15" font-family="&quot;Helvetica Neue&quot;" font-size="16" font-weight="300" font-style="normal" fill="rgb(0,0,0)" stroke-width="1"><![CDATA[een Softwar]]></tspan><tspan id="etpxz9fkLoE197" x="99.148003" y="15" font-family="&quot;Helvetica Neue&quot;" font-size="16" font-weight="300" font-style="normal" fill="rgb(0,0,0)" stroke-width="1"><![CDATA[e Development]]></tspan></text></g><g id="etpxz9fkLoE198"><rect id="etpxz9fkLoE199" width="268" height="32" rx="0" ry="0" transform="matrix(1 0 0 1 469.893707 172.676056)" fill="rgb(197,255,205)" stroke="none" stroke-width="1"/><rect id="etpxz9fkLoE200" width="268" height="32" rx="0" ry="0" transform="matrix(1 0 0 1 469.893707 172.676056)" fill="none" stroke="rgb(0,0,0)" stroke-width="1" stroke-linecap="round" stroke-linejoin="round"/><text id="etpxz9fkLoE201" dx="0" dy="0" font-family="&quot;Helvetica Neue&quot;" font-size="16" font-weight="400" transform="matrix(1 0 0 1 477.893707 179.443985)" fill="rgb(0,0,0)" stroke="none" stroke-width="1"><tspan id="etpxz9fkLoE202" x="0.488" y="15" font-family="&quot;Helvetica Neue&quot;" font-size="16" font-weight="300" font-style="normal" fill="rgb(0,0,0)" stroke-width="1"><![CDATA[Education for Softwar]]></tspan><tspan id="etpxz9fkLoE203" x="149.28799" y="15" font-family="&quot;Helvetica Neue&quot;" font-size="16" font-weight="300" font-style="normal" fill="rgb(0,0,0)" stroke-width="1"><![CDATA[e Sustainability]]></tspan></text></g></g></g></svg>