<?xml version="1.0" encoding="utf-8" standalone="no"?>
<!DOCTYPE svg PUBLIC "-//W3C//DTD SVG 1.1//EN"
  "http://www.w3.org/Graphics/SVG/1.1/DTD/svg11.dtd">
<!-- Created with matplotlib (https://matplotlib.org/) -->
<svg height="288pt" version="1.1" viewBox="0 0 432 288" width="432pt" xmlns="http://www.w3.org/2000/svg" xmlns:xlink="http://www.w3.org/1999/xlink">
 <defs>
  <style type="text/css">
*{stroke-linecap:butt;stroke-linejoin:round;}
  </style>
 </defs>
 <g id="figure_1">
  <g id="patch_1">
   <path d="M 0 288 
L 432 288 
L 432 0 
L 0 0 
z
" style="fill:#ffffff;"/>
  </g>
  <g id="axes_1">
   <g id="patch_2">
    <path d="M 54 252 
L 388.8 252 
L 388.8 34.56 
L 54 34.56 
z
" style="fill:#ffffff;"/>
   </g>
   <g id="PolyCollection_1">
    <defs>
     <path d="M 145.03084 -131.840503 
L 130.36916 -131.840503 
L 129.861098 -132.968946 
L 129.344646 -134.097389 
L 128.820812 -135.225832 
L 128.29034 -136.354275 
L 127.753666 -137.482718 
L 127.210862 -138.611161 
L 126.661603 -139.739604 
L 126.105137 -140.868047 
L 125.540262 -141.99649 
L 124.965333 -143.124933 
L 124.378275 -144.253376 
L 123.776627 -145.381819 
L 123.1576 -146.510263 
L 122.518162 -147.638706 
L 121.855149 -148.767149 
L 121.165383 -149.895592 
L 120.445819 -151.024035 
L 119.693691 -152.152478 
L 118.906673 -153.280921 
L 118.08302 -154.409364 
L 117.221719 -155.537807 
L 116.322604 -156.66625 
L 115.386457 -157.794693 
L 114.415075 -158.923136 
L 113.411302 -160.051579 
L 112.379026 -161.180022 
L 111.323136 -162.308465 
L 110.249443 -163.436908 
L 109.16457 -164.565351 
L 108.075811 -165.693794 
L 106.990972 -166.822237 
L 105.918185 -167.95068 
L 104.865735 -169.079123 
L 103.841863 -170.207566 
L 102.854595 -171.336009 
L 101.911572 -172.464452 
L 101.019904 -173.592895 
L 100.186048 -174.721338 
L 99.415705 -175.849781 
L 98.71375 -176.978224 
L 98.084182 -178.106668 
L 97.530112 -179.235111 
L 97.053759 -180.363554 
L 96.65648 -181.491997 
L 96.338811 -182.62044 
L 96.100531 -183.748883 
L 95.940732 -184.877326 
L 95.857898 -186.005769 
L 95.85 -187.134212 
L 95.914583 -188.262655 
L 96.048864 -189.391098 
L 96.249827 -190.519541 
L 96.514318 -191.647984 
L 96.839132 -192.776427 
L 97.221099 -193.90487 
L 97.65716 -195.033313 
L 98.144436 -196.161756 
L 98.680276 -197.290199 
L 99.262308 -198.418642 
L 99.888453 -199.547085 
L 100.556936 -200.675528 
L 101.266273 -201.803971 
L 102.015239 -202.932414 
L 102.802813 -204.060857 
L 103.628113 -205.1893 
L 104.490308 -206.317743 
L 105.388523 -207.446186 
L 106.321736 -208.57463 
L 107.288668 -209.703073 
L 108.287685 -210.831516 
L 109.316703 -211.959959 
L 110.373109 -213.088402 
L 111.453706 -214.216845 
L 112.554679 -215.345288 
L 113.671598 -216.473731 
L 114.799441 -217.602174 
L 115.932658 -218.730617 
L 117.065264 -219.85906 
L 118.190956 -220.987503 
L 119.30326 -222.115946 
L 120.395687 -223.244389 
L 121.461912 -224.372832 
L 122.495944 -225.501275 
L 123.4923 -226.629718 
L 124.446157 -227.758161 
L 125.35349 -228.886604 
L 126.21118 -230.015047 
L 127.017087 -231.14349 
L 127.770085 -232.271933 
L 128.470064 -233.400376 
L 129.117885 -234.528819 
L 129.715307 -235.657262 
L 130.264874 -236.785705 
L 130.769782 -237.914148 
L 131.233725 -239.042591 
L 131.660723 -240.171035 
L 132.054961 -241.299478 
L 132.420617 -242.427921 
L 132.761718 -243.556364 
L 142.638282 -243.556364 
L 142.638282 -243.556364 
L 142.979383 -242.427921 
L 143.345039 -241.299478 
L 143.739277 -240.171035 
L 144.166275 -239.042591 
L 144.630218 -237.914148 
L 145.135126 -236.785705 
L 145.684693 -235.657262 
L 146.282115 -234.528819 
L 146.929936 -233.400376 
L 147.629915 -232.271933 
L 148.382913 -231.14349 
L 149.18882 -230.015047 
L 150.04651 -228.886604 
L 150.953843 -227.758161 
L 151.9077 -226.629718 
L 152.904056 -225.501275 
L 153.938088 -224.372832 
L 155.004313 -223.244389 
L 156.09674 -222.115946 
L 157.209044 -220.987503 
L 158.334736 -219.85906 
L 159.467342 -218.730617 
L 160.600559 -217.602174 
L 161.728402 -216.473731 
L 162.845321 -215.345288 
L 163.946294 -214.216845 
L 165.026891 -213.088402 
L 166.083297 -211.959959 
L 167.112315 -210.831516 
L 168.111332 -209.703073 
L 169.078264 -208.57463 
L 170.011477 -207.446186 
L 170.909692 -206.317743 
L 171.771887 -205.1893 
L 172.597187 -204.060857 
L 173.384761 -202.932414 
L 174.133727 -201.803971 
L 174.843064 -200.675528 
L 175.511547 -199.547085 
L 176.137692 -198.418642 
L 176.719724 -197.290199 
L 177.255564 -196.161756 
L 177.74284 -195.033313 
L 178.178901 -193.90487 
L 178.560868 -192.776427 
L 178.885682 -191.647984 
L 179.150173 -190.519541 
L 179.351136 -189.391098 
L 179.485417 -188.262655 
L 179.55 -187.134212 
L 179.542102 -186.005769 
L 179.459268 -184.877326 
L 179.299469 -183.748883 
L 179.061189 -182.62044 
L 178.74352 -181.491997 
L 178.346241 -180.363554 
L 177.869888 -179.235111 
L 177.315818 -178.106668 
L 176.68625 -176.978224 
L 175.984295 -175.849781 
L 175.213952 -174.721338 
L 174.380096 -173.592895 
L 173.488428 -172.464452 
L 172.545405 -171.336009 
L 171.558137 -170.207566 
L 170.534265 -169.079123 
L 169.481815 -167.95068 
L 168.409028 -166.822237 
L 167.324189 -165.693794 
L 166.23543 -164.565351 
L 165.150557 -163.436908 
L 164.076864 -162.308465 
L 163.020974 -161.180022 
L 161.988698 -160.051579 
L 160.984925 -158.923136 
L 160.013543 -157.794693 
L 159.077396 -156.66625 
L 158.178281 -155.537807 
L 157.31698 -154.409364 
L 156.493327 -153.280921 
L 155.706309 -152.152478 
L 154.954181 -151.024035 
L 154.234617 -149.895592 
L 153.544851 -148.767149 
L 152.881838 -147.638706 
L 152.2424 -146.510263 
L 151.623373 -145.381819 
L 151.021725 -144.253376 
L 150.434667 -143.124933 
L 149.859738 -141.99649 
L 149.294863 -140.868047 
L 148.738397 -139.739604 
L 148.189138 -138.611161 
L 147.646334 -137.482718 
L 147.10966 -136.354275 
L 146.579188 -135.225832 
L 146.055354 -134.097389 
L 145.538902 -132.968946 
L 145.03084 -131.840503 
z
" id="m73d0e36673" style="stroke:#000000;stroke-width:0.6;"/>
    </defs>
    <g clip-path="url(#p7fa309b58c)">
     <use style="fill:#ffffff;stroke:#000000;stroke-width:0.6;" x="0" xlink:href="#m73d0e36673" y="288"/>
    </g>
   </g>
   <g id="PolyCollection_2">
    <defs>
     <path d="M 310.987228 -45.883636 
L 299.212772 -45.883636 
L 298.725764 -46.848729 
L 298.212151 -47.813822 
L 297.670997 -48.778915 
L 297.101587 -49.744008 
L 296.50349 -50.709101 
L 295.87659 -51.674194 
L 295.221097 -52.639287 
L 294.537524 -53.60438 
L 293.826622 -54.569473 
L 293.089298 -55.534565 
L 292.326501 -56.499658 
L 291.539097 -57.464751 
L 290.727738 -58.429844 
L 289.892757 -59.394937 
L 289.034076 -60.36003 
L 288.15117 -61.325123 
L 287.24307 -62.290216 
L 286.30844 -63.255309 
L 285.345709 -64.220402 
L 284.353258 -65.185495 
L 283.329668 -66.150587 
L 282.273992 -67.11568 
L 281.186047 -68.080773 
L 280.066705 -69.045866 
L 278.918149 -70.010959 
L 277.744078 -70.976052 
L 276.549852 -71.941145 
L 275.342541 -72.906238 
L 274.130887 -73.871331 
L 272.925167 -74.836424 
L 271.736968 -75.801517 
L 270.578881 -76.76661 
L 269.464129 -77.731702 
L 268.406153 -78.696795 
L 267.418182 -79.661888 
L 266.5128 -80.626981 
L 265.701548 -81.592074 
L 264.994566 -82.557167 
L 264.4003 -83.52226 
L 263.925284 -84.487353 
L 263.573997 -85.452446 
L 263.34881 -86.417539 
L 263.25 -87.382632 
L 263.275847 -88.347724 
L 263.422784 -89.312817 
L 263.685604 -90.27791 
L 264.057705 -91.243003 
L 264.531357 -92.208096 
L 265.097994 -93.173189 
L 265.748497 -94.138282 
L 266.473481 -95.103375 
L 267.26356 -96.068468 
L 268.109585 -97.033561 
L 269.002861 -97.998654 
L 269.935309 -98.963746 
L 270.899605 -99.928839 
L 271.889259 -100.893932 
L 272.898656 -101.859025 
L 273.923055 -102.824118 
L 274.958535 -103.789211 
L 276.001922 -104.754304 
L 277.05067 -105.719397 
L 278.102737 -106.68449 
L 279.156431 -107.649583 
L 280.210272 -108.614676 
L 281.262847 -109.579768 
L 282.312684 -110.544861 
L 283.358142 -111.509954 
L 284.397334 -112.475047 
L 285.42807 -113.44014 
L 286.44783 -114.405233 
L 287.453769 -115.370326 
L 288.442741 -116.335419 
L 289.411351 -117.300512 
L 290.356025 -118.265605 
L 291.273088 -119.230698 
L 292.158862 -120.19579 
L 293.009763 -121.160883 
L 293.822406 -122.125976 
L 294.593705 -123.091069 
L 295.320974 -124.056162 
L 296.002018 -125.021255 
L 296.635218 -125.986348 
L 297.219599 -126.951441 
L 297.754885 -127.916534 
L 298.241538 -128.881627 
L 298.680768 -129.84672 
L 299.074523 -130.811813 
L 299.425456 -131.776905 
L 299.736862 -132.741998 
L 300.012586 -133.707091 
L 300.256918 -134.672184 
L 300.474454 -135.637277 
L 300.669957 -136.60237 
L 300.848196 -137.567463 
L 301.013795 -138.532556 
L 301.171084 -139.497649 
L 301.323962 -140.462742 
L 301.475783 -141.427835 
L 308.724217 -141.427835 
L 308.724217 -141.427835 
L 308.876038 -140.462742 
L 309.028916 -139.497649 
L 309.186205 -138.532556 
L 309.351804 -137.567463 
L 309.530043 -136.60237 
L 309.725546 -135.637277 
L 309.943082 -134.672184 
L 310.187414 -133.707091 
L 310.463138 -132.741998 
L 310.774544 -131.776905 
L 311.125477 -130.811813 
L 311.519232 -129.84672 
L 311.958462 -128.881627 
L 312.445115 -127.916534 
L 312.980401 -126.951441 
L 313.564782 -125.986348 
L 314.197982 -125.021255 
L 314.879026 -124.056162 
L 315.606295 -123.091069 
L 316.377594 -122.125976 
L 317.190237 -121.160883 
L 318.041138 -120.19579 
L 318.926912 -119.230698 
L 319.843975 -118.265605 
L 320.788649 -117.300512 
L 321.757259 -116.335419 
L 322.746231 -115.370326 
L 323.75217 -114.405233 
L 324.77193 -113.44014 
L 325.802666 -112.475047 
L 326.841858 -111.509954 
L 327.887316 -110.544861 
L 328.937153 -109.579768 
L 329.989728 -108.614676 
L 331.043569 -107.649583 
L 332.097263 -106.68449 
L 333.14933 -105.719397 
L 334.198078 -104.754304 
L 335.241465 -103.789211 
L 336.276945 -102.824118 
L 337.301344 -101.859025 
L 338.310741 -100.893932 
L 339.300395 -99.928839 
L 340.264691 -98.963746 
L 341.197139 -97.998654 
L 342.090415 -97.033561 
L 342.93644 -96.068468 
L 343.726519 -95.103375 
L 344.451503 -94.138282 
L 345.102006 -93.173189 
L 345.668643 -92.208096 
L 346.142295 -91.243003 
L 346.514396 -90.27791 
L 346.777216 -89.312817 
L 346.924153 -88.347724 
L 346.95 -87.382632 
L 346.85119 -86.417539 
L 346.626003 -85.452446 
L 346.274716 -84.487353 
L 345.7997 -83.52226 
L 345.205434 -82.557167 
L 344.498452 -81.592074 
L 343.6872 -80.626981 
L 342.781818 -79.661888 
L 341.793847 -78.696795 
L 340.735871 -77.731702 
L 339.621119 -76.76661 
L 338.463032 -75.801517 
L 337.274833 -74.836424 
L 336.069113 -73.871331 
L 334.857459 -72.906238 
L 333.650148 -71.941145 
L 332.455922 -70.976052 
L 331.281851 -70.010959 
L 330.133295 -69.045866 
L 329.013953 -68.080773 
L 327.926008 -67.11568 
L 326.870332 -66.150587 
L 325.846742 -65.185495 
L 324.854291 -64.220402 
L 323.89156 -63.255309 
L 322.95693 -62.290216 
L 322.04883 -61.325123 
L 321.165924 -60.36003 
L 320.307243 -59.394937 
L 319.472262 -58.429844 
L 318.660903 -57.464751 
L 317.873499 -56.499658 
L 317.110702 -55.534565 
L 316.373378 -54.569473 
L 315.662476 -53.60438 
L 314.978903 -52.639287 
L 314.32341 -51.674194 
L 313.69651 -50.709101 
L 313.098413 -49.744008 
L 312.529003 -48.778915 
L 311.987849 -47.813822 
L 311.474236 -46.848729 
L 310.987228 -45.883636 
z
" id="ma1c1e35958" style="stroke:#000000;stroke-width:0.6;"/>
    </defs>
    <g clip-path="url(#p7fa309b58c)">
     <use style="fill:#ffffff;stroke:#000000;stroke-width:0.6;" x="0" xlink:href="#ma1c1e35958" y="288"/>
    </g>
   </g>
   <g id="matplotlib.axis_1">
    <g id="xtick_1">
     <g id="line2d_1">
      <defs>
       <path d="M 0 0 
L 0 3.5 
" id="mee40208b8e" style="stroke:#000000;stroke-width:0.8;"/>
      </defs>
      <g>
       <use style="stroke:#000000;stroke-width:0.8;" x="137.7" xlink:href="#mee40208b8e" y="252"/>
      </g>
     </g>
     <g id="text_1">
      <!-- Version A -->
      <defs>
       <path d="M 17.484375 67.671875 
L 39.015625 11.71875 
L 60.5 67.671875 
L 52.296875 67.671875 
L 52.296875 72.90625 
L 73.6875 72.90625 
L 73.6875 67.671875 
L 66.609375 67.671875 
L 40.578125 0 
L 32.171875 0 
L 6.296875 67.671875 
L -0.984375 67.671875 
L -0.984375 72.90625 
L 25.59375 72.90625 
L 25.59375 67.671875 
z
" id="DejaVuSerif-86"/>
       <path d="M 54.203125 25 
L 15.484375 25 
L 15.484375 24.609375 
Q 15.484375 14.109375 19.4375 8.765625 
Q 23.390625 3.421875 31.109375 3.421875 
Q 37.015625 3.421875 40.796875 6.515625 
Q 44.578125 9.625 46.09375 15.71875 
L 53.328125 15.71875 
Q 51.171875 7.171875 45.375 2.875 
Q 39.59375 -1.421875 30.171875 -1.421875 
Q 18.796875 -1.421875 11.890625 6.078125 
Q 4.984375 13.578125 4.984375 25.984375 
Q 4.984375 38.28125 11.765625 45.796875 
Q 18.5625 53.328125 29.59375 53.328125 
Q 41.359375 53.328125 47.65625 46.0625 
Q 53.953125 38.8125 54.203125 25 
z
M 43.609375 30.171875 
Q 43.3125 39.265625 39.765625 43.875 
Q 36.234375 48.484375 29.59375 48.484375 
Q 23.390625 48.484375 19.828125 43.84375 
Q 16.265625 39.203125 15.484375 30.171875 
z
" id="DejaVuSerif-101"/>
       <path d="M 47.796875 52 
L 47.796875 39.015625 
L 42.625 39.015625 
Q 42.390625 42.875 40.484375 44.78125 
Q 38.578125 46.6875 34.90625 46.6875 
Q 28.265625 46.6875 24.71875 42.09375 
Q 21.1875 37.5 21.1875 28.90625 
L 21.1875 5.171875 
L 31.59375 5.171875 
L 31.59375 0 
L 4.109375 0 
L 4.109375 5.171875 
L 12.203125 5.171875 
L 12.203125 46.78125 
L 3.609375 46.78125 
L 3.609375 51.90625 
L 21.1875 51.90625 
L 21.1875 42.671875 
Q 23.828125 48.09375 27.96875 50.703125 
Q 32.125 53.328125 38.09375 53.328125 
Q 40.28125 53.328125 42.703125 52.984375 
Q 45.125 52.640625 47.796875 52 
z
" id="DejaVuSerif-114"/>
       <path d="M 5.609375 2.875 
L 5.609375 14.984375 
L 10.796875 14.984375 
Q 10.984375 9.1875 14.421875 6.296875 
Q 17.875 3.421875 24.609375 3.421875 
Q 30.671875 3.421875 33.84375 5.6875 
Q 37.015625 7.953125 37.015625 12.3125 
Q 37.015625 15.71875 34.6875 17.8125 
Q 32.375 19.921875 24.90625 22.3125 
L 18.40625 24.515625 
Q 11.71875 26.65625 8.71875 29.875 
Q 5.71875 33.109375 5.71875 38.09375 
Q 5.71875 45.21875 10.9375 49.265625 
Q 16.15625 53.328125 25.390625 53.328125 
Q 29.5 53.328125 34.03125 52.25 
Q 38.578125 51.171875 43.40625 49.125 
L 43.40625 37.796875 
L 38.234375 37.796875 
Q 38.03125 42.828125 34.703125 45.65625 
Q 31.390625 48.484375 25.6875 48.484375 
Q 20.015625 48.484375 17.109375 46.484375 
Q 14.203125 44.484375 14.203125 40.484375 
Q 14.203125 37.203125 16.40625 35.21875 
Q 18.609375 33.25 25.203125 31.203125 
L 32.328125 29 
Q 39.703125 26.703125 42.9375 23.265625 
Q 46.1875 19.828125 46.1875 14.40625 
Q 46.1875 7.03125 40.546875 2.796875 
Q 34.90625 -1.421875 25 -1.421875 
Q 19.96875 -1.421875 15.1875 -0.34375 
Q 10.40625 0.734375 5.609375 2.875 
z
" id="DejaVuSerif-115"/>
       <path d="M 9.71875 68.015625 
Q 9.71875 70.265625 11.34375 71.921875 
Q 12.984375 73.578125 15.28125 73.578125 
Q 17.53125 73.578125 19.15625 71.921875 
Q 20.796875 70.265625 20.796875 68.015625 
Q 20.796875 65.71875 19.1875 64.109375 
Q 17.578125 62.5 15.28125 62.5 
Q 12.984375 62.5 11.34375 64.109375 
Q 9.71875 65.71875 9.71875 68.015625 
z
M 21.1875 5.171875 
L 29.6875 5.171875 
L 29.6875 0 
L 3.609375 0 
L 3.609375 5.171875 
L 12.203125 5.171875 
L 12.203125 46.6875 
L 3.609375 46.6875 
L 3.609375 51.90625 
L 21.1875 51.90625 
z
" id="DejaVuSerif-105"/>
       <path d="M 30.078125 3.421875 
Q 37.3125 3.421875 40.984375 9.125 
Q 44.671875 14.84375 44.671875 25.984375 
Q 44.671875 37.109375 40.984375 42.796875 
Q 37.3125 48.484375 30.078125 48.484375 
Q 22.859375 48.484375 19.171875 42.796875 
Q 15.484375 37.109375 15.484375 25.984375 
Q 15.484375 14.84375 19.1875 9.125 
Q 22.90625 3.421875 30.078125 3.421875 
z
M 30.078125 -1.421875 
Q 18.75 -1.421875 11.859375 6.078125 
Q 4.984375 13.578125 4.984375 25.984375 
Q 4.984375 38.375 11.84375 45.84375 
Q 18.703125 53.328125 30.078125 53.328125 
Q 41.453125 53.328125 48.3125 45.84375 
Q 55.171875 38.375 55.171875 25.984375 
Q 55.171875 13.578125 48.3125 6.078125 
Q 41.453125 -1.421875 30.078125 -1.421875 
z
" id="DejaVuSerif-111"/>
       <path d="M 4.109375 0 
L 4.109375 5.171875 
L 12.203125 5.171875 
L 12.203125 46.6875 
L 3.609375 46.6875 
L 3.609375 51.90625 
L 21.1875 51.90625 
L 21.1875 42.671875 
Q 23.6875 47.953125 27.65625 50.640625 
Q 31.640625 53.328125 36.921875 53.328125 
Q 45.515625 53.328125 49.5625 48.390625 
Q 53.609375 43.453125 53.609375 33.015625 
L 53.609375 5.171875 
L 61.625 5.171875 
L 61.625 0 
L 36.8125 0 
L 36.8125 5.171875 
L 44.578125 5.171875 
L 44.578125 30.171875 
Q 44.578125 39.703125 42.234375 43.234375 
Q 39.890625 46.78125 33.984375 46.78125 
Q 27.734375 46.78125 24.453125 42.203125 
Q 21.1875 37.640625 21.1875 28.90625 
L 21.1875 5.171875 
L 29 5.171875 
L 29 0 
z
" id="DejaVuSerif-110"/>
       <path id="DejaVuSerif-32"/>
       <path d="M 20.015625 26.421875 
L 46.78125 26.421875 
L 33.40625 61.078125 
z
M -0.59375 0 
L -0.59375 5.171875 
L 5.8125 5.171875 
L 31.78125 72.90625 
L 39.984375 72.90625 
L 66.015625 5.171875 
L 73.1875 5.171875 
L 73.1875 0 
L 46.6875 0 
L 46.6875 5.171875 
L 54.78125 5.171875 
L 48.6875 21.1875 
L 18.015625 21.1875 
L 11.921875 5.171875 
L 19.921875 5.171875 
L 19.921875 0 
z
" id="DejaVuSerif-65"/>
      </defs>
      <g transform="translate(113.600781 266.598437)scale(0.1 -0.1)">
       <use xlink:href="#DejaVuSerif-86"/>
       <use x="63.091797" xlink:href="#DejaVuSerif-101"/>
       <use x="122.271484" xlink:href="#DejaVuSerif-114"/>
       <use x="170.074219" xlink:href="#DejaVuSerif-115"/>
       <use x="221.392578" xlink:href="#DejaVuSerif-105"/>
       <use x="253.375" xlink:href="#DejaVuSerif-111"/>
       <use x="313.580078" xlink:href="#DejaVuSerif-110"/>
       <use x="377.984375" xlink:href="#DejaVuSerif-32"/>
       <use x="409.771484" xlink:href="#DejaVuSerif-65"/>
      </g>
     </g>
    </g>
    <g id="xtick_2">
     <g id="line2d_2">
      <g>
       <use style="stroke:#000000;stroke-width:0.8;" x="305.1" xlink:href="#mee40208b8e" y="252"/>
      </g>
     </g>
     <g id="text_2">
      <!-- Version B -->
      <defs>
       <path d="M 24.703125 5.171875 
L 39.3125 5.171875 
Q 48.09375 5.171875 52.140625 8.984375 
Q 56.203125 12.796875 56.203125 21.09375 
Q 56.203125 29.34375 52.171875 33.125 
Q 48.140625 36.921875 39.3125 36.921875 
L 24.703125 36.921875 
z
M 24.703125 42.09375 
L 37.109375 42.09375 
Q 45.125 42.09375 48.796875 45.171875 
Q 52.484375 48.25 52.484375 54.890625 
Q 52.484375 61.578125 48.796875 64.625 
Q 45.125 67.671875 37.109375 67.671875 
L 24.703125 67.671875 
z
M 5.515625 0 
L 5.515625 5.171875 
L 14.796875 5.171875 
L 14.796875 67.671875 
L 5.515625 67.671875 
L 5.515625 72.90625 
L 41.5 72.90625 
Q 52.546875 72.90625 58.125 68.390625 
Q 63.71875 63.875 63.71875 54.890625 
Q 63.71875 48.390625 59.828125 44.53125 
Q 55.953125 40.671875 48.484375 39.796875 
Q 57.765625 38.625 62.578125 33.859375 
Q 67.390625 29.109375 67.390625 21.09375 
Q 67.390625 10.25 60.546875 5.125 
Q 53.71875 0 39.203125 0 
z
" id="DejaVuSerif-66"/>
      </defs>
      <g transform="translate(280.9375 266.598437)scale(0.1 -0.1)">
       <use xlink:href="#DejaVuSerif-86"/>
       <use x="63.091797" xlink:href="#DejaVuSerif-101"/>
       <use x="122.271484" xlink:href="#DejaVuSerif-114"/>
       <use x="170.074219" xlink:href="#DejaVuSerif-115"/>
       <use x="221.392578" xlink:href="#DejaVuSerif-105"/>
       <use x="253.375" xlink:href="#DejaVuSerif-111"/>
       <use x="313.580078" xlink:href="#DejaVuSerif-110"/>
       <use x="377.984375" xlink:href="#DejaVuSerif-32"/>
       <use x="409.771484" xlink:href="#DejaVuSerif-66"/>
      </g>
     </g>
    </g>
   </g>
   <g id="matplotlib.axis_2">
    <g id="ytick_1">
     <g id="line2d_3">
      <defs>
       <path d="M 0 0 
L -3.5 0 
" id="m35377b15b1" style="stroke:#000000;stroke-width:0.8;"/>
      </defs>
      <g>
       <use style="stroke:#000000;stroke-width:0.8;" x="54" xlink:href="#m35377b15b1" y="241.375767"/>
      </g>
     </g>
     <g id="text_3">
      <!-- 70 -->
      <defs>
       <path d="M 56.390625 67.921875 
L 27.875 0 
L 20.609375 0 
L 47.796875 64.890625 
L 14.109375 64.890625 
L 14.109375 55.90625 
L 8.40625 55.90625 
L 8.40625 72.90625 
L 56.390625 72.90625 
z
" id="DejaVuSerif-55"/>
       <path d="M 31.78125 3.421875 
Q 39.265625 3.421875 42.96875 11.625 
Q 46.6875 19.828125 46.6875 36.375 
Q 46.6875 52.984375 42.96875 61.1875 
Q 39.265625 69.390625 31.78125 69.390625 
Q 24.3125 69.390625 20.59375 61.1875 
Q 16.890625 52.984375 16.890625 36.375 
Q 16.890625 19.828125 20.59375 11.625 
Q 24.3125 3.421875 31.78125 3.421875 
z
M 31.78125 -1.421875 
Q 19.921875 -1.421875 13.25 8.53125 
Q 6.59375 18.5 6.59375 36.375 
Q 6.59375 54.296875 13.25 64.25 
Q 19.921875 74.21875 31.78125 74.21875 
Q 43.703125 74.21875 50.34375 64.25 
Q 56.984375 54.296875 56.984375 36.375 
Q 56.984375 18.5 50.34375 8.53125 
Q 43.703125 -1.421875 31.78125 -1.421875 
z
" id="DejaVuSerif-48"/>
      </defs>
      <g transform="translate(34.275 245.174986)scale(0.1 -0.1)">
       <use xlink:href="#DejaVuSerif-55"/>
       <use x="63.623047" xlink:href="#DejaVuSerif-48"/>
      </g>
     </g>
    </g>
    <g id="ytick_2">
     <g id="line2d_4">
      <g>
       <use style="stroke:#000000;stroke-width:0.8;" x="54" xlink:href="#m35377b15b1" y="196.367793"/>
      </g>
     </g>
     <g id="text_4">
      <!-- 80 -->
      <defs>
       <path d="M 46.578125 19.921875 
Q 46.578125 27.734375 42.6875 32.046875 
Q 38.8125 36.375 31.78125 36.375 
Q 24.75 36.375 20.875 32.046875 
Q 17 27.734375 17 19.921875 
Q 17 12.0625 20.875 7.734375 
Q 24.75 3.421875 31.78125 3.421875 
Q 38.8125 3.421875 42.6875 7.734375 
Q 46.578125 12.0625 46.578125 19.921875 
z
M 44.578125 55.328125 
Q 44.578125 61.96875 41.203125 65.671875 
Q 37.84375 69.390625 31.78125 69.390625 
Q 25.78125 69.390625 22.390625 65.671875 
Q 19 61.96875 19 55.328125 
Q 19 48.640625 22.390625 44.921875 
Q 25.78125 41.21875 31.78125 41.21875 
Q 37.84375 41.21875 41.203125 44.921875 
Q 44.578125 48.640625 44.578125 55.328125 
z
M 39.3125 38.8125 
Q 47.609375 37.703125 52.25 32.6875 
Q 56.890625 27.6875 56.890625 19.921875 
Q 56.890625 9.671875 50.390625 4.125 
Q 43.890625 -1.421875 31.78125 -1.421875 
Q 19.734375 -1.421875 13.203125 4.125 
Q 6.6875 9.671875 6.6875 19.921875 
Q 6.6875 27.6875 11.328125 32.6875 
Q 15.96875 37.703125 24.3125 38.8125 
Q 16.9375 40.140625 13 44.40625 
Q 9.078125 48.6875 9.078125 55.328125 
Q 9.078125 64.109375 15.125 69.15625 
Q 21.1875 74.21875 31.78125 74.21875 
Q 42.390625 74.21875 48.4375 69.15625 
Q 54.5 64.109375 54.5 55.328125 
Q 54.5 48.6875 50.5625 44.40625 
Q 46.625 40.140625 39.3125 38.8125 
z
" id="DejaVuSerif-56"/>
      </defs>
      <g transform="translate(34.275 200.167012)scale(0.1 -0.1)">
       <use xlink:href="#DejaVuSerif-56"/>
       <use x="63.623047" xlink:href="#DejaVuSerif-48"/>
      </g>
     </g>
    </g>
    <g id="ytick_3">
     <g id="line2d_5">
      <g>
       <use style="stroke:#000000;stroke-width:0.8;" x="54" xlink:href="#m35377b15b1" y="151.359819"/>
      </g>
     </g>
     <g id="text_5">
      <!-- 90 -->
      <defs>
       <path d="M 46.78125 32.671875 
Q 43.5 29 39.25 27.1875 
Q 35.015625 25.390625 29.6875 25.390625 
Q 18.84375 25.390625 12.5625 31.9375 
Q 6.296875 38.484375 6.296875 49.8125 
Q 6.296875 60.890625 13.109375 67.546875 
Q 19.921875 74.21875 31.296875 74.21875 
Q 43.65625 74.21875 50.265625 65.015625 
Q 56.890625 55.8125 56.890625 38.71875 
Q 56.890625 19.578125 49.015625 9.078125 
Q 41.15625 -1.421875 26.90625 -1.421875 
Q 23.046875 -1.421875 18.796875 -0.6875 
Q 14.546875 0.046875 10.109375 1.515625 
L 10.109375 13.625 
L 15.578125 13.625 
Q 16.21875 8.6875 19.390625 6.046875 
Q 22.5625 3.421875 27.875 3.421875 
Q 37.359375 3.421875 41.984375 10.5625 
Q 46.625 17.71875 46.78125 32.671875 
z
M 30.90625 69.390625 
Q 23.96875 69.390625 20.28125 64.328125 
Q 16.609375 59.28125 16.609375 49.8125 
Q 16.609375 40.328125 20.28125 35.25 
Q 23.96875 30.171875 30.90625 30.171875 
Q 37.84375 30.171875 41.53125 35.078125 
Q 45.21875 39.984375 45.21875 49.21875 
Q 45.21875 58.9375 41.5 64.15625 
Q 37.796875 69.390625 30.90625 69.390625 
z
" id="DejaVuSerif-57"/>
      </defs>
      <g transform="translate(34.275 155.159037)scale(0.1 -0.1)">
       <use xlink:href="#DejaVuSerif-57"/>
       <use x="63.623047" xlink:href="#DejaVuSerif-48"/>
      </g>
     </g>
    </g>
    <g id="ytick_4">
     <g id="line2d_6">
      <g>
       <use style="stroke:#000000;stroke-width:0.8;" x="54" xlink:href="#m35377b15b1" y="106.351844"/>
      </g>
     </g>
     <g id="text_6">
      <!-- 100 -->
      <defs>
       <path d="M 14.203125 0 
L 14.203125 5.171875 
L 26.90625 5.171875 
L 26.90625 65.828125 
L 12.203125 56.296875 
L 12.203125 62.703125 
L 29.984375 74.21875 
L 36.71875 74.21875 
L 36.71875 5.171875 
L 49.421875 5.171875 
L 49.421875 0 
z
" id="DejaVuSerif-49"/>
      </defs>
      <g transform="translate(27.9125 110.151063)scale(0.1 -0.1)">
       <use xlink:href="#DejaVuSerif-49"/>
       <use x="63.623047" xlink:href="#DejaVuSerif-48"/>
       <use x="127.246094" xlink:href="#DejaVuSerif-48"/>
      </g>
     </g>
    </g>
    <g id="ytick_5">
     <g id="line2d_7">
      <g>
       <use style="stroke:#000000;stroke-width:0.8;" x="54" xlink:href="#m35377b15b1" y="61.34387"/>
      </g>
     </g>
     <g id="text_7">
      <!-- 110 -->
      <g transform="translate(27.9125 65.143089)scale(0.1 -0.1)">
       <use xlink:href="#DejaVuSerif-49"/>
       <use x="63.623047" xlink:href="#DejaVuSerif-49"/>
       <use x="127.246094" xlink:href="#DejaVuSerif-48"/>
      </g>
     </g>
    </g>
    <g id="text_8">
     <!-- Energy Consumption (J) -->
     <defs>
      <path d="M 5.515625 0 
L 5.515625 5.171875 
L 14.796875 5.171875 
L 14.796875 67.671875 
L 5.515625 67.671875 
L 5.515625 72.90625 
L 64.203125 72.90625 
L 64.203125 56.6875 
L 58.203125 56.6875 
L 58.203125 66.890625 
L 24.703125 66.890625 
L 24.703125 42.484375 
L 48.578125 42.484375 
L 48.578125 51.609375 
L 54.59375 51.609375 
L 54.59375 27.390625 
L 48.578125 27.390625 
L 48.578125 36.53125 
L 24.703125 36.53125 
L 24.703125 6 
L 58.984375 6 
L 58.984375 16.21875 
L 64.984375 16.21875 
L 64.984375 0 
z
" id="DejaVuSerif-69"/>
      <path d="M 52.484375 46.6875 
L 52.484375 1.125 
Q 52.484375 -10.0625 46.328125 -16.140625 
Q 40.1875 -22.21875 28.8125 -22.21875 
Q 23.6875 -22.21875 19 -21.28125 
Q 14.3125 -20.359375 10.015625 -18.5 
L 10.015625 -7.625 
L 14.703125 -7.625 
Q 15.578125 -12.703125 18.84375 -15.046875 
Q 22.125 -17.390625 28.21875 -17.390625 
Q 36.140625 -17.390625 39.8125 -12.921875 
Q 43.5 -8.453125 43.5 1.125 
L 43.5 8.109375 
Q 40.875 3.21875 36.796875 0.890625 
Q 32.71875 -1.421875 26.703125 -1.421875 
Q 17.140625 -1.421875 11.0625 6.171875 
Q 4.984375 13.765625 4.984375 25.984375 
Q 4.984375 38.1875 11.03125 45.75 
Q 17.09375 53.328125 26.703125 53.328125 
Q 32.71875 53.328125 36.796875 51 
Q 40.875 48.6875 43.5 43.796875 
L 43.5 51.90625 
L 61.078125 51.90625 
L 61.078125 46.6875 
z
M 43.5 28.515625 
Q 43.5 37.84375 39.90625 42.765625 
Q 36.328125 47.703125 29.5 47.703125 
Q 22.5625 47.703125 19.015625 42.234375 
Q 15.484375 36.765625 15.484375 25.984375 
Q 15.484375 15.234375 19.015625 9.71875 
Q 22.5625 4.203125 29.5 4.203125 
Q 36.328125 4.203125 39.90625 9.109375 
Q 43.5 14.015625 43.5 23.390625 
z
" id="DejaVuSerif-103"/>
      <path d="M 21.578125 -9.515625 
L 25 -0.875 
L 5.609375 46.6875 
L -0.296875 46.6875 
L -0.296875 51.90625 
L 23.578125 51.90625 
L 23.578125 46.6875 
L 15.28125 46.6875 
L 29.890625 10.984375 
L 44.484375 46.6875 
L 36.71875 46.6875 
L 36.71875 51.90625 
L 56.203125 51.90625 
L 56.203125 46.6875 
L 50.390625 46.6875 
L 26.609375 -11.71875 
Q 24.171875 -17.78125 21.1875 -20 
Q 18.21875 -22.21875 12.796875 -22.21875 
Q 10.5 -22.21875 8.078125 -21.828125 
Q 5.671875 -21.4375 3.21875 -20.703125 
L 3.21875 -10.796875 
L 7.8125 -10.796875 
Q 8.109375 -14.109375 9.5 -15.546875 
Q 10.890625 -17 13.8125 -17 
Q 16.5 -17 18.140625 -15.5 
Q 19.78125 -14.015625 21.578125 -9.515625 
z
" id="DejaVuSerif-121"/>
      <path d="M 70.515625 19.28125 
Q 67.28125 9.078125 59.6875 3.828125 
Q 52.09375 -1.421875 40.484375 -1.421875 
Q 33.34375 -1.421875 27.234375 1.015625 
Q 21.140625 3.46875 16.40625 8.203125 
Q 10.9375 13.671875 8.265625 20.625 
Q 5.609375 27.59375 5.609375 36.375 
Q 5.609375 53.375 15.421875 63.796875 
Q 25.25 74.21875 41.3125 74.21875 
Q 47.265625 74.21875 54 72.65625 
Q 60.75 71.09375 68.5 67.921875 
L 68.5 51.125 
L 62.984375 51.125 
Q 61.1875 60.296875 55.734375 64.640625 
Q 50.296875 69 40.484375 69 
Q 28.8125 69 22.796875 60.71875 
Q 16.796875 52.4375 16.796875 36.375 
Q 16.796875 20.359375 22.796875 12.078125 
Q 28.8125 3.8125 40.484375 3.8125 
Q 48.640625 3.8125 53.90625 7.6875 
Q 59.1875 11.578125 61.53125 19.28125 
z
" id="DejaVuSerif-67"/>
      <path d="M 35.40625 51.90625 
L 52.203125 51.90625 
L 52.203125 5.171875 
L 60.6875 5.171875 
L 60.6875 0 
L 43.21875 0 
L 43.21875 9.1875 
Q 40.71875 4 36.765625 1.28125 
Q 32.8125 -1.421875 27.59375 -1.421875 
Q 18.953125 -1.421875 14.875 3.484375 
Q 10.796875 8.40625 10.796875 18.890625 
L 10.796875 46.6875 
L 2.6875 46.6875 
L 2.6875 51.90625 
L 19.828125 51.90625 
L 19.828125 21.6875 
Q 19.828125 12.203125 22.140625 8.6875 
Q 24.46875 5.171875 30.421875 5.171875 
Q 36.671875 5.171875 39.9375 9.765625 
Q 43.21875 14.359375 43.21875 23.09375 
L 43.21875 46.6875 
L 35.40625 46.6875 
z
" id="DejaVuSerif-117"/>
      <path d="M 51.8125 41.796875 
Q 54.390625 47.515625 58.421875 50.421875 
Q 62.453125 53.328125 67.828125 53.328125 
Q 75.984375 53.328125 79.984375 48.265625 
Q 83.984375 43.21875 83.984375 33.015625 
L 83.984375 5.171875 
L 92.09375 5.171875 
L 92.09375 0 
L 67.1875 0 
L 67.1875 5.171875 
L 75 5.171875 
L 75 31.984375 
Q 75 39.9375 72.65625 43.3125 
Q 70.3125 46.6875 64.890625 46.6875 
Q 58.890625 46.6875 55.734375 42.140625 
Q 52.59375 37.59375 52.59375 28.90625 
L 52.59375 5.171875 
L 60.40625 5.171875 
L 60.40625 0 
L 35.796875 0 
L 35.796875 5.171875 
L 43.609375 5.171875 
L 43.609375 32.328125 
Q 43.609375 40.09375 41.265625 43.390625 
Q 38.921875 46.6875 33.5 46.6875 
Q 27.484375 46.6875 24.328125 42.140625 
Q 21.1875 37.59375 21.1875 28.90625 
L 21.1875 5.171875 
L 29 5.171875 
L 29 0 
L 4.109375 0 
L 4.109375 5.171875 
L 12.203125 5.171875 
L 12.203125 46.78125 
L 3.609375 46.78125 
L 3.609375 51.90625 
L 21.1875 51.90625 
L 21.1875 42.671875 
Q 23.6875 47.859375 27.53125 50.59375 
Q 31.390625 53.328125 36.28125 53.328125 
Q 42.328125 53.328125 46.375 50.3125 
Q 50.4375 47.3125 51.8125 41.796875 
z
" id="DejaVuSerif-109"/>
      <path d="M 20.515625 28.515625 
L 20.515625 23.390625 
Q 20.515625 14.015625 24.09375 9.109375 
Q 27.6875 4.203125 34.515625 4.203125 
Q 41.40625 4.203125 44.9375 9.71875 
Q 48.484375 15.234375 48.484375 25.984375 
Q 48.484375 36.765625 44.9375 42.234375 
Q 41.40625 47.703125 34.515625 47.703125 
Q 27.6875 47.703125 24.09375 42.765625 
Q 20.515625 37.84375 20.515625 28.515625 
z
M 11.53125 46.6875 
L 2.875 46.6875 
L 2.875 51.90625 
L 20.515625 51.90625 
L 20.515625 43.796875 
Q 23.140625 48.6875 27.21875 51 
Q 31.296875 53.328125 37.3125 53.328125 
Q 46.875 53.328125 52.921875 45.75 
Q 58.984375 38.1875 58.984375 25.984375 
Q 58.984375 13.765625 52.921875 6.171875 
Q 46.875 -1.421875 37.3125 -1.421875 
Q 31.296875 -1.421875 27.21875 0.890625 
Q 23.140625 3.21875 20.515625 8.109375 
L 20.515625 -15.578125 
L 29 -15.578125 
L 29 -20.796875 
L 2.875 -20.796875 
L 2.875 -15.578125 
L 11.53125 -15.578125 
z
" id="DejaVuSerif-112"/>
      <path d="M 10.796875 46.6875 
L 2.875 46.6875 
L 2.875 51.90625 
L 10.796875 51.90625 
L 10.796875 68.015625 
L 19.828125 68.015625 
L 19.828125 51.90625 
L 36.71875 51.90625 
L 36.71875 46.6875 
L 19.828125 46.6875 
L 19.828125 13.71875 
Q 19.828125 7.125 21.09375 5.265625 
Q 22.359375 3.421875 25.78125 3.421875 
Q 29.296875 3.421875 30.90625 5.484375 
Q 32.515625 7.5625 32.625 12.203125 
L 39.40625 12.203125 
Q 39.015625 5.125 35.546875 1.84375 
Q 32.078125 -1.421875 25 -1.421875 
Q 17.234375 -1.421875 14.015625 2.015625 
Q 10.796875 5.46875 10.796875 13.71875 
z
" id="DejaVuSerif-116"/>
      <path d="M 31.890625 -15.578125 
Q 20.015625 -10.25 13.953125 1.296875 
Q 7.90625 12.84375 7.90625 30.171875 
Q 7.90625 47.5625 13.953125 59.109375 
Q 20.015625 70.65625 31.890625 75.984375 
L 31.890625 71.1875 
Q 24.359375 66.015625 21.09375 56.609375 
Q 17.828125 47.21875 17.828125 30.171875 
Q 17.828125 13.1875 21.09375 3.78125 
Q 24.359375 -5.609375 31.890625 -10.796875 
z
" id="DejaVuSerif-40"/>
      <path d="M -8.40625 -17.484375 
L -8.40625 -6 
L -2.828125 -6 
Q -2.6875 -10.84375 -0.53125 -13.203125 
Q 1.609375 -15.578125 5.90625 -15.578125 
Q 11.71875 -15.578125 14.015625 -11.90625 
Q 16.3125 -8.25 16.3125 2.390625 
L 16.3125 67.671875 
L 4.984375 67.671875 
L 4.984375 72.90625 
L 35.5 72.90625 
L 35.5 67.671875 
L 26.21875 67.671875 
L 26.21875 2 
Q 26.21875 -10.0625 21.375 -15.421875 
Q 16.546875 -20.796875 5.8125 -20.796875 
Q 2.34375 -20.796875 -1.234375 -19.96875 
Q -4.828125 -19.140625 -8.40625 -17.484375 
z
" id="DejaVuSerif-74"/>
      <path d="M 7.078125 -15.578125 
L 7.078125 -10.796875 
Q 14.59375 -5.609375 17.890625 3.78125 
Q 21.1875 13.1875 21.1875 30.171875 
Q 21.1875 47.21875 17.890625 56.609375 
Q 14.59375 66.015625 7.078125 71.1875 
L 7.078125 75.984375 
Q 19 70.65625 25.046875 59.109375 
Q 31.109375 47.5625 31.109375 30.171875 
Q 31.109375 12.84375 25.046875 1.296875 
Q 19 -10.25 7.078125 -15.578125 
z
" id="DejaVuSerif-41"/>
     </defs>
     <g transform="translate(21.690625 204.233125)rotate(-90)scale(0.1 -0.1)">
      <use xlink:href="#DejaVuSerif-69"/>
      <use x="72.998047" xlink:href="#DejaVuSerif-110"/>
      <use x="137.402344" xlink:href="#DejaVuSerif-101"/>
      <use x="196.582031" xlink:href="#DejaVuSerif-114"/>
      <use x="244.384766" xlink:href="#DejaVuSerif-103"/>
      <use x="308.398438" xlink:href="#DejaVuSerif-121"/>
      <use x="364.892578" xlink:href="#DejaVuSerif-32"/>
      <use x="396.679688" xlink:href="#DejaVuSerif-67"/>
      <use x="473.193359" xlink:href="#DejaVuSerif-111"/>
      <use x="533.398438" xlink:href="#DejaVuSerif-110"/>
      <use x="597.802734" xlink:href="#DejaVuSerif-115"/>
      <use x="649.121094" xlink:href="#DejaVuSerif-117"/>
      <use x="713.525391" xlink:href="#DejaVuSerif-109"/>
      <use x="808.349609" xlink:href="#DejaVuSerif-112"/>
      <use x="872.363281" xlink:href="#DejaVuSerif-116"/>
      <use x="912.548828" xlink:href="#DejaVuSerif-105"/>
      <use x="944.53125" xlink:href="#DejaVuSerif-111"/>
      <use x="1004.736328" xlink:href="#DejaVuSerif-110"/>
      <use x="1069.140625" xlink:href="#DejaVuSerif-32"/>
      <use x="1100.927734" xlink:href="#DejaVuSerif-40"/>
      <use x="1139.941406" xlink:href="#DejaVuSerif-74"/>
      <use x="1180.029297" xlink:href="#DejaVuSerif-41"/>
     </g>
    </g>
   </g>
   <g id="line2d_8">
    <path clip-path="url(#p7fa309b58c)" d="M 125.145 117.328853 
L 150.255 117.328853 
L 150.255 83.62732 
L 125.145 83.62732 
L 125.145 117.328853 
" style="fill:none;stroke:#000000;stroke-linecap:square;stroke-width:0.5;"/>
   </g>
   <g id="line2d_9">
    <path clip-path="url(#p7fa309b58c)" d="M 137.7 117.328853 
L 137.7 156.159497 
" style="fill:none;stroke:#000000;stroke-linecap:square;stroke-width:0.5;"/>
   </g>
   <g id="line2d_10">
    <path clip-path="url(#p7fa309b58c)" d="M 137.7 83.62732 
L 137.7 44.443636 
" style="fill:none;stroke:#000000;stroke-linecap:square;stroke-width:0.5;"/>
   </g>
   <g id="line2d_11">
    <path clip-path="url(#p7fa309b58c)" d="M 131.4225 156.159497 
L 143.9775 156.159497 
" style="fill:none;stroke:#000000;stroke-linecap:square;"/>
   </g>
   <g id="line2d_12">
    <path clip-path="url(#p7fa309b58c)" d="M 131.4225 44.443636 
L 143.9775 44.443636 
" style="fill:none;stroke:#000000;stroke-linecap:square;"/>
   </g>
   <g id="line2d_13"/>
   <g id="line2d_14">
    <path clip-path="url(#p7fa309b58c)" d="M 292.545 208.612083 
L 317.655 208.612083 
L 317.655 185.533814 
L 292.545 185.533814 
L 292.545 208.612083 
" style="fill:none;stroke:#000000;stroke-linecap:square;stroke-width:0.5;"/>
   </g>
   <g id="line2d_15">
    <path clip-path="url(#p7fa309b58c)" d="M 305.1 208.612083 
L 305.1 242.116364 
" style="fill:none;stroke:#000000;stroke-linecap:square;stroke-width:0.5;"/>
   </g>
   <g id="line2d_16">
    <path clip-path="url(#p7fa309b58c)" d="M 305.1 185.533814 
L 305.1 164.684029 
" style="fill:none;stroke:#000000;stroke-linecap:square;stroke-width:0.5;"/>
   </g>
   <g id="line2d_17">
    <path clip-path="url(#p7fa309b58c)" d="M 298.8225 242.116364 
L 311.3775 242.116364 
" style="fill:none;stroke:#000000;stroke-linecap:square;"/>
   </g>
   <g id="line2d_18">
    <path clip-path="url(#p7fa309b58c)" d="M 298.8225 164.684029 
L 311.3775 164.684029 
" style="fill:none;stroke:#000000;stroke-linecap:square;"/>
   </g>
   <g id="line2d_19">
    <defs>
     <path d="M 0 3 
C 0.795609 3 1.55874 2.683901 2.12132 2.12132 
C 2.683901 1.55874 3 0.795609 3 0 
C 3 -0.795609 2.683901 -1.55874 2.12132 -2.12132 
C 1.55874 -2.683901 0.795609 -3 0 -3 
C -0.795609 -3 -1.55874 -2.683901 -2.12132 -2.12132 
C -2.683901 -1.55874 -3 -0.795609 -3 0 
C -3 0.795609 -2.683901 1.55874 -2.12132 2.12132 
C -1.55874 2.683901 -0.795609 3 0 3 
z
" id="m788552e92d" style="stroke:#000000;"/>
    </defs>
    <g clip-path="url(#p7fa309b58c)">
     <use style="fill-opacity:0;stroke:#000000;" x="305.1" xlink:href="#m788552e92d" y="146.572165"/>
    </g>
   </g>
   <g id="line2d_20">
    <path clip-path="url(#p7fa309b58c)" d="M 125.145 101.397766 
L 150.255 101.397766 
" style="fill:none;stroke:#000000;stroke-linecap:square;"/>
   </g>
   <g id="line2d_21">
    <path clip-path="url(#p7fa309b58c)" d="M 292.545 198.266204 
L 317.655 198.266204 
" style="fill:none;stroke:#000000;stroke-linecap:square;"/>
   </g>
   <g id="patch_3">
    <path d="M 54 252 
L 54 34.56 
" style="fill:none;stroke:#000000;stroke-linecap:square;stroke-linejoin:miter;stroke-width:0.8;"/>
   </g>
   <g id="patch_4">
    <path d="M 54 252 
L 388.8 252 
" style="fill:none;stroke:#000000;stroke-linecap:square;stroke-linejoin:miter;stroke-width:0.8;"/>
   </g>
  </g>
 </g>
 <defs>
  <clipPath id="p7fa309b58c">
   <rect height="217.44" width="334.8" x="54" y="34.56"/>
  </clipPath>
 </defs>
</svg>
