<?xml version="1.0" encoding="utf-8" standalone="no"?>
<!DOCTYPE svg PUBLIC "-//W3C//DTD SVG 1.1//EN"
  "http://www.w3.org/Graphics/SVG/1.1/DTD/svg11.dtd">
<!-- Created with matplotlib (https://matplotlib.org/) -->
<svg height="288pt" version="1.1" viewBox="0 0 432 288" width="432pt" xmlns="http://www.w3.org/2000/svg" xmlns:xlink="http://www.w3.org/1999/xlink">
 <defs>
  <style type="text/css">
*{stroke-linecap:butt;stroke-linejoin:round;}
  </style>
 </defs>
 <g id="figure_1">
  <g id="patch_1">
   <path d="M 0 288 
L 432 288 
L 432 0 
L 0 0 
z
" style="fill:#ffffff;"/>
  </g>
  <g id="axes_1">
   <g id="patch_2">
    <path d="M 54 252 
L 388.8 252 
L 388.8 34.56 
L 54 34.56 
z
" style="fill:#ffffff;"/>
   </g>
   <g id="PolyCollection_1">
    <defs>
     <path d="M 157.523233 -149.568705 
L 117.876767 -149.568705 
L 117.063101 -150.518075 
L 116.296884 -151.467446 
L 115.584616 -152.416816 
L 114.932176 -153.366186 
L 114.344697 -154.315556 
L 113.826457 -155.264927 
L 113.380786 -156.214297 
L 113.00999 -157.163667 
L 112.715296 -158.113038 
L 112.496816 -159.062408 
L 112.353535 -160.011778 
L 112.283321 -160.961148 
L 112.282961 -161.910519 
L 112.348208 -162.859889 
L 112.473854 -163.809259 
L 112.653825 -164.75863 
L 112.881277 -165.708 
L 113.14872 -166.65737 
L 113.448134 -167.60674 
L 113.771108 -168.556111 
L 114.108967 -169.505481 
L 114.452911 -170.454851 
L 114.794142 -171.404222 
L 115.123987 -172.353592 
L 115.434024 -173.302962 
L 115.716185 -174.252333 
L 115.962857 -175.201703 
L 116.166971 -176.151073 
L 116.32208 -177.100443 
L 116.422421 -178.049814 
L 116.462974 -178.999184 
L 116.439501 -179.948554 
L 116.348582 -180.897925 
L 116.187639 -181.847295 
L 115.954948 -182.796665 
L 115.649647 -183.746035 
L 115.271737 -184.695406 
L 114.822075 -185.644776 
L 114.302356 -186.594146 
L 113.715102 -187.543517 
L 113.06363 -188.492887 
L 112.352024 -189.442257 
L 111.585102 -190.391627 
L 110.768372 -191.340998 
L 109.907989 -192.290368 
L 109.010697 -193.239738 
L 108.083779 -194.189109 
L 107.134986 -195.138479 
L 106.172476 -196.087849 
L 105.204735 -197.037219 
L 104.240499 -197.98659 
L 103.288675 -198.93596 
L 102.358248 -199.88533 
L 101.458199 -200.834701 
L 100.597407 -201.784071 
L 99.784561 -202.733441 
L 99.028065 -203.682811 
L 98.335948 -204.632182 
L 97.715773 -205.581552 
L 97.174556 -206.530922 
L 96.718676 -207.480293 
L 96.353808 -208.429663 
L 96.084848 -209.379033 
L 95.915856 -210.328404 
L 95.85 -211.277774 
L 95.889514 -212.227144 
L 96.03567 -213.176514 
L 96.28875 -214.125885 
L 96.648047 -215.075255 
L 97.111859 -216.024625 
L 97.677517 -216.973996 
L 98.341407 -217.923366 
L 99.099021 -218.872736 
L 99.945008 -219.822106 
L 100.873251 -220.771477 
L 101.876941 -221.720847 
L 102.948676 -222.670217 
L 104.080558 -223.619588 
L 105.264304 -224.568958 
L 106.49136 -225.518328 
L 107.753021 -226.467698 
L 109.040546 -227.417069 
L 110.34528 -228.366439 
L 111.658768 -229.315809 
L 112.972859 -230.26518 
L 114.279809 -231.21455 
L 115.572369 -232.16392 
L 116.843859 -233.11329 
L 118.088234 -234.062661 
L 119.300132 -235.012031 
L 120.474901 -235.961401 
L 121.608623 -236.910772 
L 122.69811 -237.860142 
L 123.740895 -238.809512 
L 124.735201 -239.758882 
L 125.679908 -240.708253 
L 126.574502 -241.657623 
L 127.41902 -242.606993 
L 128.213987 -243.556364 
L 147.186013 -243.556364 
L 147.186013 -243.556364 
L 147.98098 -242.606993 
L 148.825498 -241.657623 
L 149.720092 -240.708253 
L 150.664799 -239.758882 
L 151.659105 -238.809512 
L 152.70189 -237.860142 
L 153.791377 -236.910772 
L 154.925099 -235.961401 
L 156.099868 -235.012031 
L 157.311766 -234.062661 
L 158.556141 -233.11329 
L 159.827631 -232.16392 
L 161.120191 -231.21455 
L 162.427141 -230.26518 
L 163.741232 -229.315809 
L 165.05472 -228.366439 
L 166.359454 -227.417069 
L 167.646979 -226.467698 
L 168.90864 -225.518328 
L 170.135696 -224.568958 
L 171.319442 -223.619588 
L 172.451324 -222.670217 
L 173.523059 -221.720847 
L 174.526749 -220.771477 
L 175.454992 -219.822106 
L 176.300979 -218.872736 
L 177.058593 -217.923366 
L 177.722483 -216.973996 
L 178.288141 -216.024625 
L 178.751953 -215.075255 
L 179.11125 -214.125885 
L 179.36433 -213.176514 
L 179.510486 -212.227144 
L 179.55 -211.277774 
L 179.484144 -210.328404 
L 179.315152 -209.379033 
L 179.046192 -208.429663 
L 178.681324 -207.480293 
L 178.225444 -206.530922 
L 177.684227 -205.581552 
L 177.064052 -204.632182 
L 176.371935 -203.682811 
L 175.615439 -202.733441 
L 174.802593 -201.784071 
L 173.941801 -200.834701 
L 173.041752 -199.88533 
L 172.111325 -198.93596 
L 171.159501 -197.98659 
L 170.195265 -197.037219 
L 169.227524 -196.087849 
L 168.265014 -195.138479 
L 167.316221 -194.189109 
L 166.389303 -193.239738 
L 165.492011 -192.290368 
L 164.631628 -191.340998 
L 163.814898 -190.391627 
L 163.047976 -189.442257 
L 162.33637 -188.492887 
L 161.684898 -187.543517 
L 161.097644 -186.594146 
L 160.577925 -185.644776 
L 160.128263 -184.695406 
L 159.750353 -183.746035 
L 159.445052 -182.796665 
L 159.212361 -181.847295 
L 159.051418 -180.897925 
L 158.960499 -179.948554 
L 158.937026 -178.999184 
L 158.977579 -178.049814 
L 159.07792 -177.100443 
L 159.233029 -176.151073 
L 159.437143 -175.201703 
L 159.683815 -174.252333 
L 159.965976 -173.302962 
L 160.276013 -172.353592 
L 160.605858 -171.404222 
L 160.947089 -170.454851 
L 161.291033 -169.505481 
L 161.628892 -168.556111 
L 161.951866 -167.60674 
L 162.25128 -166.65737 
L 162.518723 -165.708 
L 162.746175 -164.75863 
L 162.926146 -163.809259 
L 163.051792 -162.859889 
L 163.117039 -161.910519 
L 163.116679 -160.961148 
L 163.046465 -160.011778 
L 162.903184 -159.062408 
L 162.684704 -158.113038 
L 162.39001 -157.163667 
L 162.019214 -156.214297 
L 161.573543 -155.264927 
L 161.055303 -154.315556 
L 160.467824 -153.366186 
L 159.815384 -152.416816 
L 159.103116 -151.467446 
L 158.336899 -150.518075 
L 157.523233 -149.568705 
z
" id="m548837b443" style="stroke:#ff0000;stroke-width:0.6;"/>
    </defs>
    <g clip-path="url(#pd9380cd1ef)">
     <use style="fill:#ffffff;stroke:#ff0000;stroke-width:0.6;" x="0" xlink:href="#m548837b443" y="288"/>
    </g>
   </g>
   <g id="PolyCollection_2">
    <defs>
     <path d="M 308.586938 -45.883636 
L 301.613062 -45.883636 
L 301.603221 -47.243444 
L 301.620118 -48.603252 
L 301.663368 -49.96306 
L 301.731986 -51.322867 
L 301.82443 -52.682675 
L 301.938653 -54.042483 
L 302.072182 -55.40229 
L 302.222206 -56.762098 
L 302.385676 -58.121906 
L 302.559401 -59.481714 
L 302.740158 -60.841521 
L 302.924786 -62.201329 
L 303.110271 -63.561137 
L 303.293831 -64.920945 
L 303.472967 -66.280752 
L 303.645517 -67.64056 
L 303.809682 -69.000368 
L 303.96404 -70.360175 
L 304.107541 -71.719983 
L 304.239497 -73.079791 
L 304.359549 -74.439599 
L 304.467637 -75.799406 
L 304.563952 -77.159214 
L 304.648899 -78.519022 
L 304.72304 -79.87883 
L 304.787056 -81.238637 
L 304.841697 -82.598445 
L 304.887741 -83.958253 
L 304.925956 -85.31806 
L 304.957068 -86.677868 
L 304.981729 -88.037676 
L 305.000487 -89.397484 
L 305.01377 -90.757291 
L 305.021858 -92.117099 
L 305.024867 -93.476907 
L 305.022727 -94.836715 
L 305.015163 -96.196522 
L 305.001678 -97.55633 
L 304.981529 -98.916138 
L 304.953705 -100.275945 
L 304.916903 -101.635753 
L 304.869506 -102.995561 
L 304.809555 -104.355369 
L 304.734727 -105.715176 
L 304.642309 -107.074984 
L 304.529184 -108.434792 
L 304.391813 -109.7946 
L 304.226229 -111.154407 
L 304.028039 -112.514215 
L 303.792434 -113.874023 
L 303.514219 -115.23383 
L 303.187855 -116.593638 
L 302.807513 -117.953446 
L 302.36716 -119.313254 
L 301.860651 -120.673061 
L 301.281855 -122.032869 
L 300.624793 -123.392677 
L 299.883799 -124.752485 
L 299.053707 -126.112292 
L 298.130041 -127.4721 
L 297.109229 -128.831908 
L 295.988818 -130.191715 
L 294.767698 -131.551523 
L 293.446312 -132.911331 
L 292.02686 -134.271139 
L 290.513477 -135.630946 
L 288.91239 -136.990754 
L 287.232023 -138.350562 
L 285.483064 -139.71037 
L 283.678473 -141.070177 
L 281.833427 -142.429985 
L 279.965197 -143.789793 
L 278.092959 -145.1496 
L 276.237524 -146.509408 
L 274.421008 -147.869216 
L 272.666434 -149.229024 
L 270.997277 -150.588831 
L 269.436966 -151.948639 
L 268.008353 -153.308447 
L 266.733171 -154.668255 
L 265.63149 -156.028062 
L 264.721194 -157.38787 
L 264.017505 -158.747678 
L 263.532559 -160.107485 
L 263.275055 -161.467293 
L 263.25 -162.827101 
L 263.458546 -164.186909 
L 263.89794 -165.546716 
L 264.561574 -166.906524 
L 265.439154 -168.266332 
L 266.516967 -169.62614 
L 267.778232 -170.985947 
L 269.203546 -172.345755 
L 270.771379 -173.705563 
L 272.458624 -175.06537 
L 274.241162 -176.425178 
L 276.094443 -177.784986 
L 277.994044 -179.144794 
L 279.9162 -180.504601 
L 330.2838 -180.504601 
L 330.2838 -180.504601 
L 332.205956 -179.144794 
L 334.105557 -177.784986 
L 335.958838 -176.425178 
L 337.741376 -175.06537 
L 339.428621 -173.705563 
L 340.996454 -172.345755 
L 342.421768 -170.985947 
L 343.683033 -169.62614 
L 344.760846 -168.266332 
L 345.638426 -166.906524 
L 346.30206 -165.546716 
L 346.741454 -164.186909 
L 346.95 -162.827101 
L 346.924945 -161.467293 
L 346.667441 -160.107485 
L 346.182495 -158.747678 
L 345.478806 -157.38787 
L 344.56851 -156.028062 
L 343.466829 -154.668255 
L 342.191647 -153.308447 
L 340.763034 -151.948639 
L 339.202723 -150.588831 
L 337.533566 -149.229024 
L 335.778992 -147.869216 
L 333.962476 -146.509408 
L 332.107041 -145.1496 
L 330.234803 -143.789793 
L 328.366573 -142.429985 
L 326.521527 -141.070177 
L 324.716936 -139.71037 
L 322.967977 -138.350562 
L 321.28761 -136.990754 
L 319.686523 -135.630946 
L 318.17314 -134.271139 
L 316.753688 -132.911331 
L 315.432302 -131.551523 
L 314.211182 -130.191715 
L 313.090771 -128.831908 
L 312.069959 -127.4721 
L 311.146293 -126.112292 
L 310.316201 -124.752485 
L 309.575207 -123.392677 
L 308.918145 -122.032869 
L 308.339349 -120.673061 
L 307.83284 -119.313254 
L 307.392487 -117.953446 
L 307.012145 -116.593638 
L 306.685781 -115.23383 
L 306.407566 -113.874023 
L 306.171961 -112.514215 
L 305.973771 -111.154407 
L 305.808187 -109.7946 
L 305.670816 -108.434792 
L 305.557691 -107.074984 
L 305.465273 -105.715176 
L 305.390445 -104.355369 
L 305.330494 -102.995561 
L 305.283097 -101.635753 
L 305.246295 -100.275945 
L 305.218471 -98.916138 
L 305.198322 -97.55633 
L 305.184837 -96.196522 
L 305.177273 -94.836715 
L 305.175133 -93.476907 
L 305.178142 -92.117099 
L 305.18623 -90.757291 
L 305.199513 -89.397484 
L 305.218271 -88.037676 
L 305.242932 -86.677868 
L 305.274044 -85.31806 
L 305.312259 -83.958253 
L 305.358303 -82.598445 
L 305.412944 -81.238637 
L 305.47696 -79.87883 
L 305.551101 -78.519022 
L 305.636048 -77.159214 
L 305.732363 -75.799406 
L 305.840451 -74.439599 
L 305.960503 -73.079791 
L 306.092459 -71.719983 
L 306.23596 -70.360175 
L 306.390318 -69.000368 
L 306.554483 -67.64056 
L 306.727033 -66.280752 
L 306.906169 -64.920945 
L 307.089729 -63.561137 
L 307.275214 -62.201329 
L 307.459842 -60.841521 
L 307.640599 -59.481714 
L 307.814324 -58.121906 
L 307.977794 -56.762098 
L 308.127818 -55.40229 
L 308.261347 -54.042483 
L 308.37557 -52.682675 
L 308.468014 -51.322867 
L 308.536632 -49.96306 
L 308.579882 -48.603252 
L 308.596779 -47.243444 
L 308.586938 -45.883636 
z
" id="m644ba06ba2" style="stroke:#000000;stroke-width:0.6;"/>
    </defs>
    <g clip-path="url(#pd9380cd1ef)">
     <use style="fill:#ffffff;stroke:#000000;stroke-width:0.6;" x="0" xlink:href="#m644ba06ba2" y="288"/>
    </g>
   </g>
   <g id="matplotlib.axis_1">
    <g id="xtick_1">
     <g id="line2d_1">
      <defs>
       <path d="M 0 0 
L 0 3.5 
" id="m3cf2b2fa51" style="stroke:#000000;stroke-width:0.8;"/>
      </defs>
      <g>
       <use style="stroke:#000000;stroke-width:0.8;" x="137.7" xlink:href="#m3cf2b2fa51" y="252"/>
      </g>
     </g>
     <g id="text_1">
      <!-- Version A -->
      <defs>
       <path d="M 17.484375 67.671875 
L 39.015625 11.71875 
L 60.5 67.671875 
L 52.296875 67.671875 
L 52.296875 72.90625 
L 73.6875 72.90625 
L 73.6875 67.671875 
L 66.609375 67.671875 
L 40.578125 0 
L 32.171875 0 
L 6.296875 67.671875 
L -0.984375 67.671875 
L -0.984375 72.90625 
L 25.59375 72.90625 
L 25.59375 67.671875 
z
" id="DejaVuSerif-86"/>
       <path d="M 54.203125 25 
L 15.484375 25 
L 15.484375 24.609375 
Q 15.484375 14.109375 19.4375 8.765625 
Q 23.390625 3.421875 31.109375 3.421875 
Q 37.015625 3.421875 40.796875 6.515625 
Q 44.578125 9.625 46.09375 15.71875 
L 53.328125 15.71875 
Q 51.171875 7.171875 45.375 2.875 
Q 39.59375 -1.421875 30.171875 -1.421875 
Q 18.796875 -1.421875 11.890625 6.078125 
Q 4.984375 13.578125 4.984375 25.984375 
Q 4.984375 38.28125 11.765625 45.796875 
Q 18.5625 53.328125 29.59375 53.328125 
Q 41.359375 53.328125 47.65625 46.0625 
Q 53.953125 38.8125 54.203125 25 
z
M 43.609375 30.171875 
Q 43.3125 39.265625 39.765625 43.875 
Q 36.234375 48.484375 29.59375 48.484375 
Q 23.390625 48.484375 19.828125 43.84375 
Q 16.265625 39.203125 15.484375 30.171875 
z
" id="DejaVuSerif-101"/>
       <path d="M 47.796875 52 
L 47.796875 39.015625 
L 42.625 39.015625 
Q 42.390625 42.875 40.484375 44.78125 
Q 38.578125 46.6875 34.90625 46.6875 
Q 28.265625 46.6875 24.71875 42.09375 
Q 21.1875 37.5 21.1875 28.90625 
L 21.1875 5.171875 
L 31.59375 5.171875 
L 31.59375 0 
L 4.109375 0 
L 4.109375 5.171875 
L 12.203125 5.171875 
L 12.203125 46.78125 
L 3.609375 46.78125 
L 3.609375 51.90625 
L 21.1875 51.90625 
L 21.1875 42.671875 
Q 23.828125 48.09375 27.96875 50.703125 
Q 32.125 53.328125 38.09375 53.328125 
Q 40.28125 53.328125 42.703125 52.984375 
Q 45.125 52.640625 47.796875 52 
z
" id="DejaVuSerif-114"/>
       <path d="M 5.609375 2.875 
L 5.609375 14.984375 
L 10.796875 14.984375 
Q 10.984375 9.1875 14.421875 6.296875 
Q 17.875 3.421875 24.609375 3.421875 
Q 30.671875 3.421875 33.84375 5.6875 
Q 37.015625 7.953125 37.015625 12.3125 
Q 37.015625 15.71875 34.6875 17.8125 
Q 32.375 19.921875 24.90625 22.3125 
L 18.40625 24.515625 
Q 11.71875 26.65625 8.71875 29.875 
Q 5.71875 33.109375 5.71875 38.09375 
Q 5.71875 45.21875 10.9375 49.265625 
Q 16.15625 53.328125 25.390625 53.328125 
Q 29.5 53.328125 34.03125 52.25 
Q 38.578125 51.171875 43.40625 49.125 
L 43.40625 37.796875 
L 38.234375 37.796875 
Q 38.03125 42.828125 34.703125 45.65625 
Q 31.390625 48.484375 25.6875 48.484375 
Q 20.015625 48.484375 17.109375 46.484375 
Q 14.203125 44.484375 14.203125 40.484375 
Q 14.203125 37.203125 16.40625 35.21875 
Q 18.609375 33.25 25.203125 31.203125 
L 32.328125 29 
Q 39.703125 26.703125 42.9375 23.265625 
Q 46.1875 19.828125 46.1875 14.40625 
Q 46.1875 7.03125 40.546875 2.796875 
Q 34.90625 -1.421875 25 -1.421875 
Q 19.96875 -1.421875 15.1875 -0.34375 
Q 10.40625 0.734375 5.609375 2.875 
z
" id="DejaVuSerif-115"/>
       <path d="M 9.71875 68.015625 
Q 9.71875 70.265625 11.34375 71.921875 
Q 12.984375 73.578125 15.28125 73.578125 
Q 17.53125 73.578125 19.15625 71.921875 
Q 20.796875 70.265625 20.796875 68.015625 
Q 20.796875 65.71875 19.1875 64.109375 
Q 17.578125 62.5 15.28125 62.5 
Q 12.984375 62.5 11.34375 64.109375 
Q 9.71875 65.71875 9.71875 68.015625 
z
M 21.1875 5.171875 
L 29.6875 5.171875 
L 29.6875 0 
L 3.609375 0 
L 3.609375 5.171875 
L 12.203125 5.171875 
L 12.203125 46.6875 
L 3.609375 46.6875 
L 3.609375 51.90625 
L 21.1875 51.90625 
z
" id="DejaVuSerif-105"/>
       <path d="M 30.078125 3.421875 
Q 37.3125 3.421875 40.984375 9.125 
Q 44.671875 14.84375 44.671875 25.984375 
Q 44.671875 37.109375 40.984375 42.796875 
Q 37.3125 48.484375 30.078125 48.484375 
Q 22.859375 48.484375 19.171875 42.796875 
Q 15.484375 37.109375 15.484375 25.984375 
Q 15.484375 14.84375 19.1875 9.125 
Q 22.90625 3.421875 30.078125 3.421875 
z
M 30.078125 -1.421875 
Q 18.75 -1.421875 11.859375 6.078125 
Q 4.984375 13.578125 4.984375 25.984375 
Q 4.984375 38.375 11.84375 45.84375 
Q 18.703125 53.328125 30.078125 53.328125 
Q 41.453125 53.328125 48.3125 45.84375 
Q 55.171875 38.375 55.171875 25.984375 
Q 55.171875 13.578125 48.3125 6.078125 
Q 41.453125 -1.421875 30.078125 -1.421875 
z
" id="DejaVuSerif-111"/>
       <path d="M 4.109375 0 
L 4.109375 5.171875 
L 12.203125 5.171875 
L 12.203125 46.6875 
L 3.609375 46.6875 
L 3.609375 51.90625 
L 21.1875 51.90625 
L 21.1875 42.671875 
Q 23.6875 47.953125 27.65625 50.640625 
Q 31.640625 53.328125 36.921875 53.328125 
Q 45.515625 53.328125 49.5625 48.390625 
Q 53.609375 43.453125 53.609375 33.015625 
L 53.609375 5.171875 
L 61.625 5.171875 
L 61.625 0 
L 36.8125 0 
L 36.8125 5.171875 
L 44.578125 5.171875 
L 44.578125 30.171875 
Q 44.578125 39.703125 42.234375 43.234375 
Q 39.890625 46.78125 33.984375 46.78125 
Q 27.734375 46.78125 24.453125 42.203125 
Q 21.1875 37.640625 21.1875 28.90625 
L 21.1875 5.171875 
L 29 5.171875 
L 29 0 
z
" id="DejaVuSerif-110"/>
       <path id="DejaVuSerif-32"/>
       <path d="M 20.015625 26.421875 
L 46.78125 26.421875 
L 33.40625 61.078125 
z
M -0.59375 0 
L -0.59375 5.171875 
L 5.8125 5.171875 
L 31.78125 72.90625 
L 39.984375 72.90625 
L 66.015625 5.171875 
L 73.1875 5.171875 
L 73.1875 0 
L 46.6875 0 
L 46.6875 5.171875 
L 54.78125 5.171875 
L 48.6875 21.1875 
L 18.015625 21.1875 
L 11.921875 5.171875 
L 19.921875 5.171875 
L 19.921875 0 
z
" id="DejaVuSerif-65"/>
      </defs>
      <g transform="translate(113.600781 266.598437)scale(0.1 -0.1)">
       <use xlink:href="#DejaVuSerif-86"/>
       <use x="63.091797" xlink:href="#DejaVuSerif-101"/>
       <use x="122.271484" xlink:href="#DejaVuSerif-114"/>
       <use x="170.074219" xlink:href="#DejaVuSerif-115"/>
       <use x="221.392578" xlink:href="#DejaVuSerif-105"/>
       <use x="253.375" xlink:href="#DejaVuSerif-111"/>
       <use x="313.580078" xlink:href="#DejaVuSerif-110"/>
       <use x="377.984375" xlink:href="#DejaVuSerif-32"/>
       <use x="409.771484" xlink:href="#DejaVuSerif-65"/>
      </g>
     </g>
    </g>
    <g id="xtick_2">
     <g id="line2d_2">
      <g>
       <use style="stroke:#000000;stroke-width:0.8;" x="305.1" xlink:href="#m3cf2b2fa51" y="252"/>
      </g>
     </g>
     <g id="text_2">
      <!-- Version B -->
      <defs>
       <path d="M 24.703125 5.171875 
L 39.3125 5.171875 
Q 48.09375 5.171875 52.140625 8.984375 
Q 56.203125 12.796875 56.203125 21.09375 
Q 56.203125 29.34375 52.171875 33.125 
Q 48.140625 36.921875 39.3125 36.921875 
L 24.703125 36.921875 
z
M 24.703125 42.09375 
L 37.109375 42.09375 
Q 45.125 42.09375 48.796875 45.171875 
Q 52.484375 48.25 52.484375 54.890625 
Q 52.484375 61.578125 48.796875 64.625 
Q 45.125 67.671875 37.109375 67.671875 
L 24.703125 67.671875 
z
M 5.515625 0 
L 5.515625 5.171875 
L 14.796875 5.171875 
L 14.796875 67.671875 
L 5.515625 67.671875 
L 5.515625 72.90625 
L 41.5 72.90625 
Q 52.546875 72.90625 58.125 68.390625 
Q 63.71875 63.875 63.71875 54.890625 
Q 63.71875 48.390625 59.828125 44.53125 
Q 55.953125 40.671875 48.484375 39.796875 
Q 57.765625 38.625 62.578125 33.859375 
Q 67.390625 29.109375 67.390625 21.09375 
Q 67.390625 10.25 60.546875 5.125 
Q 53.71875 0 39.203125 0 
z
" id="DejaVuSerif-66"/>
      </defs>
      <g transform="translate(280.9375 266.598437)scale(0.1 -0.1)">
       <use xlink:href="#DejaVuSerif-86"/>
       <use x="63.091797" xlink:href="#DejaVuSerif-101"/>
       <use x="122.271484" xlink:href="#DejaVuSerif-114"/>
       <use x="170.074219" xlink:href="#DejaVuSerif-115"/>
       <use x="221.392578" xlink:href="#DejaVuSerif-105"/>
       <use x="253.375" xlink:href="#DejaVuSerif-111"/>
       <use x="313.580078" xlink:href="#DejaVuSerif-110"/>
       <use x="377.984375" xlink:href="#DejaVuSerif-32"/>
       <use x="409.771484" xlink:href="#DejaVuSerif-66"/>
      </g>
     </g>
    </g>
   </g>
   <g id="matplotlib.axis_2">
    <g id="ytick_1">
     <g id="line2d_3">
      <defs>
       <path d="M 0 0 
L -3.5 0 
" id="m3cff8582eb" style="stroke:#000000;stroke-width:0.8;"/>
      </defs>
      <g>
       <use style="stroke:#000000;stroke-width:0.8;" x="54" xlink:href="#m3cff8582eb" y="218.515043"/>
      </g>
     </g>
     <g id="text_3">
      <!-- 40 -->
      <defs>
       <path d="M 34.90625 24.703125 
L 34.90625 63.484375 
L 10.015625 24.703125 
z
M 56.390625 0 
L 23.1875 0 
L 23.1875 5.171875 
L 34.90625 5.171875 
L 34.90625 19.484375 
L 3.078125 19.484375 
L 3.078125 24.8125 
L 35.015625 74.21875 
L 44.671875 74.21875 
L 44.671875 24.703125 
L 58.59375 24.703125 
L 58.59375 19.484375 
L 44.671875 19.484375 
L 44.671875 5.171875 
L 56.390625 5.171875 
z
" id="DejaVuSerif-52"/>
       <path d="M 31.78125 3.421875 
Q 39.265625 3.421875 42.96875 11.625 
Q 46.6875 19.828125 46.6875 36.375 
Q 46.6875 52.984375 42.96875 61.1875 
Q 39.265625 69.390625 31.78125 69.390625 
Q 24.3125 69.390625 20.59375 61.1875 
Q 16.890625 52.984375 16.890625 36.375 
Q 16.890625 19.828125 20.59375 11.625 
Q 24.3125 3.421875 31.78125 3.421875 
z
M 31.78125 -1.421875 
Q 19.921875 -1.421875 13.25 8.53125 
Q 6.59375 18.5 6.59375 36.375 
Q 6.59375 54.296875 13.25 64.25 
Q 19.921875 74.21875 31.78125 74.21875 
Q 43.703125 74.21875 50.34375 64.25 
Q 56.984375 54.296875 56.984375 36.375 
Q 56.984375 18.5 50.34375 8.53125 
Q 43.703125 -1.421875 31.78125 -1.421875 
z
" id="DejaVuSerif-48"/>
      </defs>
      <g transform="translate(34.275 222.314261)scale(0.1 -0.1)">
       <use xlink:href="#DejaVuSerif-52"/>
       <use x="63.623047" xlink:href="#DejaVuSerif-48"/>
      </g>
     </g>
    </g>
    <g id="ytick_2">
     <g id="line2d_4">
      <g>
       <use style="stroke:#000000;stroke-width:0.8;" x="54" xlink:href="#m3cff8582eb" y="171.312401"/>
      </g>
     </g>
     <g id="text_4">
      <!-- 60 -->
      <defs>
       <path d="M 32.71875 3.421875 
Q 39.59375 3.421875 43.296875 8.46875 
Q 47.015625 13.53125 47.015625 23 
Q 47.015625 32.46875 43.296875 37.515625 
Q 39.59375 42.578125 32.71875 42.578125 
Q 25.734375 42.578125 22.0625 37.6875 
Q 18.40625 32.8125 18.40625 23.578125 
Q 18.40625 13.875 22.109375 8.640625 
Q 25.828125 3.421875 32.71875 3.421875 
z
M 16.796875 40.140625 
Q 20.125 43.796875 24.3125 45.59375 
Q 28.515625 47.40625 33.796875 47.40625 
Q 44.671875 47.40625 51 40.859375 
Q 57.328125 34.328125 57.328125 23 
Q 57.328125 11.921875 50.515625 5.25 
Q 43.703125 -1.421875 32.328125 -1.421875 
Q 19.96875 -1.421875 13.328125 7.78125 
Q 6.6875 17 6.6875 34.078125 
Q 6.6875 53.21875 14.546875 63.71875 
Q 22.40625 74.21875 36.71875 74.21875 
Q 40.578125 74.21875 44.828125 73.484375 
Q 49.078125 72.75 53.515625 71.296875 
L 53.515625 59.28125 
L 48 59.28125 
Q 47.40625 64.203125 44.234375 66.796875 
Q 41.0625 69.390625 35.6875 69.390625 
Q 26.21875 69.390625 21.578125 62.203125 
Q 16.9375 55.03125 16.796875 40.140625 
z
" id="DejaVuSerif-54"/>
      </defs>
      <g transform="translate(34.275 175.111619)scale(0.1 -0.1)">
       <use xlink:href="#DejaVuSerif-54"/>
       <use x="63.623047" xlink:href="#DejaVuSerif-48"/>
      </g>
     </g>
    </g>
    <g id="ytick_3">
     <g id="line2d_5">
      <g>
       <use style="stroke:#000000;stroke-width:0.8;" x="54" xlink:href="#m3cff8582eb" y="124.109759"/>
      </g>
     </g>
     <g id="text_5">
      <!-- 80 -->
      <defs>
       <path d="M 46.578125 19.921875 
Q 46.578125 27.734375 42.6875 32.046875 
Q 38.8125 36.375 31.78125 36.375 
Q 24.75 36.375 20.875 32.046875 
Q 17 27.734375 17 19.921875 
Q 17 12.0625 20.875 7.734375 
Q 24.75 3.421875 31.78125 3.421875 
Q 38.8125 3.421875 42.6875 7.734375 
Q 46.578125 12.0625 46.578125 19.921875 
z
M 44.578125 55.328125 
Q 44.578125 61.96875 41.203125 65.671875 
Q 37.84375 69.390625 31.78125 69.390625 
Q 25.78125 69.390625 22.390625 65.671875 
Q 19 61.96875 19 55.328125 
Q 19 48.640625 22.390625 44.921875 
Q 25.78125 41.21875 31.78125 41.21875 
Q 37.84375 41.21875 41.203125 44.921875 
Q 44.578125 48.640625 44.578125 55.328125 
z
M 39.3125 38.8125 
Q 47.609375 37.703125 52.25 32.6875 
Q 56.890625 27.6875 56.890625 19.921875 
Q 56.890625 9.671875 50.390625 4.125 
Q 43.890625 -1.421875 31.78125 -1.421875 
Q 19.734375 -1.421875 13.203125 4.125 
Q 6.6875 9.671875 6.6875 19.921875 
Q 6.6875 27.6875 11.328125 32.6875 
Q 15.96875 37.703125 24.3125 38.8125 
Q 16.9375 40.140625 13 44.40625 
Q 9.078125 48.6875 9.078125 55.328125 
Q 9.078125 64.109375 15.125 69.15625 
Q 21.1875 74.21875 31.78125 74.21875 
Q 42.390625 74.21875 48.4375 69.15625 
Q 54.5 64.109375 54.5 55.328125 
Q 54.5 48.6875 50.5625 44.40625 
Q 46.625 40.140625 39.3125 38.8125 
z
" id="DejaVuSerif-56"/>
      </defs>
      <g transform="translate(34.275 127.908977)scale(0.1 -0.1)">
       <use xlink:href="#DejaVuSerif-56"/>
       <use x="63.623047" xlink:href="#DejaVuSerif-48"/>
      </g>
     </g>
    </g>
    <g id="ytick_4">
     <g id="line2d_6">
      <g>
       <use style="stroke:#000000;stroke-width:0.8;" x="54" xlink:href="#m3cff8582eb" y="76.907117"/>
      </g>
     </g>
     <g id="text_6">
      <!-- 100 -->
      <defs>
       <path d="M 14.203125 0 
L 14.203125 5.171875 
L 26.90625 5.171875 
L 26.90625 65.828125 
L 12.203125 56.296875 
L 12.203125 62.703125 
L 29.984375 74.21875 
L 36.71875 74.21875 
L 36.71875 5.171875 
L 49.421875 5.171875 
L 49.421875 0 
z
" id="DejaVuSerif-49"/>
      </defs>
      <g transform="translate(27.9125 80.706335)scale(0.1 -0.1)">
       <use xlink:href="#DejaVuSerif-49"/>
       <use x="63.623047" xlink:href="#DejaVuSerif-48"/>
       <use x="127.246094" xlink:href="#DejaVuSerif-48"/>
      </g>
     </g>
    </g>
    <g id="text_7">
     <!-- Energy Consumption (J) -->
     <defs>
      <path d="M 5.515625 0 
L 5.515625 5.171875 
L 14.796875 5.171875 
L 14.796875 67.671875 
L 5.515625 67.671875 
L 5.515625 72.90625 
L 64.203125 72.90625 
L 64.203125 56.6875 
L 58.203125 56.6875 
L 58.203125 66.890625 
L 24.703125 66.890625 
L 24.703125 42.484375 
L 48.578125 42.484375 
L 48.578125 51.609375 
L 54.59375 51.609375 
L 54.59375 27.390625 
L 48.578125 27.390625 
L 48.578125 36.53125 
L 24.703125 36.53125 
L 24.703125 6 
L 58.984375 6 
L 58.984375 16.21875 
L 64.984375 16.21875 
L 64.984375 0 
z
" id="DejaVuSerif-69"/>
      <path d="M 52.484375 46.6875 
L 52.484375 1.125 
Q 52.484375 -10.0625 46.328125 -16.140625 
Q 40.1875 -22.21875 28.8125 -22.21875 
Q 23.6875 -22.21875 19 -21.28125 
Q 14.3125 -20.359375 10.015625 -18.5 
L 10.015625 -7.625 
L 14.703125 -7.625 
Q 15.578125 -12.703125 18.84375 -15.046875 
Q 22.125 -17.390625 28.21875 -17.390625 
Q 36.140625 -17.390625 39.8125 -12.921875 
Q 43.5 -8.453125 43.5 1.125 
L 43.5 8.109375 
Q 40.875 3.21875 36.796875 0.890625 
Q 32.71875 -1.421875 26.703125 -1.421875 
Q 17.140625 -1.421875 11.0625 6.171875 
Q 4.984375 13.765625 4.984375 25.984375 
Q 4.984375 38.1875 11.03125 45.75 
Q 17.09375 53.328125 26.703125 53.328125 
Q 32.71875 53.328125 36.796875 51 
Q 40.875 48.6875 43.5 43.796875 
L 43.5 51.90625 
L 61.078125 51.90625 
L 61.078125 46.6875 
z
M 43.5 28.515625 
Q 43.5 37.84375 39.90625 42.765625 
Q 36.328125 47.703125 29.5 47.703125 
Q 22.5625 47.703125 19.015625 42.234375 
Q 15.484375 36.765625 15.484375 25.984375 
Q 15.484375 15.234375 19.015625 9.71875 
Q 22.5625 4.203125 29.5 4.203125 
Q 36.328125 4.203125 39.90625 9.109375 
Q 43.5 14.015625 43.5 23.390625 
z
" id="DejaVuSerif-103"/>
      <path d="M 21.578125 -9.515625 
L 25 -0.875 
L 5.609375 46.6875 
L -0.296875 46.6875 
L -0.296875 51.90625 
L 23.578125 51.90625 
L 23.578125 46.6875 
L 15.28125 46.6875 
L 29.890625 10.984375 
L 44.484375 46.6875 
L 36.71875 46.6875 
L 36.71875 51.90625 
L 56.203125 51.90625 
L 56.203125 46.6875 
L 50.390625 46.6875 
L 26.609375 -11.71875 
Q 24.171875 -17.78125 21.1875 -20 
Q 18.21875 -22.21875 12.796875 -22.21875 
Q 10.5 -22.21875 8.078125 -21.828125 
Q 5.671875 -21.4375 3.21875 -20.703125 
L 3.21875 -10.796875 
L 7.8125 -10.796875 
Q 8.109375 -14.109375 9.5 -15.546875 
Q 10.890625 -17 13.8125 -17 
Q 16.5 -17 18.140625 -15.5 
Q 19.78125 -14.015625 21.578125 -9.515625 
z
" id="DejaVuSerif-121"/>
      <path d="M 70.515625 19.28125 
Q 67.28125 9.078125 59.6875 3.828125 
Q 52.09375 -1.421875 40.484375 -1.421875 
Q 33.34375 -1.421875 27.234375 1.015625 
Q 21.140625 3.46875 16.40625 8.203125 
Q 10.9375 13.671875 8.265625 20.625 
Q 5.609375 27.59375 5.609375 36.375 
Q 5.609375 53.375 15.421875 63.796875 
Q 25.25 74.21875 41.3125 74.21875 
Q 47.265625 74.21875 54 72.65625 
Q 60.75 71.09375 68.5 67.921875 
L 68.5 51.125 
L 62.984375 51.125 
Q 61.1875 60.296875 55.734375 64.640625 
Q 50.296875 69 40.484375 69 
Q 28.8125 69 22.796875 60.71875 
Q 16.796875 52.4375 16.796875 36.375 
Q 16.796875 20.359375 22.796875 12.078125 
Q 28.8125 3.8125 40.484375 3.8125 
Q 48.640625 3.8125 53.90625 7.6875 
Q 59.1875 11.578125 61.53125 19.28125 
z
" id="DejaVuSerif-67"/>
      <path d="M 35.40625 51.90625 
L 52.203125 51.90625 
L 52.203125 5.171875 
L 60.6875 5.171875 
L 60.6875 0 
L 43.21875 0 
L 43.21875 9.1875 
Q 40.71875 4 36.765625 1.28125 
Q 32.8125 -1.421875 27.59375 -1.421875 
Q 18.953125 -1.421875 14.875 3.484375 
Q 10.796875 8.40625 10.796875 18.890625 
L 10.796875 46.6875 
L 2.6875 46.6875 
L 2.6875 51.90625 
L 19.828125 51.90625 
L 19.828125 21.6875 
Q 19.828125 12.203125 22.140625 8.6875 
Q 24.46875 5.171875 30.421875 5.171875 
Q 36.671875 5.171875 39.9375 9.765625 
Q 43.21875 14.359375 43.21875 23.09375 
L 43.21875 46.6875 
L 35.40625 46.6875 
z
" id="DejaVuSerif-117"/>
      <path d="M 51.8125 41.796875 
Q 54.390625 47.515625 58.421875 50.421875 
Q 62.453125 53.328125 67.828125 53.328125 
Q 75.984375 53.328125 79.984375 48.265625 
Q 83.984375 43.21875 83.984375 33.015625 
L 83.984375 5.171875 
L 92.09375 5.171875 
L 92.09375 0 
L 67.1875 0 
L 67.1875 5.171875 
L 75 5.171875 
L 75 31.984375 
Q 75 39.9375 72.65625 43.3125 
Q 70.3125 46.6875 64.890625 46.6875 
Q 58.890625 46.6875 55.734375 42.140625 
Q 52.59375 37.59375 52.59375 28.90625 
L 52.59375 5.171875 
L 60.40625 5.171875 
L 60.40625 0 
L 35.796875 0 
L 35.796875 5.171875 
L 43.609375 5.171875 
L 43.609375 32.328125 
Q 43.609375 40.09375 41.265625 43.390625 
Q 38.921875 46.6875 33.5 46.6875 
Q 27.484375 46.6875 24.328125 42.140625 
Q 21.1875 37.59375 21.1875 28.90625 
L 21.1875 5.171875 
L 29 5.171875 
L 29 0 
L 4.109375 0 
L 4.109375 5.171875 
L 12.203125 5.171875 
L 12.203125 46.78125 
L 3.609375 46.78125 
L 3.609375 51.90625 
L 21.1875 51.90625 
L 21.1875 42.671875 
Q 23.6875 47.859375 27.53125 50.59375 
Q 31.390625 53.328125 36.28125 53.328125 
Q 42.328125 53.328125 46.375 50.3125 
Q 50.4375 47.3125 51.8125 41.796875 
z
" id="DejaVuSerif-109"/>
      <path d="M 20.515625 28.515625 
L 20.515625 23.390625 
Q 20.515625 14.015625 24.09375 9.109375 
Q 27.6875 4.203125 34.515625 4.203125 
Q 41.40625 4.203125 44.9375 9.71875 
Q 48.484375 15.234375 48.484375 25.984375 
Q 48.484375 36.765625 44.9375 42.234375 
Q 41.40625 47.703125 34.515625 47.703125 
Q 27.6875 47.703125 24.09375 42.765625 
Q 20.515625 37.84375 20.515625 28.515625 
z
M 11.53125 46.6875 
L 2.875 46.6875 
L 2.875 51.90625 
L 20.515625 51.90625 
L 20.515625 43.796875 
Q 23.140625 48.6875 27.21875 51 
Q 31.296875 53.328125 37.3125 53.328125 
Q 46.875 53.328125 52.921875 45.75 
Q 58.984375 38.1875 58.984375 25.984375 
Q 58.984375 13.765625 52.921875 6.171875 
Q 46.875 -1.421875 37.3125 -1.421875 
Q 31.296875 -1.421875 27.21875 0.890625 
Q 23.140625 3.21875 20.515625 8.109375 
L 20.515625 -15.578125 
L 29 -15.578125 
L 29 -20.796875 
L 2.875 -20.796875 
L 2.875 -15.578125 
L 11.53125 -15.578125 
z
" id="DejaVuSerif-112"/>
      <path d="M 10.796875 46.6875 
L 2.875 46.6875 
L 2.875 51.90625 
L 10.796875 51.90625 
L 10.796875 68.015625 
L 19.828125 68.015625 
L 19.828125 51.90625 
L 36.71875 51.90625 
L 36.71875 46.6875 
L 19.828125 46.6875 
L 19.828125 13.71875 
Q 19.828125 7.125 21.09375 5.265625 
Q 22.359375 3.421875 25.78125 3.421875 
Q 29.296875 3.421875 30.90625 5.484375 
Q 32.515625 7.5625 32.625 12.203125 
L 39.40625 12.203125 
Q 39.015625 5.125 35.546875 1.84375 
Q 32.078125 -1.421875 25 -1.421875 
Q 17.234375 -1.421875 14.015625 2.015625 
Q 10.796875 5.46875 10.796875 13.71875 
z
" id="DejaVuSerif-116"/>
      <path d="M 31.890625 -15.578125 
Q 20.015625 -10.25 13.953125 1.296875 
Q 7.90625 12.84375 7.90625 30.171875 
Q 7.90625 47.5625 13.953125 59.109375 
Q 20.015625 70.65625 31.890625 75.984375 
L 31.890625 71.1875 
Q 24.359375 66.015625 21.09375 56.609375 
Q 17.828125 47.21875 17.828125 30.171875 
Q 17.828125 13.1875 21.09375 3.78125 
Q 24.359375 -5.609375 31.890625 -10.796875 
z
" id="DejaVuSerif-40"/>
      <path d="M -8.40625 -17.484375 
L -8.40625 -6 
L -2.828125 -6 
Q -2.6875 -10.84375 -0.53125 -13.203125 
Q 1.609375 -15.578125 5.90625 -15.578125 
Q 11.71875 -15.578125 14.015625 -11.90625 
Q 16.3125 -8.25 16.3125 2.390625 
L 16.3125 67.671875 
L 4.984375 67.671875 
L 4.984375 72.90625 
L 35.5 72.90625 
L 35.5 67.671875 
L 26.21875 67.671875 
L 26.21875 2 
Q 26.21875 -10.0625 21.375 -15.421875 
Q 16.546875 -20.796875 5.8125 -20.796875 
Q 2.34375 -20.796875 -1.234375 -19.96875 
Q -4.828125 -19.140625 -8.40625 -17.484375 
z
" id="DejaVuSerif-74"/>
      <path d="M 7.078125 -15.578125 
L 7.078125 -10.796875 
Q 14.59375 -5.609375 17.890625 3.78125 
Q 21.1875 13.1875 21.1875 30.171875 
Q 21.1875 47.21875 17.890625 56.609375 
Q 14.59375 66.015625 7.078125 71.1875 
L 7.078125 75.984375 
Q 19 70.65625 25.046875 59.109375 
Q 31.109375 47.5625 31.109375 30.171875 
Q 31.109375 12.84375 25.046875 1.296875 
Q 19 -10.25 7.078125 -15.578125 
z
" id="DejaVuSerif-41"/>
     </defs>
     <g transform="translate(21.690625 204.233125)rotate(-90)scale(0.1 -0.1)">
      <use xlink:href="#DejaVuSerif-69"/>
      <use x="72.998047" xlink:href="#DejaVuSerif-110"/>
      <use x="137.402344" xlink:href="#DejaVuSerif-101"/>
      <use x="196.582031" xlink:href="#DejaVuSerif-114"/>
      <use x="244.384766" xlink:href="#DejaVuSerif-103"/>
      <use x="308.398438" xlink:href="#DejaVuSerif-121"/>
      <use x="364.892578" xlink:href="#DejaVuSerif-32"/>
      <use x="396.679688" xlink:href="#DejaVuSerif-67"/>
      <use x="473.193359" xlink:href="#DejaVuSerif-111"/>
      <use x="533.398438" xlink:href="#DejaVuSerif-110"/>
      <use x="597.802734" xlink:href="#DejaVuSerif-115"/>
      <use x="649.121094" xlink:href="#DejaVuSerif-117"/>
      <use x="713.525391" xlink:href="#DejaVuSerif-109"/>
      <use x="808.349609" xlink:href="#DejaVuSerif-112"/>
      <use x="872.363281" xlink:href="#DejaVuSerif-116"/>
      <use x="912.548828" xlink:href="#DejaVuSerif-105"/>
      <use x="944.53125" xlink:href="#DejaVuSerif-111"/>
      <use x="1004.736328" xlink:href="#DejaVuSerif-110"/>
      <use x="1069.140625" xlink:href="#DejaVuSerif-32"/>
      <use x="1100.927734" xlink:href="#DejaVuSerif-40"/>
      <use x="1139.941406" xlink:href="#DejaVuSerif-74"/>
      <use x="1180.029297" xlink:href="#DejaVuSerif-41"/>
     </g>
    </g>
   </g>
   <g id="line2d_7">
    <path clip-path="url(#pd9380cd1ef)" d="M 125.145 121.393992 
L 150.255 121.393992 
L 150.255 70.802457 
L 125.145 70.802457 
L 125.145 121.393992 
" style="fill:none;stroke:#000000;stroke-linecap:square;stroke-width:0.5;"/>
   </g>
   <g id="line2d_8">
    <path clip-path="url(#pd9380cd1ef)" d="M 137.7 121.393992 
L 137.7 138.431295 
" style="fill:none;stroke:#000000;stroke-linecap:square;stroke-width:0.5;"/>
   </g>
   <g id="line2d_9">
    <path clip-path="url(#pd9380cd1ef)" d="M 137.7 70.802457 
L 137.7 44.443636 
" style="fill:none;stroke:#000000;stroke-linecap:square;stroke-width:0.5;"/>
   </g>
   <g id="line2d_10">
    <path clip-path="url(#pd9380cd1ef)" d="M 131.4225 138.431295 
L 143.9775 138.431295 
" style="fill:none;stroke:#000000;stroke-linecap:square;"/>
   </g>
   <g id="line2d_11">
    <path clip-path="url(#pd9380cd1ef)" d="M 131.4225 44.443636 
L 143.9775 44.443636 
" style="fill:none;stroke:#000000;stroke-linecap:square;"/>
   </g>
   <g id="line2d_12"/>
   <g id="line2d_13">
    <path clip-path="url(#pd9380cd1ef)" d="M 292.545 133.231634 
L 317.655 133.231634 
L 317.655 121.132095 
L 292.545 121.132095 
L 292.545 133.231634 
" style="fill:none;stroke:#000000;stroke-linecap:square;stroke-width:0.5;"/>
   </g>
   <g id="line2d_14">
    <path clip-path="url(#pd9380cd1ef)" d="M 305.1 133.231634 
L 305.1 148.099434 
" style="fill:none;stroke:#000000;stroke-linecap:square;stroke-width:0.5;"/>
   </g>
   <g id="line2d_15">
    <path clip-path="url(#pd9380cd1ef)" d="M 305.1 121.132095 
L 305.1 107.495399 
" style="fill:none;stroke:#000000;stroke-linecap:square;stroke-width:0.5;"/>
   </g>
   <g id="line2d_16">
    <path clip-path="url(#pd9380cd1ef)" d="M 298.8225 148.099434 
L 311.3775 148.099434 
" style="fill:none;stroke:#000000;stroke-linecap:square;"/>
   </g>
   <g id="line2d_17">
    <path clip-path="url(#pd9380cd1ef)" d="M 298.8225 107.495399 
L 311.3775 107.495399 
" style="fill:none;stroke:#000000;stroke-linecap:square;"/>
   </g>
   <g id="line2d_18">
    <defs>
     <path d="M 0 3 
C 0.795609 3 1.55874 2.683901 2.12132 2.12132 
C 2.683901 1.55874 3 0.795609 3 0 
C 3 -0.795609 2.683901 -1.55874 2.12132 -2.12132 
C 1.55874 -2.683901 0.795609 -3 0 -3 
C -0.795609 -3 -1.55874 -2.683901 -2.12132 -2.12132 
C -2.683901 -1.55874 -3 -0.795609 -3 0 
C -3 0.795609 -2.683901 1.55874 -2.12132 2.12132 
C -1.55874 2.683901 -0.795609 3 0 3 
z
" id="ma4595e6d48" style="stroke:#ff0000;"/>
    </defs>
    <g clip-path="url(#pd9380cd1ef)">
     <use style="fill-opacity:0;stroke:#ff0000;" x="305.1" xlink:href="#ma4595e6d48" y="242.116364"/>
     <use style="fill-opacity:0;stroke:#ff0000;" x="305.1" xlink:href="#ma4595e6d48" y="239.756232"/>
    </g>
   </g>
   <g id="line2d_19">
    <path clip-path="url(#pd9380cd1ef)" d="M 125.145 84.515357 
L 150.255 84.515357 
" style="fill:none;stroke:#000000;stroke-linecap:square;"/>
   </g>
   <g id="line2d_20">
    <path clip-path="url(#pd9380cd1ef)" d="M 292.545 127.048753 
L 317.655 127.048753 
" style="fill:none;stroke:#000000;stroke-linecap:square;"/>
   </g>
   <g id="patch_3">
    <path d="M 54 252 
L 54 34.56 
" style="fill:none;stroke:#000000;stroke-linecap:square;stroke-linejoin:miter;stroke-width:0.8;"/>
   </g>
   <g id="patch_4">
    <path d="M 54 252 
L 388.8 252 
" style="fill:none;stroke:#000000;stroke-linecap:square;stroke-linejoin:miter;stroke-width:0.8;"/>
   </g>
  </g>
 </g>
 <defs>
  <clipPath id="pd9380cd1ef">
   <rect height="217.44" width="334.8" x="54" y="34.56"/>
  </clipPath>
 </defs>
</svg>
