<?xml version="1.0" encoding="UTF-8" standalone="no"?>
<!DOCTYPE svg PUBLIC "-//W3C//DTD SVG 1.1//EN" "http://www.w3.org/Graphics/SVG/1.1/DTD/svg11.dtd">
<svg xmlns="http://www.w3.org/2000/svg" xmlns:xlink="http://www.w3.org/1999/xlink" version="1.1" width="634.07998pt" height="341.03999pt" viewBox="0 0 634.07998 341.03999">
<g enable-background="new">
<clipPath id="cp0">
<path transform="matrix(.24,0,0,.24,0,0)" d="M 0 0 L 2641.6666 0 L 2641.6666 1418.0634 L 0 1418.0634 Z " fill-rule="evenodd"/>
</clipPath>
<g clip-path="url(#cp0)">
<path transform="matrix(.7180068,0,0,.7180068,0,0)" d="M 0 0 L 883 0 L 883 474 L 0 474 Z " fill="#ffffff"/>
</g>
<clipPath id="cp1">
<path transform="matrix(.24,0,0,.24,0,0)" d="M 0 0 L 2641.6666 0 L 2641.6666 1415.0717 L 0 1415.0717 Z " fill-rule="evenodd"/>
</clipPath>
<g clip-path="url(#cp1)">
<path transform="matrix(.7180068,0,0,.7180068,.3590034,.3590034)" stroke-width="1" stroke-linecap="butt" stroke-miterlimit="10" stroke-linejoin="miter" fill="none" stroke="#000000" d="M 441 141 L 441 171 L 181 171 L 181 192.88 "/>
<path transform="matrix(.7180068,0,0,.7180068,.3590034,.3590034)" d="M 181 199.88 L 178.67 192.88 L 183.33 192.88 L 181 199.88 Z "/>
<path transform="matrix(.7180068,0,0,.7180068,.3590034,.3590034)" stroke-width="1" stroke-linecap="butt" stroke-miterlimit="10" stroke-linejoin="miter" fill="none" stroke="#000000" d="M 181 199.88 L 178.67 192.88 L 183.33 192.88 L 181 199.88 Z "/>
<text xml:space="preserve" transform="matrix(.7180068 0 0 .7180068 0 0)" font-size="16" font-family="TimesNewRomanPSMT"><tspan y="164" x="265.32814 273.98439 281.98439 289.98439 297.08839 301.08839 309.08839 313.08839 321.08839 326.41639 330.41639 339.0703 347.0703 355.0703 362.17433 366.17433 374.17433 378.17433 383.50233">Type 3 or Type 4 (T</tspan></text>
<text xml:space="preserve" transform="matrix(.7180068 0 0 .7180068 0 0)" font-size="13.33" font-family="TimesNewRomanPSMT"><tspan y="168" x="393.26564">3</tspan></text>
<text xml:space="preserve" transform="matrix(.7180068 0 0 .7180068 0 0)" font-size="16" font-family="TimesNewRomanPSMT"><tspan y="164" x="399.92189 403.92189 407.92189">, T</tspan></text>
<text xml:space="preserve" transform="matrix(.7180068 0 0 .7180068 0 0)" font-size="13.33" font-family="TimesNewRomanPSMT"><tspan y="168" x="417.6875">4</tspan></text>
<text xml:space="preserve" transform="matrix(.7180068 0 0 .7180068 0 0)" font-size="16" font-family="TimesNewRomanPSMT"><tspan y="164" x="424.34376">)</tspan></text>
<path transform="matrix(.7180068,0,0,.7180068,.3590034,.3590034)" stroke-width="1" stroke-linecap="butt" stroke-miterlimit="10" stroke-linejoin="miter" fill="none" stroke="#000000" d="M 441 141 L 441 171 L 701 171 L 701 192.88 "/>
<path transform="matrix(.7180068,0,0,.7180068,.3590034,.3590034)" d="M 701 199.88 L 698.67 192.88 L 703.33 192.88 L 701 199.88 Z "/>
<path transform="matrix(.7180068,0,0,.7180068,.3590034,.3590034)" stroke-width="1" stroke-linecap="butt" stroke-miterlimit="10" stroke-linejoin="miter" fill="none" stroke="#000000" d="M 701 199.88 L 698.67 192.88 L 703.33 192.88 L 701 199.88 Z "/>
<path transform="matrix(.7180068,0,0,.7180068,.3590034,.3590034)" d="M 441 1 L 541 71 L 441 141 L 341 71 L 441 1 Z " fill="#ffffff"/>
<path transform="matrix(.7180068,0,0,.7180068,.3590034,.3590034)" stroke-width="1" stroke-linecap="butt" stroke-miterlimit="10" stroke-linejoin="miter" fill="none" stroke="#000000" d="M 441 1 L 541 71 L 441 141 L 341 71 L 441 1 Z "/>
<g id="Layer-1" data-name="Span">
</g>
<text xml:space="preserve" transform="matrix(.7180068 0 0 .7180068 0 0)" font-size="16" font-family="TimesNewRomanPSMT"><tspan y="48" x="388.5625 400.1145 408.1145 412.5625 416.5625 431.6665 439.6665 446.7705 451.2185 455.2185 459.6665 465.8905 469.8905 474.3385 482.3385 489.4425">Q1: What is the </tspan></text>
<g id="Layer-1" data-name="Span">
</g>
<text xml:space="preserve" transform="matrix(.7180068 0 0 .7180068 0 0)" font-size="16" font-family="ArialMT"><tspan y="48" x="493.42189"> </tspan></text>
<text xml:space="preserve" transform="matrix(.7180068 0 0 .7180068 0 0)" font-size="16" font-family="TimesNewRomanPSMT"><tspan y="67" x="356.15626 363.26026 368.58827 373.03627 377.48426 382.81227 389.91627 397.02027 401.46827 405.46827 409.91627 417.91627 425.91627 433.02027 437.02027 445.02027 450.34828 454.34828 458.79627 466.79627 473.90028 477.90028 483.22828 487.67628 494.78028 502.78028 510.78028 517.8843">artifact type of the flagged</tspan></text>
<text xml:space="preserve" transform="matrix(.7180068 0 0 .7180068 0 0)" font-size="16" font-family="TimesNewRomanPSMT"><tspan y="87" x="374.57814 382.57814 390.57814 398.57814 404.80213 411.90614 419.90614 423.90614 431.90614 439.01014 447.01014 454.11415 462.11415 470.11415 477.21815 485.21815 492.32215 500.32215">unused dependency?</tspan></text>
<path transform="matrix(.7180068,0,0,.7180068,.3590034,.3590034)" d="M 881 431 C 881 432.31007 880.8716 433.61695 880.61477 434.9207 C 880.358 436.22444 879.97396 437.5187 879.4627 438.80357 C 878.9516 440.08845 878.31576 441.35774 877.5552 442.61137 C 876.7946 443.865 875.913 445.09696 874.9103 446.30726 C 873.90768 447.5176 872.7888 448.70048 871.5537 449.85585 C 870.3186 451.0112 868.9732 452.13349 867.5175 453.22276 C 866.0619 454.31205 864.503 455.36305 862.8409 456.37574 C 861.1787 457.3884 859.4212 458.3579 857.5685 459.28425 C 855.7159 460.2106 853.77688 461.08934 851.75149 461.9204 C 849.7261 462.7515 847.6241 463.53096 845.44558 464.25877 C 843.2671 464.9866 841.02249 465.6593 838.7117 466.27684 C 836.401 466.8944 834.0353 467.45384 831.61459 467.95515 C 829.194 468.4565 826.73 468.8973 824.2227 469.2776 C 821.7154 469.65788 819.1769 469.9758 816.6071 470.23136 C 814.03738 470.48695 811.4488 470.67897 808.8414 470.8074 C 806.2339 470.9358 803.6201 471 801 471 C 798.37997 471 795.7661 470.9358 793.15859 470.80738 C 790.5511 470.67897 787.96249 470.48695 785.3927 470.23136 C 782.82296 469.97578 780.2845 469.65785 777.7772 469.27757 C 775.26998 468.89729 772.80599 468.45646 770.38528 467.9551 C 767.96469 467.4538 765.59896 466.89436 763.2882 466.27684 C 760.9775 465.6593 758.73287 464.9866 756.5543 464.25877 C 754.3758 463.53096 752.27389 462.7515 750.24856 461.92039 C 748.22317 461.08934 746.2841 460.2106 744.4314 459.28425 C 742.57876 458.3579 740.8213 457.3884 739.1591 456.3757 C 737.49697 455.36305 735.93807 454.31205 734.48239 453.22279 C 733.02676 452.1335 731.6814 451.0112 730.4462 449.85585 C 729.2111 448.70048 728.0922 447.5176 727.08956 446.30726 C 726.0869 445.09696 725.2053 443.865 724.44479 442.61137 C 723.6842 441.35774 723.0483 440.08845 722.5371 438.80357 C 722.026 437.5187 721.642 436.22444 721.38528 434.9207 C 721.1285 433.61695 721.00009 432.31007 721 431 C 721.00009 429.68998 721.1285 428.38307 721.38528 427.0793 C 721.6421 425.77555 722.02609 424.48124 722.5372 423.19636 C 723.04837 421.91148 723.68429 420.64225 724.4448 419.3886 C 725.2054 418.13499 726.087 416.90299 727.0896 415.69264 C 728.0922 414.48234 729.2111 413.29948 730.4462 412.1441 C 731.6814 410.98875 733.02676 409.86643 734.48239 408.77714 C 735.93807 407.68788 737.49697 406.6369 739.1591 405.62425 C 740.8213 404.61158 742.57876 403.64207 744.4314 402.7157 C 746.2841 401.78938 748.22317 400.91065 750.24856 400.07957 C 752.27389 399.24848 754.3758 398.46903 756.5543 397.74119 C 758.73287 397.01338 760.9775 396.3407 763.2882 395.72315 C 765.59896 395.1056 767.9646 394.54615 770.3852 394.04478 C 772.8059 393.54347 775.2699 393.10267 777.7772 392.72239 C 780.2845 392.3421 782.82296 392.02418 785.3927 391.7686 C 787.96249 391.51304 790.5511 391.32106 793.15859 391.19264 C 795.7661 391.0642 798.37997 391 801 391 C 803.6201 391 806.2339 391.0642 808.8414 391.1926 C 811.4488 391.32106 814.03738 391.51304 816.60708 391.7686 C 819.1768 392.02418 821.7154 392.34214 824.22268 392.7224 C 826.7299 393.1027 829.19387 393.5435 831.6145 394.0448 C 834.0352 394.54615 836.40097 395.1056 838.7117 395.72319 C 841.0224 396.3407 843.26699 397.01338 845.4455 397.74119 C 847.6241 398.46903 849.7261 399.24848 851.75149 400.07957 C 853.77688 400.91065 855.7159 401.78938 857.5685 402.7157 C 859.4212 403.64207 861.1787 404.61158 862.8409 405.62428 C 864.503 406.63697 866.0619 407.68794 867.5175 408.7772 C 868.9732 409.86647 870.3186 410.98878 871.55368 412.1441 C 872.7888 413.29948 873.90768 414.4823 874.9103 415.6926 C 875.913 416.90296 876.7946 418.13496 877.5552 419.3886 C 878.31576 420.64225 878.9516 421.91148 879.4627 423.19636 C 879.97396 424.48124 880.358 425.77555 880.61477 427.0793 C 880.8716 428.38307 881 429.68998 881 431 Z " fill="#d5e8d4"/>
<path transform="matrix(.7180068,0,0,.7180068,.3590034,.3590034)" stroke-width="1" stroke-linecap="butt" stroke-miterlimit="4" stroke-linejoin="miter" fill="none" stroke="#82b366" d="M 881 431 C 881 432.31007 880.8716 433.61695 880.61477 434.9207 C 880.358 436.22444 879.97396 437.5187 879.4627 438.80357 C 878.9516 440.08845 878.31576 441.35774 877.5552 442.61137 C 876.7946 443.865 875.913 445.09696 874.9103 446.30726 C 873.90768 447.5176 872.7888 448.70048 871.5537 449.85585 C 870.3186 451.0112 868.9732 452.13349 867.5175 453.22276 C 866.0619 454.31205 864.503 455.36305 862.8409 456.37574 C 861.1787 457.3884 859.4212 458.3579 857.5685 459.28425 C 855.7159 460.2106 853.77688 461.08934 851.75149 461.9204 C 849.7261 462.7515 847.6241 463.53096 845.44558 464.25877 C 843.2671 464.9866 841.02249 465.6593 838.7117 466.27684 C 836.401 466.8944 834.0353 467.45384 831.61459 467.95515 C 829.194 468.4565 826.73 468.8973 824.2227 469.2776 C 821.7154 469.65788 819.1769 469.9758 816.6071 470.23136 C 814.03738 470.48695 811.4488 470.67897 808.8414 470.8074 C 806.2339 470.9358 803.6201 471 801 471 C 798.37997 471 795.7661 470.9358 793.15859 470.80738 C 790.5511 470.67897 787.96249 470.48695 785.3927 470.23136 C 782.82296 469.97578 780.2845 469.65785 777.7772 469.27757 C 775.26998 468.89729 772.80599 468.45646 770.38528 467.9551 C 767.96469 467.4538 765.59896 466.89436 763.2882 466.27684 C 760.9775 465.6593 758.73287 464.9866 756.5543 464.25877 C 754.3758 463.53096 752.27389 462.7515 750.24856 461.92039 C 748.22317 461.08934 746.2841 460.2106 744.4314 459.28425 C 742.57876 458.3579 740.8213 457.3884 739.1591 456.3757 C 737.49697 455.36305 735.93807 454.31205 734.48239 453.22279 C 733.02676 452.1335 731.6814 451.0112 730.4462 449.85585 C 729.2111 448.70048 728.0922 447.5176 727.08956 446.30726 C 726.0869 445.09696 725.2053 443.865 724.44479 442.61137 C 723.6842 441.35774 723.0483 440.08845 722.5371 438.80357 C 722.026 437.5187 721.642 436.22444 721.38528 434.9207 C 721.1285 433.61695 721.00009 432.31007 721 431 C 721.00009 429.68998 721.1285 428.38307 721.38528 427.0793 C 721.6421 425.77555 722.02609 424.48124 722.5372 423.19636 C 723.04837 421.91148 723.68429 420.64225 724.4448 419.3886 C 725.2054 418.13499 726.087 416.90299 727.0896 415.69264 C 728.0922 414.48234 729.2111 413.29948 730.4462 412.1441 C 731.6814 410.98875 733.02676 409.86643 734.48239 408.77714 C 735.93807 407.68788 737.49697 406.6369 739.1591 405.62425 C 740.8213 404.61158 742.57876 403.64207 744.4314 402.7157 C 746.2841 401.78938 748.22317 400.91065 750.24856 400.07957 C 752.27389 399.24848 754.3758 398.46903 756.5543 397.74119 C 758.73287 397.01338 760.9775 396.3407 763.2882 395.72315 C 765.59896 395.1056 767.9646 394.54615 770.3852 394.04478 C 772.8059 393.54347 775.2699 393.10267 777.7772 392.72239 C 780.2845 392.3421 782.82296 392.02418 785.3927 391.7686 C 787.96249 391.51304 790.5511 391.32106 793.15859 391.19264 C 795.7661 391.0642 798.37997 391 801 391 C 803.6201 391 806.2339 391.0642 808.8414 391.1926 C 811.4488 391.32106 814.03738 391.51304 816.60708 391.7686 C 819.1768 392.02418 821.7154 392.34214 824.22268 392.7224 C 826.7299 393.1027 829.19387 393.5435 831.6145 394.0448 C 834.0352 394.54615 836.40097 395.1056 838.7117 395.72319 C 841.0224 396.3407 843.26699 397.01338 845.4455 397.74119 C 847.6241 398.46903 849.7261 399.24848 851.75149 400.07957 C 853.77688 400.91065 855.7159 401.78938 857.5685 402.7157 C 859.4212 403.64207 861.1787 404.61158 862.8409 405.62428 C 864.503 406.63697 866.0619 407.68794 867.5175 408.7772 C 868.9732 409.86647 870.3186 410.98878 871.55368 412.1441 C 872.7888 413.29948 873.90768 414.4823 874.9103 415.6926 C 875.913 416.90296 876.7946 418.13496 877.5552 419.3886 C 878.31576 420.64225 878.9516 421.91148 879.4627 423.19636 C 879.97396 424.48124 880.358 425.77555 880.61477 427.0793 C 880.8716 428.38307 881 429.68998 881 431 Z "/>
<text xml:space="preserve" transform="matrix(.7180068 0 0 .7180068 0 0)" font-size="16" font-family="TimesNewRomanPSMT"><tspan y="437" x="734.5781 746.1301 754.1301 762.1301 768.3541 775.4581 783.4581 787.4581 799.01016 806.11416 814.11416 821.21817 829.21817 837.21817 844.32217 852.32217 859.42617">Unused Dependency</tspan></text>
<path transform="matrix(.7180068,0,0,.7180068,.3590034,.3590034)" stroke-width="1" stroke-linecap="butt" stroke-miterlimit="10" stroke-linejoin="miter" fill="none" stroke="#000000" d="M 701 341 L 701 366 L 801 366 L 801 382.88 "/>
<path transform="matrix(.7180068,0,0,.7180068,.3590034,.3590034)" d="M 801 389.88 L 798.67 382.88 L 803.33 382.88 L 801 389.88 Z "/>
<path transform="matrix(.7180068,0,0,.7180068,.3590034,.3590034)" stroke-width="1" stroke-linecap="butt" stroke-miterlimit="10" stroke-linejoin="miter" fill="none" stroke="#000000" d="M 801 389.88 L 798.67 382.88 L 803.33 382.88 L 801 389.88 Z "/>
<text xml:space="preserve" transform="matrix(.7180068 0 0 .7180068 0 0)" font-size="16" font-family="TimesNewRomanPSMT"><tspan y="358" x="709.2031">T</tspan></text>
<text xml:space="preserve" transform="matrix(.7180068 0 0 .7180068 0 0)" font-size="13.33" font-family="TimesNewRomanPSMT"><tspan y="362" x="718.96878">3</tspan></text>
<text xml:space="preserve" transform="matrix(.7180068 0 0 .7180068 0 0)" font-size="16" font-family="TimesNewRomanPSMT"><tspan y="358" x="725.625 729.625 733.625">, T</tspan></text>
<text xml:space="preserve" transform="matrix(.7180068 0 0 .7180068 0 0)" font-size="13.33" font-family="TimesNewRomanPSMT"><tspan y="362" x="743.3906">4</tspan></text>
<text xml:space="preserve" transform="matrix(.7180068 0 0 .7180068 0 0)" font-size="16" font-family="TimesNewRomanPSMT"><tspan y="358" x="750.0469 754.0469 762.0469 767.3749 771.3749"> or T</tspan></text>
<text xml:space="preserve" transform="matrix(.7180068 0 0 .7180068 0 0)" font-size="13.33" font-family="TimesNewRomanPSMT"><tspan y="362" x="781.1406">5</tspan></text>
<path transform="matrix(.7180068,0,0,.7180068,.3590034,.3590034)" stroke-width="1" stroke-linecap="butt" stroke-miterlimit="10" stroke-linejoin="miter" fill="none" stroke="#000000" d="M 701 341 L 701 366 L 441 366 L 441 382.88 "/>
<path transform="matrix(.7180068,0,0,.7180068,.3590034,.3590034)" d="M 441 389.88 L 438.67 382.88 L 443.33 382.88 L 441 389.88 Z "/>
<path transform="matrix(.7180068,0,0,.7180068,.3590034,.3590034)" stroke-width="1" stroke-linecap="butt" stroke-miterlimit="10" stroke-linejoin="miter" fill="none" stroke="#000000" d="M 441 389.88 L 438.67 382.88 L 443.33 382.88 L 441 389.88 Z "/>
<path transform="matrix(.7180068,0,0,.7180068,.3590034,.3590034)" d="M 701 201 L 801 271 L 701 341 L 601 271 L 701 201 Z " fill="#ffffff"/>
<path transform="matrix(.7180068,0,0,.7180068,.3590034,.3590034)" stroke-width="1" stroke-linecap="butt" stroke-miterlimit="10" stroke-linejoin="miter" fill="none" stroke="#000000" d="M 701 201 L 801 271 L 701 341 L 601 271 L 701 201 Z "/>
<g id="Layer-1" data-name="Span">
</g>
<text xml:space="preserve" transform="matrix(.7180068 0 0 .7180068 0 0)" font-size="16" font-family="TimesNewRomanPSMT"><tspan y="248" x="648.5625 660.1145 668.1145 672.5625 676.5625 691.6665 699.6665 706.7705 711.2185 715.2185 719.6665 725.8905 729.8905 734.3385 742.3385 749.4425">Q3: What is the </tspan></text>
<text xml:space="preserve" transform="matrix(.7180068 0 0 .7180068 0 0)" font-size="16" font-family="TimesNewRomanPSMT"><tspan y="267" x="617.46878 624.57278 629.90078 634.34878 638.79678 644.12478 651.22879 658.33279 662.78079 666.78079 671.22879 679.22879 687.22879 694.33279 698.33279 706.33279 711.66079 715.66079 720.10879 728.10879 735.21279 739.21279 747.21279 755.21279 763.21279 769.43679 776.5408">artifact type of the unused</tspan></text>
<text xml:space="preserve" transform="matrix(.7180068 0 0 .7180068 0 0)" font-size="16" font-family="TimesNewRomanPSMT"><tspan y="287" x="625.0156 633.0156 640.1196 648.1196 655.22366 663.22366 671.22366 678.32766 686.32766 693.43167 701.43167 705.43167 709.87966 717.87966 721.87966 729.87966 735.20767 742.31167 750.31167 754.75967 762.75967 770.75967">dependency in previous</tspan></text>
<text xml:space="preserve" transform="matrix(.7180068 0 0 .7180068 0 0)" font-size="16" font-family="TimesNewRomanPSMT"><tspan y="306" x="670.78128 678.78128 685.88528 691.21328 697.43728 701.88528 709.88528 717.88528 724.10928">versions?</tspan></text>
<g id="Layer-1" data-name="Span">
</g>
<text xml:space="preserve" transform="matrix(.7180068 0 0 .7180068 0 0)" font-size="16" font-family="ArialMT"><tspan y="306" x="731.2031"> </tspan></text>
<path transform="matrix(.7180068,0,0,.7180068,.3590034,.3590034)" d="M 161 431 C 161 432.31007 160.8716 433.61695 160.61479 434.9207 C 160.35797 436.22444 159.97399 437.5187 159.4628 438.80357 C 158.95166 440.08845 158.3158 441.35774 157.55522 442.61137 C 156.79465 443.865 155.91301 445.09696 154.91034 446.30726 C 153.90767 447.5176 152.78879 448.70048 151.55368 449.85585 C 150.31858 451.0112 148.97319 452.13349 147.51755 453.22276 C 146.0619 454.31205 144.50299 455.36305 142.84082 456.37574 C 141.17865 457.3884 139.42122 458.3579 137.56853 459.28425 C 135.71585 460.2106 133.77683 461.08934 131.75145 461.9204 C 129.72609 462.7515 127.62414 463.53096 125.445598 464.25877 C 123.26707 464.9866 121.022449 465.6593 118.71172 466.27684 C 116.401 466.8944 114.03532 467.45384 111.61466 467.95515 C 109.194019 468.4565 106.73005 468.8973 104.22277 469.2776 C 101.71549 469.65788 99.17697 469.9758 96.607219 470.23136 C 94.03747 470.48695 91.44885 470.67897 88.84138 470.8074 C 86.23389 470.9358 83.620098 471 81 471 C 78.379909 471 75.76611 470.9358 73.15863 470.80738 C 70.55114 470.67897 67.962528 470.48695 65.39277 470.23136 C 62.823019 469.97578 60.284505 469.65785 57.77722 469.27757 C 55.269945 468.89729 52.805978 468.45646 50.38532 467.9551 C 47.96467 467.4538 45.59898 466.89436 43.288255 466.27684 C 40.977537 465.6593 38.732908 464.9866 36.554376 464.25877 C 34.375844 463.53096 32.2739 462.7515 30.248538 461.92039 C 28.223176 461.08934 26.284148 460.2106 24.431456 459.28425 C 22.578766 458.3579 20.821335 457.3884 19.159163 456.3757 C 17.49699 455.36305 15.938079 454.31205 14.4824299 453.22279 C 13.026781 452.1335 11.681404 451.0112 10.446298 449.85585 C 9.211191 448.70048 8.092304 447.5176 7.0896365 446.30726 C 6.0869686 445.09696 5.205347 443.865 4.4447724 442.61137 C 3.684198 441.35774 3.0483332 440.08845 2.537177 438.80357 C 2.0260215 437.5187 1.6420363 436.22444 1.3852218 434.9207 C 1.1284072 433.61695 1 432.31007 1 431 C 1 429.68998 1.1284072 428.38307 1.3852218 427.0793 C 1.6420363 425.77555 2.0260215 424.48124 2.537177 423.19636 C 3.0483332 421.91148 3.6841982 420.64225 4.4447729 419.3886 C 5.205347 418.13499 6.0869686 416.90299 7.0896365 415.69264 C 8.092304 414.48234 9.211191 413.29948 10.446298 412.1441 C 11.681404 410.98875 13.026781 409.86643 14.4824299 408.77714 C 15.938079 407.68788 17.49699 406.6369 19.159163 405.62425 C 20.821335 404.61158 22.578766 403.64207 24.431456 402.7157 C 26.284148 401.78938 28.223176 400.91065 30.248538 400.07957 C 32.2739 399.24848 34.375844 398.46903 36.554376 397.74119 C 38.732908 397.01338 40.977537 396.3407 43.288259 395.72315 C 45.59898 395.1056 47.96467 394.54615 50.38532 394.04478 C 52.805978 393.54347 55.269945 393.10267 57.777227 392.72239 C 60.284505 392.3421 62.823019 392.02418 65.39277 391.7686 C 67.962528 391.51304 70.55114 391.32106 73.15863 391.19264 C 75.76611 391.0642 78.379909 391 81 391 C 83.620098 391 86.23389 391.0642 88.84137 391.1926 C 91.44885 391.32106 94.03747 391.51304 96.607219 391.7686 C 99.17697 392.02418 101.71549 392.34214 104.22277 392.7224 C 106.73005 393.1027 109.194019 393.5435 111.61466 394.0448 C 114.03532 394.54615 116.401 395.1056 118.71172 395.72319 C 121.022449 396.3407 123.267078 397.01338 125.4456 397.74119 C 127.62414 398.46903 129.72609 399.24848 131.75145 400.07957 C 133.77683 400.91065 135.71585 401.78938 137.56853 402.7157 C 139.42122 403.64207 141.17865 404.61158 142.84084 405.62428 C 144.50299 406.63697 146.0619 407.68794 147.51755 408.7772 C 148.97319 409.86647 150.31858 410.98878 151.55368 412.1441 C 152.78879 413.29948 153.90767 414.4823 154.91034 415.6926 C 155.91301 416.90296 156.79465 418.13496 157.55522 419.3886 C 158.3158 420.64225 158.95166 421.91148 159.4628 423.19636 C 159.97399 424.48124 160.35797 425.77555 160.61479 427.0793 C 160.8716 428.38307 161 429.68998 161 431 Z " fill="#f8cecc"/>
<path transform="matrix(.7180068,0,0,.7180068,.3590034,.3590034)" stroke-width="1" stroke-linecap="butt" stroke-miterlimit="4" stroke-linejoin="miter" fill="none" stroke="#b85450" d="M 161 431 C 161 432.31007 160.8716 433.61695 160.61479 434.9207 C 160.35797 436.22444 159.97399 437.5187 159.4628 438.80357 C 158.95166 440.08845 158.3158 441.35774 157.55522 442.61137 C 156.79465 443.865 155.91301 445.09696 154.91034 446.30726 C 153.90767 447.5176 152.78879 448.70048 151.55368 449.85585 C 150.31858 451.0112 148.97319 452.13349 147.51755 453.22276 C 146.0619 454.31205 144.50299 455.36305 142.84082 456.37574 C 141.17865 457.3884 139.42122 458.3579 137.56853 459.28425 C 135.71585 460.2106 133.77683 461.08934 131.75145 461.9204 C 129.72609 462.7515 127.62414 463.53096 125.445598 464.25877 C 123.26707 464.9866 121.022449 465.6593 118.71172 466.27684 C 116.401 466.8944 114.03532 467.45384 111.61466 467.95515 C 109.194019 468.4565 106.73005 468.8973 104.22277 469.2776 C 101.71549 469.65788 99.17697 469.9758 96.607219 470.23136 C 94.03747 470.48695 91.44885 470.67897 88.84138 470.8074 C 86.23389 470.9358 83.620098 471 81 471 C 78.379909 471 75.76611 470.9358 73.15863 470.80738 C 70.55114 470.67897 67.962528 470.48695 65.39277 470.23136 C 62.823019 469.97578 60.284505 469.65785 57.77722 469.27757 C 55.269945 468.89729 52.805978 468.45646 50.38532 467.9551 C 47.96467 467.4538 45.59898 466.89436 43.288255 466.27684 C 40.977537 465.6593 38.732908 464.9866 36.554376 464.25877 C 34.375844 463.53096 32.2739 462.7515 30.248538 461.92039 C 28.223176 461.08934 26.284148 460.2106 24.431456 459.28425 C 22.578766 458.3579 20.821335 457.3884 19.159163 456.3757 C 17.49699 455.36305 15.938079 454.31205 14.4824299 453.22279 C 13.026781 452.1335 11.681404 451.0112 10.446298 449.85585 C 9.211191 448.70048 8.092304 447.5176 7.0896365 446.30726 C 6.0869686 445.09696 5.205347 443.865 4.4447724 442.61137 C 3.684198 441.35774 3.0483332 440.08845 2.537177 438.80357 C 2.0260215 437.5187 1.6420363 436.22444 1.3852218 434.9207 C 1.1284072 433.61695 1 432.31007 1 431 C 1 429.68998 1.1284072 428.38307 1.3852218 427.0793 C 1.6420363 425.77555 2.0260215 424.48124 2.537177 423.19636 C 3.0483332 421.91148 3.6841982 420.64225 4.4447729 419.3886 C 5.205347 418.13499 6.0869686 416.90299 7.0896365 415.69264 C 8.092304 414.48234 9.211191 413.29948 10.446298 412.1441 C 11.681404 410.98875 13.026781 409.86643 14.4824299 408.77714 C 15.938079 407.68788 17.49699 406.6369 19.159163 405.62425 C 20.821335 404.61158 22.578766 403.64207 24.431456 402.7157 C 26.284148 401.78938 28.223176 400.91065 30.248538 400.07957 C 32.2739 399.24848 34.375844 398.46903 36.554376 397.74119 C 38.732908 397.01338 40.977537 396.3407 43.288259 395.72315 C 45.59898 395.1056 47.96467 394.54615 50.38532 394.04478 C 52.805978 393.54347 55.269945 393.10267 57.777227 392.72239 C 60.284505 392.3421 62.823019 392.02418 65.39277 391.7686 C 67.962528 391.51304 70.55114 391.32106 73.15863 391.19264 C 75.76611 391.0642 78.379909 391 81 391 C 83.620098 391 86.23389 391.0642 88.84137 391.1926 C 91.44885 391.32106 94.03747 391.51304 96.607219 391.7686 C 99.17697 392.02418 101.71549 392.34214 104.22277 392.7224 C 106.73005 393.1027 109.194019 393.5435 111.61466 394.0448 C 114.03532 394.54615 116.401 395.1056 118.71172 395.72319 C 121.022449 396.3407 123.267078 397.01338 125.4456 397.74119 C 127.62414 398.46903 129.72609 399.24848 131.75145 400.07957 C 133.77683 400.91065 135.71585 401.78938 137.56853 402.7157 C 139.42122 403.64207 141.17865 404.61158 142.84084 405.62428 C 144.50299 406.63697 146.0619 407.68794 147.51755 408.7772 C 148.97319 409.86647 150.31858 410.98878 151.55368 412.1441 C 152.78879 413.29948 153.90767 414.4823 154.91034 415.6926 C 155.91301 416.90296 156.79465 418.13496 157.55522 419.3886 C 158.3158 420.64225 158.95166 421.91148 159.4628 423.19636 C 159.97399 424.48124 160.35797 425.77555 160.61479 427.0793 C 160.8716 428.38307 161 429.68998 161 431 Z "/>
<text xml:space="preserve" transform="matrix(.7180068 0 0 .7180068 0 0)" font-size="16" font-family="TimesNewRomanPSMT"><tspan y="437" x="22.578125 34.130128 40.354127 47.458127 55.458127 59.458127 71.010128 78.11413 86.11413 93.21813 101.21813 109.21813 116.322139 124.322139 131.42613">Used Dependency</tspan></text>
<path transform="matrix(.7180068,0,0,.7180068,.3590034,.3590034)" stroke-width="1" stroke-linecap="butt" stroke-miterlimit="10" stroke-linejoin="miter" fill="none" stroke="#000000" d="M 281 271 L 334.63 271 "/>
<path transform="matrix(.7180068,0,0,.7180068,.3590034,.3590034)" d="M 339.88 271 L 332.88 274.5 L 334.63 271 L 332.88 267.5 L 339.88 271 Z "/>
<path transform="matrix(.7180068,0,0,.7180068,.3590034,.3590034)" stroke-width="1" stroke-linecap="butt" stroke-miterlimit="10" stroke-linejoin="miter" fill="none" stroke="#000000" d="M 339.88 271 L 332.88 274.5 L 334.63 271 L 332.88 267.5 L 339.88 271 Z "/>
<g id="Layer-1" data-name="Span">
</g>
<text xml:space="preserve" transform="matrix(.7180068 0 0 .7180068 0 0)" font-size="11" font-family="ArialMT"><tspan y="226" x="311.5"> </tspan></text>
<g id="Layer-1" data-name="Span">
</g>
<text xml:space="preserve" transform="matrix(.7180068 0 0 .7180068 0 0)" font-size="16" font-family="TimesNewRomanPSMT"><tspan y="244" x="267.95314 282.17713 289.28114 293.72914 301.72914 309.72914 317.72914 321.72914 328.83314 335.93714 340.38514 344.83314 351.05714">Method calls </tspan></text>
<g id="Layer-1" data-name="Span">
</g>
<text xml:space="preserve" transform="matrix(.7180068 0 0 .7180068 0 0)" font-size="16" font-family="TimesNewRomanPSMT"><tspan y="244" x="355.04689"> </tspan></text>
<text xml:space="preserve" transform="matrix(.7180068 0 0 .7180068 0 0)" font-size="16" font-family="TimesNewRomanPSMT"><tspan y="263" x="279.96876 287.96876 295.07276 302.17677 307.50477 314.60877 321.71278 327.93678 335.04078">decreased</tspan></text>
<g id="Layer-1" data-name="Span">
</g>
<text xml:space="preserve" transform="matrix(.7180068 0 0 .7180068 0 0)" font-size="11" font-family="ArialMT"><tspan y="263" x="343.03126"> </tspan></text>
<path transform="matrix(.7180068,0,0,.7180068,.3590034,.3590034)" stroke-width="1" stroke-linecap="butt" stroke-miterlimit="10" stroke-linejoin="miter" fill="none" stroke="#000000" d="M 181 341 L 181 366 L 81 366 L 81 382.88 "/>
<path transform="matrix(.7180068,0,0,.7180068,.3590034,.3590034)" d="M 81 389.88 L 78.67 382.88 L 83.33 382.88 L 81 389.88 Z "/>
<path transform="matrix(.7180068,0,0,.7180068,.3590034,.3590034)" stroke-width="1" stroke-linecap="butt" stroke-miterlimit="10" stroke-linejoin="miter" fill="none" stroke="#000000" d="M 81 389.88 L 78.67 382.88 L 83.33 382.88 L 81 389.88 Z "/>
<path transform="matrix(.7180068,0,0,.7180068,.3590034,.3590034)" stroke-width="1" stroke-linecap="butt" stroke-miterlimit="10" stroke-linejoin="miter" fill="none" stroke="#000000" d="M 181 341 L 181 366 L 441 366 L 441 382.88 "/>
<path transform="matrix(.7180068,0,0,.7180068,.3590034,.3590034)" d="M 441 389.88 L 438.67 382.88 L 443.33 382.88 L 441 389.88 Z "/>
<path transform="matrix(.7180068,0,0,.7180068,.3590034,.3590034)" stroke-width="1" stroke-linecap="butt" stroke-miterlimit="10" stroke-linejoin="miter" fill="none" stroke="#000000" d="M 441 389.88 L 438.67 382.88 L 443.33 382.88 L 441 389.88 Z "/>
<path transform="matrix(.7180068,0,0,.7180068,.3590034,.3590034)" d="M 181 201 L 281 271 L 181 341 L 81 271 L 181 201 Z " fill="#ffffff"/>
<path transform="matrix(.7180068,0,0,.7180068,.3590034,.3590034)" stroke-width="1" stroke-linecap="butt" stroke-miterlimit="10" stroke-linejoin="miter" fill="none" stroke="#000000" d="M 181 201 L 281 271 L 181 341 L 81 271 L 181 201 Z "/>
<g id="Layer-1" data-name="Span">
</g>
<text xml:space="preserve" transform="matrix(.7180068 0 0 .7180068 0 0)" font-size="16" font-family="TimesNewRomanPSMT"><tspan y="258" x="121 132.552 140.552 145 149 160.552 168.552 180.104 184.104 192.104 200.104 207.20801 213.432 217.432 221.88 229.88 236.98401">Q2: How does the </tspan></text>
<g id="Layer-1" data-name="Span">
</g>
<text xml:space="preserve" transform="matrix(.7180068 0 0 .7180068 0 0)" font-size="16" font-family="TimesNewRomanPSMT"><tspan y="277" x="103.6875 116.1355 123.2395 127.6875 135.6875 143.6875 151.6875 155.6875 162.7915 169.89551 174.3435 178.7915 185.0155 189.0155 197.0155 204.1195 209.44751 217.44751">method calls vary </tspan></text>
<g id="Layer-1" data-name="Span">
</g>
<text xml:space="preserve" transform="matrix(.7180068 0 0 .7180068 0 0)" font-size="16" font-family="TimesNewRomanPSMT"><tspan y="277" x="221.42188 227.64588 232.09387 240.09387 247.19788 254.30188">since </tspan></text>
<text xml:space="preserve" transform="matrix(.7180068 0 0 .7180068 0 0)" font-size="16" font-family="TimesNewRomanPSMT"><tspan y="296" x="128.35938 135.46338 142.56739 147.89539 152.34339 156.79138 163.89539 169.22339 173.22339 181.22339 188.3274 193.6554 199.8794 204.3274 212.3274 220.3274 226.55139">earlier versions?</tspan></text>
<path transform="matrix(.7180068,0,0,.7180068,.3590034,.3590034)" d="M 521 431 C 521 432.31007 520.8716 433.61695 520.61477 434.9207 C 520.3579 436.22444 519.97396 437.5187 519.46279 438.80357 C 518.9516 440.08845 518.31576 441.35774 517.5552 442.61137 C 516.7946 443.865 515.91299 445.09696 514.9103 446.30726 C 513.90768 447.5176 512.78878 448.70048 511.55366 449.85585 C 510.3185 451.0112 508.9731 452.13349 507.51747 453.22276 C 506.06187 454.31205 504.50297 455.36305 502.8408 456.37574 C 501.17863 457.3884 499.42118 458.3579 497.56849 459.28425 C 495.7158 460.2106 493.7768 461.08934 491.75144 461.9204 C 489.72605 462.7515 487.62409 463.53096 485.44554 464.25877 C 483.26704 464.9866 481.0224 465.6593 478.71168 466.27684 C 476.40095 466.8944 474.03526 467.45384 471.61457 467.95515 C 469.19395 468.4565 466.73 468.8973 464.22273 469.2776 C 461.71543 469.65788 459.1769 469.9758 456.60719 470.23136 C 454.03746 470.48695 451.44883 470.67897 448.84138 470.8074 C 446.2339 470.9358 443.6201 471 441 471 C 438.3799 471 435.7661 470.9358 433.1586 470.80738 C 430.55116 470.67897 427.96253 470.48695 425.39274 470.23136 C 422.823 469.97578 420.2845 469.65785 417.7772 469.27757 C 415.2699 468.89729 412.80595 468.45646 410.38526 467.9551 C 407.96464 467.4538 405.59895 466.89436 403.28825 466.27684 C 400.9775 465.6593 398.73289 464.9866 396.55436 464.25877 C 394.37586 463.53096 392.27394 462.7515 390.24858 461.92039 C 388.2232 461.08934 386.28416 460.2106 384.43147 459.28425 C 382.57878 458.3579 380.82136 457.3884 379.15919 456.3757 C 377.49699 455.36305 375.93806 454.31205 374.4824 453.22279 C 373.02674 452.1335 371.68138 451.0112 370.4463 449.85585 C 369.21116 448.70048 368.09226 447.5176 367.0896 446.30726 C 366.08695 445.09696 365.20533 443.865 364.44474 442.61137 C 363.6842 441.35774 363.04835 440.08845 362.53718 438.80357 C 362.02604 437.5187 361.64207 436.22444 361.38526 434.9207 C 361.12846 433.61695 361.00004 432.31007 361 431 C 361.00004 429.68998 361.12846 428.38307 361.38526 427.0793 C 361.64207 425.77555 362.02604 424.48124 362.53718 423.19636 C 363.04835 421.91148 363.6842 420.64225 364.44477 419.3886 C 365.20533 418.13499 366.08695 416.90299 367.0896 415.69264 C 368.09226 414.48234 369.21116 413.29948 370.44627 412.1441 C 371.68138 410.98875 373.02674 409.86643 374.48237 408.77714 C 375.93803 407.68788 377.49699 406.6369 379.15919 405.62425 C 380.82136 404.61158 382.57878 403.64207 384.43147 402.7157 C 386.28416 401.78938 388.22319 400.91065 390.24855 400.07957 C 392.2739 399.24848 394.37586 398.46903 396.55436 397.74119 C 398.73289 397.01338 400.9775 396.3407 403.28825 395.72315 C 405.59895 395.1056 407.96464 394.54615 410.38529 394.04478 C 412.80598 393.54347 415.26994 393.10267 417.7772 392.72239 C 420.2845 392.3421 422.823 392.02418 425.39274 391.7686 C 427.96253 391.51304 430.55116 391.32106 433.15864 391.19264 C 435.7661 391.0642 438.3799 391 441 391 C 443.6201 391 446.2339 391.0642 448.84138 391.1926 C 451.44883 391.32106 454.03746 391.51304 456.60719 391.7686 C 459.17695 392.02418 461.71546 392.34214 464.22276 392.7224 C 466.73005 393.1027 469.194 393.5435 471.61463 394.0448 C 474.0353 394.54615 476.401 395.1056 478.7117 395.72319 C 481.02244 396.3407 483.26707 397.01338 485.44557 397.74119 C 487.62409 398.46903 489.72605 399.24848 491.7514 400.07957 C 493.77677 400.91065 495.7158 401.78938 497.56849 402.7157 C 499.42118 403.64207 501.17863 404.61158 502.8408 405.62428 C 504.50297 406.63697 506.06187 407.68794 507.51747 408.7772 C 508.9731 409.86647 510.3185 410.98878 511.55366 412.1441 C 512.78878 413.29948 513.90768 414.4823 514.9103 415.6926 C 515.91299 416.90296 516.7946 418.13496 517.5552 419.3886 C 518.31576 420.64225 518.9516 421.91148 519.46279 423.19636 C 519.97396 424.48124 520.3579 425.77555 520.61477 427.0793 C 520.8716 428.38307 521 429.68998 521 431 Z " fill="#ffe6cc"/>
<path transform="matrix(.7180068,0,0,.7180068,.3590034,.3590034)" stroke-width="1" stroke-linecap="butt" stroke-miterlimit="4" stroke-linejoin="miter" fill="none" stroke="#d79b00" d="M 521 431 C 521 432.31007 520.8716 433.61695 520.61477 434.9207 C 520.3579 436.22444 519.97396 437.5187 519.46279 438.80357 C 518.9516 440.08845 518.31576 441.35774 517.5552 442.61137 C 516.7946 443.865 515.91299 445.09696 514.9103 446.30726 C 513.90768 447.5176 512.78878 448.70048 511.55366 449.85585 C 510.3185 451.0112 508.9731 452.13349 507.51747 453.22276 C 506.06187 454.31205 504.50297 455.36305 502.8408 456.37574 C 501.17863 457.3884 499.42118 458.3579 497.56849 459.28425 C 495.7158 460.2106 493.7768 461.08934 491.75144 461.9204 C 489.72605 462.7515 487.62409 463.53096 485.44554 464.25877 C 483.26704 464.9866 481.0224 465.6593 478.71168 466.27684 C 476.40095 466.8944 474.03526 467.45384 471.61457 467.95515 C 469.19395 468.4565 466.73 468.8973 464.22273 469.2776 C 461.71543 469.65788 459.1769 469.9758 456.60719 470.23136 C 454.03746 470.48695 451.44883 470.67897 448.84138 470.8074 C 446.2339 470.9358 443.6201 471 441 471 C 438.3799 471 435.7661 470.9358 433.1586 470.80738 C 430.55116 470.67897 427.96253 470.48695 425.39274 470.23136 C 422.823 469.97578 420.2845 469.65785 417.7772 469.27757 C 415.2699 468.89729 412.80595 468.45646 410.38526 467.9551 C 407.96464 467.4538 405.59895 466.89436 403.28825 466.27684 C 400.9775 465.6593 398.73289 464.9866 396.55436 464.25877 C 394.37586 463.53096 392.27394 462.7515 390.24858 461.92039 C 388.2232 461.08934 386.28416 460.2106 384.43147 459.28425 C 382.57878 458.3579 380.82136 457.3884 379.15919 456.3757 C 377.49699 455.36305 375.93806 454.31205 374.4824 453.22279 C 373.02674 452.1335 371.68138 451.0112 370.4463 449.85585 C 369.21116 448.70048 368.09226 447.5176 367.0896 446.30726 C 366.08695 445.09696 365.20533 443.865 364.44474 442.61137 C 363.6842 441.35774 363.04835 440.08845 362.53718 438.80357 C 362.02604 437.5187 361.64207 436.22444 361.38526 434.9207 C 361.12846 433.61695 361.00004 432.31007 361 431 C 361.00004 429.68998 361.12846 428.38307 361.38526 427.0793 C 361.64207 425.77555 362.02604 424.48124 362.53718 423.19636 C 363.04835 421.91148 363.6842 420.64225 364.44477 419.3886 C 365.20533 418.13499 366.08695 416.90299 367.0896 415.69264 C 368.09226 414.48234 369.21116 413.29948 370.44627 412.1441 C 371.68138 410.98875 373.02674 409.86643 374.48237 408.77714 C 375.93803 407.68788 377.49699 406.6369 379.15919 405.62425 C 380.82136 404.61158 382.57878 403.64207 384.43147 402.7157 C 386.28416 401.78938 388.22319 400.91065 390.24855 400.07957 C 392.2739 399.24848 394.37586 398.46903 396.55436 397.74119 C 398.73289 397.01338 400.9775 396.3407 403.28825 395.72315 C 405.59895 395.1056 407.96464 394.54615 410.38529 394.04478 C 412.80598 393.54347 415.26994 393.10267 417.7772 392.72239 C 420.2845 392.3421 422.823 392.02418 425.39274 391.7686 C 427.96253 391.51304 430.55116 391.32106 433.15864 391.19264 C 435.7661 391.0642 438.3799 391 441 391 C 443.6201 391 446.2339 391.0642 448.84138 391.1926 C 451.44883 391.32106 454.03746 391.51304 456.60719 391.7686 C 459.17695 392.02418 461.71546 392.34214 464.22276 392.7224 C 466.73005 393.1027 469.194 393.5435 471.61463 394.0448 C 474.0353 394.54615 476.401 395.1056 478.7117 395.72319 C 481.02244 396.3407 483.26707 397.01338 485.44557 397.74119 C 487.62409 398.46903 489.72605 399.24848 491.7514 400.07957 C 493.77677 400.91065 495.7158 401.78938 497.56849 402.7157 C 499.42118 403.64207 501.17863 404.61158 502.8408 405.62428 C 504.50297 406.63697 506.06187 407.68794 507.51747 408.7772 C 508.9731 409.86647 510.3185 410.98878 511.55366 412.1441 C 512.78878 413.29948 513.90768 414.4823 514.9103 415.6926 C 515.91299 416.90296 516.7946 418.13496 517.5552 419.3886 C 518.31576 420.64225 518.9516 421.91148 519.46279 423.19636 C 519.97396 424.48124 520.3579 425.77555 520.61477 427.0793 C 520.8716 428.38307 521 429.68998 521 431 Z "/>
<text xml:space="preserve" transform="matrix(.7180068 0 0 .7180068 0 0)" font-size="16" font-family="TimesNewRomanPSMT"><tspan y="427" x="372.125 383.677 390.781 397.885 405.885 409.885 416.989 424.989 432.989 437.437 441.885 446.333 454.333 462.333 469.437 473.885 477.885 484.109 488.557 495.661 503.661">Need additional steps</tspan></text>
<text xml:space="preserve" transform="matrix(.7180068 0 0 .7180068 0 0)" font-size="16" font-family="TimesNewRomanPSMT"><tspan y="447" x="390.125 401.677 406.125 410.573 418.573 422.573 430.573 437.677 445.677 452.781 457.229 465.229 473.229 480.333 485.661">with developers</tspan></text>
<path transform="matrix(.7180068,0,0,.7180068,.3590034,.3590034)" stroke-width="1" stroke-linecap="butt" stroke-miterlimit="10" stroke-linejoin="miter" fill="none" stroke="#000000" d="M 541 271 L 571 271 L 571 360 C 578.8 360 578.8 372 571 372 L 571 431 L 712.88 431 "/>
<path transform="matrix(.7180068,0,0,.7180068,.3590034,.3590034)" d="M 719.88 431 L 712.88 433.33 L 712.88 428.67 L 719.88 431 Z "/>
<path transform="matrix(.7180068,0,0,.7180068,.3590034,.3590034)" stroke-width="1" stroke-linecap="butt" stroke-miterlimit="10" stroke-linejoin="miter" fill="none" stroke="#000000" d="M 719.88 431 L 712.88 433.33 L 712.88 428.67 L 719.88 431 Z "/>
<text xml:space="preserve" transform="matrix(.7180068 0 0 .7180068 0 0)" font-size="16" font-family="TimesNewRomanPSMT"><tspan y="263" x="535.0781 543.7344 551.7344 559.7344 566.8384 570.8384 578.8384 582.8384 588.1664">Type 5 (T</tspan></text>
<text xml:space="preserve" transform="matrix(.7180068 0 0 .7180068 0 0)" font-size="13.33" font-family="TimesNewRomanPSMT"><tspan y="267" x="597.9375">5</tspan></text>
<text xml:space="preserve" transform="matrix(.7180068 0 0 .7180068 0 0)" font-size="16" font-family="TimesNewRomanPSMT"><tspan y="263" x="604.59378">)</tspan></text>
<path transform="matrix(.7180068,0,0,.7180068,.3590034,.3590034)" stroke-width="1" stroke-linecap="butt" stroke-miterlimit="10" stroke-linejoin="miter" fill="none" stroke="#000000" d="M 441 341 L 441 382.88 "/>
<path transform="matrix(.7180068,0,0,.7180068,.3590034,.3590034)" d="M 441 389.88 L 438.67 382.88 L 443.33 382.88 L 441 389.88 Z "/>
<path transform="matrix(.7180068,0,0,.7180068,.3590034,.3590034)" stroke-width="1" stroke-linecap="butt" stroke-miterlimit="10" stroke-linejoin="miter" fill="none" stroke="#000000" d="M 441 389.88 L 438.67 382.88 L 443.33 382.88 L 441 389.88 Z "/>
<path transform="matrix(.7180068,0,0,.7180068,.3590034,.3590034)" d="M 441 201 L 541 271 L 441 341 L 341 271 L 441 201 Z " fill="#ffffff"/>
<path transform="matrix(.7180068,0,0,.7180068,.3590034,.3590034)" stroke-width="1" stroke-linecap="butt" stroke-miterlimit="10" stroke-linejoin="miter" fill="none" stroke="#000000" d="M 441 201 L 541 271 L 441 341 L 341 271 L 441 201 Z "/>
<g id="Layer-1" data-name="Span">
</g>
<text xml:space="preserve" transform="matrix(.7180068 0 0 .7180068 0 0)" font-size="16" font-family="TimesNewRomanPSMT"><tspan y="248" x="388.5625 400.1145 408.1145 412.5625 416.5625 431.6665 439.6665 446.7705 451.2185 455.2185 459.6665 465.8905 469.8905 474.3385 482.3385 489.4425">Q3: What is the </tspan></text>
<g id="Layer-1" data-name="Span">
</g>
<text xml:space="preserve" transform="matrix(.7180068 0 0 .7180068 0 0)" font-size="16" font-family="ArialMT"><tspan y="248" x="493.42189"> </tspan></text>
<text xml:space="preserve" transform="matrix(.7180068 0 0 .7180068 0 0)" font-size="16" font-family="TimesNewRomanPSMT"><tspan y="267" x="357.46876 364.57276 369.90077 374.34877 378.79676 384.12477 391.22877 398.33277 402.78077 406.78077 411.22877 419.22877 427.22877 434.33277 438.33277 446.33277 451.66078 455.66078 460.10877 468.10877 475.21278 479.21278 487.21278 495.21278 503.21278 509.43678 516.5408">artifact type of the unused</tspan></text>
<text xml:space="preserve" transform="matrix(.7180068 0 0 .7180068 0 0)" font-size="16" font-family="TimesNewRomanPSMT"><tspan y="287" x="365.01564 373.01564 380.11964 388.11964 395.22364 403.22364 411.22364 418.32765 426.32765 433.43165 441.43165 445.43165 449.87965 457.87965 461.87965 469.87965 475.20765 482.31166 490.31166 494.75965 502.75965 510.75965">dependency in previous</tspan></text>
<text xml:space="preserve" transform="matrix(.7180068 0 0 .7180068 0 0)" font-size="16" font-family="TimesNewRomanPSMT"><tspan y="306" x="410.78126 418.78126 425.88526 431.21327 437.43727 441.88526 449.88526 457.88526 464.10926">versions?</tspan></text>
<g id="Layer-1" data-name="Span">
</g>
<text xml:space="preserve" transform="matrix(.7180068 0 0 .7180068 0 0)" font-size="16" font-family="ArialMT"><tspan y="306" x="471.20314"> </tspan></text>
<path transform="matrix(.7180068,0,0,.7180068,.3590034,.3590034)" stroke-width="1" stroke-linecap="butt" stroke-miterlimit="10" stroke-linejoin="miter" fill="none" stroke="#000000" d="M 441 340 L 441 357.88 "/>
<path transform="matrix(.7180068,0,0,.7180068,.3590034,.3590034)" d="M 441 364.88 L 438.67 357.88 L 443.33 357.88 L 441 364.88 Z "/>
<path transform="matrix(.7180068,0,0,.7180068,.3590034,.3590034)" stroke-width="1" stroke-linecap="butt" stroke-miterlimit="10" stroke-linejoin="miter" fill="none" stroke="#000000" d="M 441 364.88 L 438.67 357.88 L 443.33 357.88 L 441 364.88 Z "/>
<g id="Layer-1" data-name="Span">
</g>
<text xml:space="preserve" transform="matrix(.7180068 0 0 .7180068 0 0)" font-size="5" font-family="ArialMT"><tspan y="342" x="471.5"> </tspan></text>
<text xml:space="preserve" transform="matrix(.7180068 0 0 .7180068 0 0)" font-size="16" font-family="TimesNewRomanPSMT"><tspan y="358" x="444.42189">T</tspan></text>
<text xml:space="preserve" transform="matrix(.7180068 0 0 .7180068 0 0)" font-size="13.33" font-family="TimesNewRomanPSMT"><tspan y="362" x="454.1875">3</tspan></text>
<text xml:space="preserve" transform="matrix(.7180068 0 0 .7180068 0 0)" font-size="16" font-family="TimesNewRomanPSMT"><tspan y="358" x="460.84376 464.84376 472.84376 478.17176 482.17176"> or T</tspan></text>
<text xml:space="preserve" transform="matrix(.7180068 0 0 .7180068 0 0)" font-size="13.33" font-family="TimesNewRomanPSMT"><tspan y="362" x="491.9375">4</tspan></text>
<g id="Layer-1" data-name="Span">
</g>
<text xml:space="preserve" transform="matrix(.7180068 0 0 .7180068 0 0)" font-size="5" font-family="ArialMT"><tspan y="358" x="498.59376"> </tspan></text>
<path transform="matrix(.7180068,0,0,.7180068,.3590034,.3590034)" stroke-width="1" stroke-linecap="butt" stroke-miterlimit="10" stroke-linejoin="miter" fill="none" stroke="#000000" d="M 181 366 L 432.88 366 "/>
<path transform="matrix(.7180068,0,0,.7180068,.3590034,.3590034)" d="M 439.88 366 L 432.88 368.33 L 432.88 363.67 L 439.88 366 Z "/>
<path transform="matrix(.7180068,0,0,.7180068,.3590034,.3590034)" stroke-width="1" stroke-linecap="butt" stroke-miterlimit="10" stroke-linejoin="miter" fill="none" stroke="#000000" d="M 439.88 366 L 432.88 368.33 L 432.88 363.67 L 439.88 366 Z "/>
<path transform="matrix(.7180068,0,0,.7180068,.3590034,.3590034)" stroke-width="1" stroke-linecap="butt" stroke-miterlimit="10" stroke-linejoin="miter" fill="none" stroke="#000000" d="M 701 366 L 449.12 366 "/>
<path transform="matrix(.7180068,0,0,.7180068,.3590034,.3590034)" d="M 442.12 366 L 449.12 363.67 L 449.12 368.33 L 442.12 366 Z "/>
<path transform="matrix(.7180068,0,0,.7180068,.3590034,.3590034)" stroke-width="1" stroke-linecap="butt" stroke-miterlimit="10" stroke-linejoin="miter" fill="none" stroke="#000000" d="M 442.12 366 L 449.12 363.67 L 449.12 368.33 L 442.12 366 Z "/>
<text xml:space="preserve" transform="matrix(.7180068 0 0 .7180068 0 0)" font-size="16" font-family="TimesNewRomanPSMT"><tspan y="358" x="641.4219">T</tspan></text>
<text xml:space="preserve" transform="matrix(.7180068 0 0 .7180068 0 0)" font-size="13.33" font-family="TimesNewRomanPSMT"><tspan y="362" x="651.1875">1</tspan></text>
<text xml:space="preserve" transform="matrix(.7180068 0 0 .7180068 0 0)" font-size="16" font-family="TimesNewRomanPSMT"><tspan y="358" x="657.84378 661.84378 669.84378 675.17178 679.17178"> or T</tspan></text>
<text xml:space="preserve" transform="matrix(.7180068 0 0 .7180068 0 0)" font-size="13.33" font-family="TimesNewRomanPSMT"><tspan y="362" x="688.9375">2</tspan></text>
<text xml:space="preserve" transform="matrix(.7180068 0 0 .7180068 0 0)" font-size="16" font-family="TimesNewRomanPSMT"><tspan y="165" x="456.89064 465.54689 473.54689 481.54689 488.65089 492.65089 500.65089 504.65089 512.6509 517.9789 521.9789 530.6328 538.6328 546.6328 553.7368 557.7368 565.7368 569.7368 575.0648">Type 1 or Type 2 (T</tspan></text>
<text xml:space="preserve" transform="matrix(.7180068 0 0 .7180068 0 0)" font-size="11.11" font-family="TimesNewRomanPSMT"><tspan y="168" x="584.8281">1</tspan></text>
<text xml:space="preserve" transform="matrix(.7180068 0 0 .7180068 0 0)" font-size="16" font-family="TimesNewRomanPSMT"><tspan y="165" x="590.375 594.375 598.375">, T</tspan></text>
<text xml:space="preserve" transform="matrix(.7180068 0 0 .7180068 0 0)" font-size="13.33" font-family="TimesNewRomanPSMT"><tspan y="169" x="608.1406">2</tspan></text>
<text xml:space="preserve" transform="matrix(.7180068 0 0 .7180068 0 0)" font-size="16" font-family="TimesNewRomanPSMT"><tspan y="165" x="614.7969">)</tspan></text>
<g id="Layer-1" data-name="Span">
</g>
<text xml:space="preserve" transform="matrix(.7180068 0 0 .7180068 0 0)" font-size="16" font-family="TimesNewRomanPSMT"><tspan y="343" x="202.45313 216.67713 223.78113 228.22913 236.22913 244.22913 252.22913 256.22914 263.33314 270.43714 274.88514 279.33314 285.55714">Method calls </tspan></text>
<g id="Layer-1" data-name="Span">
</g>
<text xml:space="preserve" transform="matrix(.7180068 0 0 .7180068 0 0)" font-size="16" font-family="TimesNewRomanPSMT"><tspan y="343" x="289.54689"> </tspan></text>
<text xml:space="preserve" transform="matrix(.7180068 0 0 .7180068 0 0)" font-size="16" font-family="TimesNewRomanPSMT"><tspan y="362" x="211.34375 219.34375 227.34375 234.44776 242.44776 249.55176 257.55177 265.55177 272.65577">unchanged</tspan></text>
<path transform="matrix(.7180068,0,0,.7180068,0,0)" d="M 54 329 L 138 329 L 138 346 L 54 346 Z " fill="#f8f9fa"/>
<text xml:space="preserve" transform="matrix(.7180068 0 0 .7180068 0 0)" font-size="16" font-family="TimesNewRomanPSMT"><tspan y="343" x="54.4375 68.6615 75.7655 80.2135 88.2135 96.2135 104.2135 108.2135 115.317508 122.42151 126.86951 131.3175">Method calls</tspan></text>
<g id="Layer-1" data-name="Span">
</g>
<text xml:space="preserve" transform="matrix(.7180068 0 0 .7180068 0 0)" font-size="16" font-family="TimesNewRomanPSMT"><tspan y="343" x="137.53125"> </tspan></text>
<path transform="matrix(.7180068,0,0,.7180068,0,0)" d="M 24 348 L 168 348 L 168 365 L 24 365 Z " fill="#f8f9fa"/>
<text xml:space="preserve" transform="matrix(.7180068 0 0 .7180068 0 0)" font-size="16" font-family="TimesNewRomanPSMT"><tspan y="362" x="24.46875 28.91675 36.916749 44.02075 49.348749 56.452749 63.556749 69.78075 76.88475 84.88475 88.88475 96.88475 102.21275 106.21275 114.21275 120.43675 127.54076 131.98876 136.43675 140.88475 147.98876 152.43675 159.54076">increased or oscillated</tspan></text>
</g>
</g>
</svg>
