<?xml version="1.0" standalone="no"?>
<!DOCTYPE svg PUBLIC "-//W3C//DTD SVG 20010904//EN"
 "http://www.w3.org/TR/2001/REC-SVG-20010904/DTD/svg10.dtd">
<svg version="1.0" xmlns="http://www.w3.org/2000/svg"
 width="905.000000pt" height="1280.000000pt" viewBox="0 0 905.000000 1280.000000"
 preserveAspectRatio="xMidYMid meet">
<metadata>
Created by potrace 1.15, written by Peter Selinger 2001-2017
</metadata>
<g transform="translate(0.000000,1280.000000) scale(0.100000,-0.100000)"
fill="#5B3D23" stroke="none">
<path d="M4405 10574 c-194 -34 -313 -82 -455 -182 -225 -159 -365 -371 -431
-652 -30 -127 -37 -404 -14 -541 52 -316 246 -669 571 -1044 l60 -70 -120 0
c-135 -1 -210 -17 -310 -66 -85 -42 -137 -88 -171 -150 -25 -46 -30 -68 -33
-145 -9 -201 81 -317 248 -318 161 -2 264 102 226 228 -18 60 -30 74 -71 82
-53 10 -91 -17 -109 -75 -30 -100 -73 -151 -129 -151 -61 0 -127 113 -129 218
-1 54 48 156 97 205 132 130 423 138 632 17 54 -31 161 -125 192 -169 l19 -27
-66 -2 c-85 -3 -117 -9 -167 -34 -69 -35 -71 -39 -28 -66 21 -13 74 -41 117
-63 98 -48 134 -49 252 -10 l87 30 131 -108 c288 -237 564 -441 860 -637 l180
-119 -50 -13 c-27 -7 -96 -29 -154 -48 -58 -20 -112 -38 -121 -40 -11 -4 -20
7 -33 40 -24 62 -56 86 -118 86 -102 0 -191 -76 -262 -222 -24 -51 -55 -130
-67 -175 -17 -65 -26 -83 -40 -83 -13 0 -20 10 -24 38 -49 308 -137 442 -291
442 -118 0 -183 -62 -170 -161 l6 -47 -59 14 c-62 14 -104 11 -132 -9 -60 -45
-71 -156 -25 -251 30 -61 138 -170 235 -235 52 -36 61 -46 55 -64 -3 -12 -7
-23 -8 -24 -1 -1 -58 3 -127 9 -98 9 -138 9 -185 -1 -136 -29 -205 -91 -212
-190 -8 -109 39 -181 119 -181 25 0 38 -4 34 -10 -4 -6 -10 -8 -15 -5 -4 3 -7
-1 -7 -8 1 -6 -9 -34 -22 -61 -16 -35 -21 -57 -17 -82 9 -44 48 -90 91 -106
40 -14 40 -10 17 -145 -19 -111 -26 -128 -36 -88 -28 112 -144 162 -235 102
-22 -15 -43 -27 -46 -27 -3 0 -5 19 -5 43 -1 62 -32 125 -72 141 -29 13 -38
26 -77 125 -24 61 -85 202 -136 313 -51 112 -91 206 -89 210 3 4 41 -11 87
-32 126 -58 168 -65 247 -41 77 24 127 58 157 109 43 70 20 170 -51 229 l-37
30 24 7 c14 3 39 18 57 32 103 87 71 222 -67 274 -124 46 -249 46 -452 -1 -67
-15 -86 -17 -93 -7 -4 7 -8 16 -8 19 0 3 36 34 81 69 191 151 266 291 230 428
-21 76 -110 151 -181 152 -29 0 -88 -33 -112 -63 l-16 -22 -7 30 c-36 161
-105 216 -208 166 -126 -61 -224 -253 -228 -444 -1 -72 -11 -98 -37 -108 -20
-8 -25 -5 -34 24 -27 76 -120 246 -162 293 -61 69 -128 98 -211 92 -128 -11
-210 -90 -185 -178 5 -16 7 -30 5 -30 -3 0 -60 9 -127 20 -435 70 -754 22
-1051 -157 -190 -115 -323 -250 -402 -408 -56 -114 -77 -202 -77 -330 0 -117
21 -195 79 -294 43 -72 152 -180 215 -212 171 -87 381 -90 526 -7 81 46 173
137 208 205 27 54 29 66 29 173 0 109 -2 118 -33 185 -59 124 -114 165 -225
165 -73 0 -116 -22 -154 -79 -44 -66 -56 -165 -27 -227 19 -40 78 -94 102 -94
13 0 9 7 -14 28 -45 38 -54 61 -54 137 0 128 47 179 159 172 59 -3 66 -6 101
-43 30 -32 41 -56 54 -112 23 -101 21 -120 -24 -210 -109 -218 -322 -291 -543
-185 -200 96 -289 251 -273 473 12 180 93 344 244 495 139 140 306 222 525
260 139 24 597 18 623 -7 2 -3 -7 -10 -20 -17 -58 -32 -77 -151 -36 -231 46
-89 184 -193 342 -258 63 -25 68 -29 68 -58 l0 -30 -114 -12 c-244 -26 -362
-96 -397 -234 -22 -90 10 -182 76 -219 33 -18 118 -33 109 -18 -3 5 0 9 5 9
14 0 14 -1 -9 -51 -57 -126 15 -228 161 -229 56 0 77 5 136 35 80 40 169 117
254 221 33 41 65 74 72 74 6 0 3 -6 -6 -13 -16 -11 -15 -12 7 -12 13 0 22 3
19 8 -2 4 2 7 9 7 11 0 8 -25 -14 -112 -33 -129 -46 -292 -29 -353 16 -60 66
-113 135 -146 113 -54 194 -32 240 64 14 29 25 46 26 38 0 -7 6 -11 14 -8 7 3
31 -6 51 -20 83 -56 170 -35 215 52 22 43 25 62 24 145 0 81 -5 107 -32 178
-17 45 -60 128 -97 183 -36 56 -64 104 -61 107 4 3 6 0 6 -7 0 -8 5 -9 18 -2
16 9 24 0 60 -62 61 -107 195 -385 251 -521 l49 -120 -26 -14 c-102 -52 -204
-247 -227 -434 -6 -44 -9 -48 -33 -48 -25 0 -29 5 -44 65 -24 88 -80 209 -124
262 -51 63 -126 103 -190 103 -43 0 -61 -6 -104 -35 l-52 -35 -107 39 c-203
74 -265 86 -461 86 -231 0 -356 -28 -545 -123 -183 -91 -381 -292 -470 -476
-86 -179 -88 -364 -6 -532 47 -94 105 -164 168 -201 54 -32 182 -44 233 -23
43 18 85 70 105 130 19 58 15 98 -15 148 -22 35 -86 70 -102 54 -5 -5 7 -13
30 -20 58 -18 77 -44 76 -107 0 -68 -37 -142 -84 -170 -52 -30 -149 -27 -215
7 -170 87 -271 339 -221 550 37 157 145 334 253 414 142 106 237 160 368 207
136 48 225 61 420 61 205 0 258 -10 436 -86 94 -40 103 -46 122 -85 12 -24 18
-46 14 -49 -4 -4 -52 17 -108 45 -192 100 -297 121 -465 97 -225 -34 -407
-154 -487 -323 -30 -64 -32 -74 -32 -183 0 -110 1 -118 34 -184 39 -81 108
-159 166 -188 62 -32 157 -35 230 -7 74 28 155 105 173 165 26 88 9 179 -44
232 -31 31 -37 33 -90 30 -49 -3 -60 -7 -78 -31 -39 -53 -18 -157 31 -157 11
0 7 9 -10 30 -22 25 -24 34 -17 67 11 46 33 63 82 63 64 0 108 -64 108 -157 0
-66 -60 -161 -127 -200 -59 -34 -166 -39 -226 -9 -66 33 -134 103 -169 174
-30 60 -33 75 -33 158 0 86 2 94 42 176 98 197 261 291 503 291 118 0 206 -19
281 -60 46 -25 62 -43 38 -43 -21 0 -41 -73 -36 -132 11 -122 121 -239 352
-373 12 -7 16 -17 11 -31 -6 -19 -17 -21 -144 -27 -75 -3 -160 -13 -187 -21
-92 -28 -150 -87 -178 -182 -12 -41 -12 -56 -1 -94 20 -67 61 -102 128 -108
l54 -4 -24 -35 c-13 -19 -26 -51 -30 -70 -9 -50 22 -121 66 -151 31 -21 44
-23 115 -20 112 6 192 49 328 177 56 53 96 88 89 79 -11 -14 -11 -16 6 -11 33
8 34 -13 3 -115 -46 -157 -57 -238 -38 -303 24 -82 67 -143 119 -168 91 -44
182 -18 218 62 11 23 20 37 20 31 0 -7 7 -15 16 -18 15 -6 15 -4 3 11 -8 10 6
1 31 -20 51 -43 75 -52 131 -44 47 6 73 27 103 82 18 34 21 56 21 150 0 123
-13 168 -89 331 l-43 90 31 0 c21 0 57 -19 120 -63 110 -78 198 -121 263 -129
26 -3 57 -7 69 -9 11 -3 49 -43 87 -94 97 -129 237 -268 340 -335 161 -106
366 -195 556 -241 l73 -18 -54 -29 c-69 -37 -144 -98 -180 -148 -42 -56 -58
-114 -59 -204 -1 -73 3 -86 40 -162 49 -98 116 -164 193 -190 128 -42 326 20
380 121 47 86 2 242 -85 295 -67 42 -197 14 -236 -50 -49 -81 -31 -171 41
-214 34 -20 45 -22 70 -14 40 14 61 49 53 88 -7 30 -38 60 -62 60 -21 0 -15
-14 10 -25 24 -11 34 -50 18 -74 -14 -22 -71 -18 -91 7 -49 61 -28 147 46 182
100 49 204 -29 204 -151 -1 -99 -82 -170 -204 -177 -53 -3 -68 1 -114 28 -100
59 -145 163 -124 287 21 128 97 220 239 290 l77 38 195 1 c209 0 261 8 431 61
105 33 293 127 368 185 89 68 261 244 335 343 37 50 98 152 137 230 115 232
152 399 152 690 0 121 -5 213 -16 280 -69 415 -289 920 -526 1210 -106 130
-300 304 -433 390 -15 10 -24 22 -20 26 4 4 73 18 153 30 121 19 187 23 395
23 166 1 275 -3 325 -12 227 -40 414 -106 585 -206 188 -110 432 -384 526
-591 72 -160 97 -381 65 -580 -33 -203 -170 -422 -326 -520 -85 -54 -144 -68
-280 -69 -119 -1 -128 0 -178 27 -72 38 -138 101 -170 162 -24 44 -27 61 -27
150 0 91 3 106 32 167 38 80 98 141 160 162 69 24 205 21 259 -4 23 -11 50
-30 60 -41 18 -20 18 -20 -6 -14 -38 9 -111 -33 -133 -75 -23 -44 -18 -121 9
-151 41 -47 129 -63 173 -33 32 23 61 90 61 142 0 75 -52 154 -132 198 -49 27
-61 29 -158 29 -95 0 -111 -3 -167 -29 -77 -35 -152 -112 -179 -181 -15 -39
-19 -75 -19 -161 0 -107 1 -112 38 -187 46 -93 114 -165 194 -203 83 -40 224
-46 341 -14 235 63 437 286 514 565 31 115 31 384 0 497 -88 319 -294 599
-586 793 -320 213 -663 308 -1116 309 -200 0 -283 -7 -500 -41 l-106 -16 -154
103 c-220 147 -601 416 -760 536 -245 185 -500 404 -500 429 0 5 16 48 35 95
19 47 35 99 35 115 1 23 -75 193 -117 264 -2 2 -12 -4 -23 -14 -33 -30 -69
-115 -83 -199 l-13 -79 -21 74 c-12 41 -24 92 -28 114 -12 67 -7 244 10 359
20 147 20 179 -5 201 -26 24 -64 12 -94 -28 -18 -25 -21 -45 -24 -155 -4 -150
16 -265 71 -412 20 -52 35 -96 33 -97 -8 -8 -150 306 -182 402 -32 97 -36 117
-30 173 9 85 34 147 95 238 56 82 60 94 32 94 -32 0 -69 39 -88 93 -15 44 -18
85 -18 269 0 214 -6 269 -19 166 -7 -60 -56 -261 -87 -358 -12 -36 -42 -109
-67 -164 -42 -91 -45 -100 -31 -121 64 -105 80 -140 104 -239 33 -134 84 -283
136 -396 l39 -85 -51 55 c-328 355 -519 760 -519 1101 0 185 42 414 100 536
111 238 305 430 522 516 298 119 689 100 979 -49 186 -96 359 -287 420 -464
30 -87 38 -269 16 -353 -33 -123 -154 -273 -263 -325 -54 -24 -69 -27 -174
-27 -105 0 -120 2 -175 28 -112 52 -149 110 -150 227 0 64 4 82 27 122 38 64
97 92 179 86 76 -6 109 -34 116 -101 5 -41 2 -49 -24 -74 -16 -15 -38 -33 -48
-40 -19 -11 -18 -12 6 -12 14 -1 41 9 60 22 32 22 34 26 37 89 3 59 0 69 -25
98 -59 71 -161 89 -250 45 -122 -61 -175 -240 -107 -364 37 -70 120 -144 192
-173 48 -19 75 -23 172 -23 113 1 116 1 185 38 195 103 304 251 336 459 30
195 -34 408 -185 609 -177 234 -408 373 -705 423 -116 20 -336 20 -446 0z
m-1074 -3578 c-9 -11 -6 -13 14 -11 24 3 24 2 18 -43 -6 -52 -38 -151 -52
-165 -12 -12 -55 5 -96 37 l-29 24 28 43 c16 24 49 63 74 87 44 41 66 56 43
28z m-756 -147 c-16 -8 -14 -8 10 -5 24 4 45 -5 98 -41 37 -25 67 -48 67 -52
-1 -3 -20 -27 -45 -54 l-43 -47 -37 42 c-72 84 -99 169 -52 167 21 0 21 -1 2
-10z m561 -191 c4 -7 3 -8 -4 -4 -8 5 -12 -1 -12 -14 0 -13 4 -19 12 -14 7 4
8 3 4 -5 -10 -15 -26 -4 -26 18 0 28 14 39 26 19z m2942 -101 c96 -62 254
-192 353 -290 206 -205 410 -651 476 -1043 26 -155 26 -542 0 -664 -30 -140
-67 -207 -166 -303 -187 -180 -348 -257 -538 -257 -151 0 -273 46 -379 143
-79 72 -117 155 -122 267 -4 78 -1 97 23 161 62 160 187 230 340 188 79 -22
132 -84 165 -194 21 -71 -20 -136 -97 -151 -24 -5 -35 -1 -52 17 -26 28 -36
80 -22 108 7 12 8 21 3 21 -38 0 -44 -90 -9 -141 20 -30 28 -34 73 -37 61 -4
97 20 125 82 25 56 23 101 -7 166 -51 110 -122 159 -244 167 -73 5 -81 4 -138
-27 -76 -40 -145 -112 -180 -188 -24 -51 -27 -68 -27 -173 0 -113 1 -116 38
-193 101 -203 289 -315 527 -316 86 0 241 22 318 45 29 9 58 13 64 9 6 -4 8
-3 5 3 -4 6 0 13 8 16 10 4 12 1 8 -10 -5 -12 -3 -14 7 -8 31 19 -88 -120
-169 -198 -121 -117 -297 -237 -346 -237 -9 0 -42 14 -75 30 -44 22 -96 66
-197 168 -120 121 -149 144 -220 180 -46 22 -103 44 -128 48 -50 7 -455 -53
-455 -68 0 -4 4 -8 9 -8 11 0 145 -158 190 -223 75 -110 196 -203 301 -231
l55 -15 -85 0 c-195 -2 -465 66 -669 167 -83 41 -257 305 -350 532 -83 200
-79 173 -31 216 112 102 88 199 -71 280 -33 16 -51 32 -55 50 -4 14 -4 103 -1
197 6 179 21 274 69 412 l23 68 81 41 c44 23 113 65 153 94 40 29 70 49 67 44
-3 -6 5 -12 19 -14 21 -4 23 -3 14 9 -9 11 -8 12 5 7 22 -8 21 -11 -24 -113
-114 -260 -87 -410 87 -476 62 -24 104 -14 145 34 18 21 41 37 50 36 12 -2 15
2 11 13 -3 10 6 2 20 -17 56 -73 125 -91 187 -48 48 32 70 67 86 133 18 76 18
138 -1 228 -13 63 -26 106 -70 231 -4 11 -3 15 2 9 4 -6 19 -13 31 -17 23 -6
24 -5 5 16 -10 11 20 -13 67 -54 159 -140 261 -196 336 -184 183 27 263 183
146 286 -20 18 -29 30 -19 26 9 -3 17 -2 17 3 0 6 7 10 15 10 26 0 93 38 109
62 37 53 8 149 -64 211 -71 60 -149 80 -347 85 -169 4 -171 4 -176 27 -3 20 3
27 44 43 76 32 182 97 237 147 88 79 122 182 92 285 -5 19 -6 37 -2 41 6 7
237 77 255 79 5 0 39 -19 75 -43z m-2788 -42 c-13 -16 -75 -22 -66 -6 3 4 17
6 31 4 17 -4 27 0 31 11 4 9 9 15 12 12 3 -3 -1 -12 -8 -21z m-459 -2 c13 -16
12 -17 -3 -4 -10 7 -18 15 -18 17 0 8 8 3 21 -13z m272 -30 c11 -13 26 -23 33
-23 8 0 14 -16 16 -42 2 -35 9 -46 37 -65 39 -26 33 -31 -8 -7 -26 15 -30 15
-56 -2 -25 -16 -27 -22 -21 -62 3 -24 15 -57 27 -73 33 -47 15 -85 -26 -55
-17 12 -18 18 -8 35 22 36 -15 124 -50 119 -30 -4 -69 -82 -63 -125 4 -27 1
-33 -14 -33 -18 0 -17 2 2 63 11 34 22 70 25 80 3 11 -3 27 -17 42 -19 20 -26
22 -48 14 l-27 -10 23 23 c12 14 22 37 22 53 0 36 45 85 76 85 13 0 29 6 36
14 9 10 14 11 17 3 2 -7 13 -22 24 -34z m413 -92 c11 9 30 8 87 -6 117 -28
176 -67 143 -94 -25 -21 -117 -33 -193 -26 l-75 7 6 36 c3 21 6 53 7 72 1 19
3 27 6 17 4 -14 8 -16 19 -6z m1234 -70 c39 -37 70 -72 70 -77 -1 -7 -74 -59
-103 -72 -10 -5 -67 118 -74 161 -5 34 -4 35 22 33 29 -4 22 9 -10 17 -18 4
-18 5 3 6 15 1 45 -21 92 -68z m643 52 c3 6 6 0 6 -14 1 -28 -56 -149 -89
-187 l-19 -23 -50 37 -50 37 19 26 c22 31 86 92 119 114 17 11 29 13 42 7 12
-7 19 -6 22 3z m-2550 -95 c-2 -5 -10 -8 -18 -8 -8 0 -16 3 -18 8 -3 4 5 7 18
7 13 0 21 -3 18 -7z m-180 -135 l35 -52 -41 -20 c-60 -29 -158 -50 -185 -40
-33 12 -27 32 26 82 47 43 122 91 108 68 -4 -6 0 -11 9 -11 12 0 15 5 11 17
-9 23 -4 17 37 -44z m741 -31 c3 -5 -1 -9 -9 -9 -8 0 -12 4 -9 9 3 4 7 8 9 8
2 0 6 -4 9 -8z m1596 -79 c-4 -42 -5 -44 -8 -15 -3 30 2 62 10 62 2 0 1 -21
-2 -47z m-112 -55 c38 -40 40 -41 71 -29 17 8 31 17 31 22 0 5 9 0 21 -12 15
-15 30 -20 50 -17 20 3 26 1 19 -6 -13 -13 -13 -49 0 -62 8 -8 6 -20 -7 -41
-17 -30 -17 -32 7 -67 14 -19 37 -41 53 -47 18 -8 27 -19 27 -33 -1 -17 -12
-8 -58 42 -51 55 -61 63 -84 57 -20 -5 -29 -16 -36 -43 l-10 -37 -1 36 c-1 44
-37 67 -74 48 -21 -12 -21 -11 -4 8 21 24 22 41 0 65 -9 10 -12 18 -6 18 5 0
15 12 22 27 11 24 9 29 -31 70 -23 23 -39 43 -35 43 3 0 24 -19 45 -42z
m-1667 -39 c11 -39 10 -184 -2 -218 -6 -17 -17 -31 -24 -31 -34 0 -84 105
-100 207 -6 40 -5 42 22 48 15 4 34 9 41 11 7 2 22 -1 33 -6 11 -7 19 -7 19
-1 0 5 -5 12 -10 14 -6 3 -5 4 2 3 7 -1 15 -13 19 -27z m2003 -98 c4 -5 -2 -7
-13 -4 -10 3 -22 0 -25 -6 -5 -7 3 -11 18 -11 14 0 26 -4 26 -10 0 -15 -36
-12 -49 3 -8 10 -7 17 1 25 14 14 35 16 42 3z m190 -54 c-3 -8 4 -13 18 -14
18 -2 20 0 8 8 -30 21 35 -3 94 -35 60 -31 106 -79 92 -93 -14 -14 -139 -7
-198 11 l-57 16 14 41 c8 23 15 50 15 60 0 11 4 19 10 19 5 0 7 -6 4 -13z
m-864 -17 c-13 -8 -12 -10 3 -10 9 0 17 6 18 13 0 6 9 -12 20 -41 12 -29 18
-56 14 -60 -4 -4 -47 -9 -96 -10 -75 -3 -90 -1 -95 12 -9 23 19 51 80 81 51
24 85 33 56 15z m441 -143 c-8 -8 -11 -7 -11 4 0 20 13 34 18 19 3 -7 -1 -17
-7 -23z m86 -243 c-6 -62 -52 -167 -70 -161 -22 6 -46 72 -53 145 l-7 72 68 0
68 0 -6 -56z m-1211 -445 c-5 -30 -49 -150 -62 -168 -2 -1 -28 15 -58 37 l-56
40 39 49 c55 70 85 91 117 85 24 -4 26 -8 20 -43z m355 -22 c-10 -9 -11 -8 -5
6 3 10 9 15 12 12 3 -3 0 -11 -7 -18z m-1045 -16 c21 -16 51 -41 66 -57 l26
-29 -40 -45 -40 -45 -29 35 c-25 30 -69 125 -69 149 0 5 12 6 28 4 21 -4 24
-2 12 6 -8 6 -10 11 -4 11 6 0 29 -13 50 -29z m1059 -142 c4 -61 6 -111 4
-113 -2 -2 -39 -6 -81 -9 l-77 -7 -11 56 -12 55 74 78 c59 64 75 75 84 64 7
-8 15 -63 19 -124z m-233 -104 c5 -23 1 -27 -41 -39 -33 -10 -48 -10 -53 -2
-14 21 -8 32 28 49 19 10 33 13 29 7 -3 -5 1 -10 10 -10 11 0 15 5 11 16 -3 8
-2 13 3 10 5 -3 11 -17 13 -31z m-393 -1 c-6 -8 -15 -12 -18 -8 -3 4 0 9 7 11
6 3 9 10 6 15 -4 7 -2 8 5 4 9 -6 9 -11 0 -22z m125 -99 c-13 -10 -15 -14 -5
-15 8 0 12 -2 9 -5 -3 -3 -13 -3 -22 1 -15 6 -15 7 1 20 10 7 22 14 27 14 6 0
1 -7 -10 -15z m27 -8 c-10 -9 -11 -8 -5 6 3 10 9 15 12 12 3 -3 0 -11 -7 -18z
m-141 -37 c11 0 11 -3 2 -12 -19 -19 -14 -59 10 -87 13 -14 16 -20 8 -13 -20
17 -44 15 -64 -7 -19 -21 -14 -90 11 -129 16 -26 11 -52 -10 -52 -25 0 -35 21
-26 53 4 18 5 48 1 67 -6 28 -13 36 -34 38 -21 3 -32 -5 -52 -35 -30 -43 -33
-39 -9 11 16 34 16 37 -2 56 -15 17 -27 20 -55 16 l-35 -6 33 14 c26 12 32 21
32 47 0 18 -7 38 -17 45 -17 13 -17 14 0 8 10 -4 28 -2 40 5 12 6 40 15 62 19
35 8 43 6 66 -15 14 -12 31 -23 39 -23z m341 -99 c7 12 18 11 66 -6 48 -17 61
-27 80 -60 34 -59 31 -65 -31 -65 -49 0 -155 15 -163 24 -2 2 4 31 14 65 10
34 20 54 22 45 2 -14 5 -14 12 -3z m-825 -157 c31 -53 30 -55 -50 -79 -55 -17
-124 -19 -145 -6 -27 17 34 79 124 124 36 18 38 17 71 -39z m308 -15 c-3 -5
-10 -7 -15 -4 -5 4 -9 1 -9 -6 0 -7 -2 -10 -5 -8 -2 3 1 20 7 37 12 30 13 31
20 11 5 -11 5 -25 2 -30z m194 -325 c-3 -67 -9 -99 -22 -119 l-19 -29 -23 27
c-27 31 -41 79 -53 172 -7 63 -7 65 15 65 12 0 37 3 55 6 26 4 30 3 19 -5 -13
-9 -13 -11 3 -11 9 0 18 8 18 18 5 56 10 -48 7 -124z m887 -98 c28 -48 28 -49
4 -33 -27 18 -91 91 -131 151 l-27 40 21 23 21 23 42 -78 c23 -43 54 -99 70
-126z"/>
<path d="M5998 6583 c7 -3 16 -2 19 1 4 3 -2 6 -13 5 -11 0 -14 -3 -6 -6z"/>
<path d="M3080 4290 c-12 -7 -10 -9 7 -7 12 0 19 5 17 9 -6 10 -6 10 -24 -2z"/>
<path d="M4391 3986 c-10 -12 -8 -13 8 -9 12 3 21 9 21 14 0 14 -16 11 -29 -5z"/>
<path d="M3115 8781 c-27 -5 -115 -29 -195 -55 -80 -25 -203 -60 -275 -77
-188 -45 -179 -36 -99 -103 38 -32 76 -63 84 -70 8 -7 37 -40 64 -72 102 -124
236 -213 372 -248 103 -26 207 -20 429 24 256 52 338 58 439 36 43 -10 80 -16
82 -13 9 8 -144 187 -240 282 -140 139 -278 236 -392 277 -65 23 -187 32 -269
19z"/>
<path d="M3577 5999 c7 -7 15 -10 18 -7 3 3 -2 9 -12 12 -14 6 -15 5 -6 -5z"/>
<path d="M4330 3436 c-105 -29 -152 -65 -373 -283 l-214 -212 41 -9 c22 -6
121 -31 219 -56 132 -34 196 -46 250 -46 139 1 289 75 445 222 148 139 286
227 360 228 101 1 -162 98 -394 146 -131 26 -261 30 -334 10z"/>
<path d="M5130 3186 c-19 -7 -78 -35 -130 -61 -230 -115 -330 -211 -332 -316
-1 -72 72 -116 115 -71 10 9 54 73 99 142 87 134 198 254 261 284 20 9 37 21
37 26 0 12 -6 12 -50 -4z"/>
</g>
</svg>
