<?xml version="1.0" standalone="no"?>
<!DOCTYPE svg PUBLIC "-//W3C//DTD SVG 20010904//EN"
 "http://www.w3.org/TR/2001/REC-SVG-20010904/DTD/svg10.dtd">
<svg version="1.0" xmlns="http://www.w3.org/2000/svg"
 width="1280.000000pt" height="1280.000000pt" viewBox="0 0 1280.000000 1280.000000"
 preserveAspectRatio="xMidYMid meet">
<metadata>
Created by potrace 1.15, written by Peter Selinger 2001-2017
</metadata>
<g transform="translate(0.000000,1280.000000) scale(0.100000,-0.100000)"
fill="#5B3D23" stroke="none">
<path d="M6285 12794 c-179 -29 -453 -148 -645 -282 l-65 -45 -135 22 c-269
43 -368 53 -535 55 l-171 1 -87 -55 c-129 -81 -243 -164 -417 -303 l-155 -125
-60 10 c-132 22 -454 -3 -618 -48 -259 -71 -464 -262 -661 -616 -36 -64 -68
-128 -72 -142 -4 -18 -17 -29 -42 -37 -249 -82 -671 -279 -725 -338 -58 -64
-253 -489 -326 -713 -8 -25 -19 -38 -37 -42 -41 -11 -252 -132 -346 -199 -278
-199 -388 -367 -444 -679 -19 -107 -29 -395 -16 -473 l10 -60 -125 -155 c-139
-173 -222 -288 -303 -417 l-55 -87 -3 -100 c-4 -116 16 -327 54 -571 l27 -170
-45 -65 c-106 -151 -213 -376 -259 -540 -34 -122 -34 -318 0 -440 45 -162 133
-346 244 -515 l59 -90 -26 -170 c-39 -247 -58 -456 -54 -571 l3 -100 55 -87
c81 -129 164 -244 303 -417 l125 -155 -10 -60 c-13 -78 -3 -366 16 -473 56
-312 166 -480 444 -679 94 -67 305 -188 346 -199 18 -4 29 -17 37 -42 82 -249
279 -671 338 -725 64 -58 489 -253 713 -326 25 -8 38 -19 42 -37 9 -34 108
-212 167 -300 250 -372 479 -493 964 -510 88 -3 187 -2 220 4 l60 10 155 -125
c174 -139 288 -222 417 -303 l87 -55 161 1 c166 0 224 6 510 51 l170 26 65
-45 c150 -104 353 -202 525 -254 80 -24 106 -27 235 -27 129 0 155 3 235 27
172 52 375 150 525 254 l65 45 170 -26 c286 -45 344 -51 510 -51 l161 -1 87
55 c129 81 243 164 417 303 l155 125 60 -10 c33 -6 132 -7 220 -4 485 17 714
138 964 510 59 88 158 266 167 300 4 18 17 29 42 37 224 73 649 268 713 326
59 54 256 476 338 725 8 25 19 38 37 42 33 9 187 94 289 160 376 246 504 483
521 966 3 92 2 191 -4 225 l-10 60 125 155 c139 173 222 288 303 417 l55 87 3
100 c4 116 -16 327 -54 571 l-27 171 35 49 c102 143 212 369 264 540 24 79 27
107 28 230 0 118 -3 153 -23 225 -46 162 -156 392 -259 540 l-45 65 27 170
c38 244 58 455 54 571 l-3 100 -55 87 c-81 129 -164 244 -303 417 l-125 155
10 60 c6 34 7 133 4 225 -17 483 -145 720 -521 966 -102 66 -256 151 -289 160
-18 4 -29 17 -37 42 -73 224 -268 649 -326 713 -54 59 -476 256 -725 338 -25
8 -38 19 -42 37 -11 42 -132 252 -204 354 -231 325 -463 440 -922 456 -92 3
-191 2 -225 -4 l-60 -10 -155 125 c-174 139 -288 222 -417 303 l-87 55 -171
-1 c-166 -2 -261 -12 -535 -55 l-135 -21 -81 54 c-163 111 -342 196 -514 245
-84 24 -271 38 -345 27z m345 -169 c120 -38 402 -177 388 -191 -12 -11 -305
-45 -453 -52 -202 -10 -447 1 -636 28 -78 11 -144 22 -147 24 -10 11 178 111
301 160 139 55 201 67 337 62 101 -3 141 -9 210 -31z m-1505 -230 c72 -8 281
-40 465 -70 465 -75 508 -80 810 -80 302 0 345 5 810 80 455 74 670 99 670 76
0 -4 -17 -30 -39 -57 -21 -27 -48 -68 -60 -91 -50 -99 -64 -255 -36 -388 8
-38 15 -71 15 -72 0 -1 -23 -28 -51 -60 -75 -84 -127 -169 -134 -217 l-7 -42
-106 -16 c-129 -20 -260 -66 -343 -119 l-61 -40 -82 78 c-74 71 -241 193 -265
193 -5 0 -11 12 -13 27 -3 26 -56 74 -147 134 l-24 15 59 42 c32 23 63 42 69
42 5 0 54 -29 107 -64 111 -73 174 -94 234 -77 107 30 153 142 101 242 -56
106 -240 186 -297 129 -41 -41 -15 -103 47 -115 52 -9 86 -29 117 -66 24 -28
26 -34 12 -47 -21 -21 -51 -10 -156 59 -156 102 -186 105 -282 32 -35 -27 -80
-59 -101 -72 l-38 -23 -42 27 c-23 15 -65 45 -94 67 -94 72 -132 68 -282 -31
-106 -69 -136 -81 -157 -59 -14 13 -12 19 12 47 31 37 65 57 117 66 62 12 88
74 47 115 -57 57 -241 -23 -297 -129 -55 -104 0 -221 114 -246 51 -10 129 18
228 85 50 33 95 60 100 60 6 0 36 -18 68 -41 l57 -41 -82 -61 c-47 -35 -85
-72 -88 -84 -3 -14 -40 -45 -100 -85 -52 -35 -132 -98 -177 -141 l-81 -78 -61
40 c-83 53 -214 99 -341 119 l-106 16 -12 50 c-14 57 -55 124 -131 209 -28 32
-51 61 -51 65 1 4 7 36 15 72 38 174 6 339 -94 470 -22 30 -41 58 -41 62 0 12
60 10 205 -7z m-451 -149 c-4 -70 -3 -121 6 -157 19 -85 73 -188 140 -267 l61
-73 -16 -80 c-19 -102 -20 -225 -1 -261 14 -26 13 -27 -72 -95 -102 -82 -188
-181 -236 -272 l-35 -67 -92 23 c-87 22 -324 47 -342 36 -4 -2 -16 6 -26 18
-15 19 -33 24 -120 33 -56 5 -100 13 -99 16 2 3 14 33 28 68 l25 62 145 -2
c132 -2 149 0 187 20 53 27 84 72 91 127 6 59 -3 88 -39 129 -81 93 -308 96
-359 4 -13 -25 -13 -29 6 -55 23 -30 32 -31 145 -18 42 6 63 3 87 -9 34 -18
37 -23 22 -46 -8 -12 -38 -15 -172 -15 -176 0 -201 -7 -225 -58 -6 -12 -30
-64 -54 -114 -23 -51 -47 -93 -53 -93 -6 0 -60 5 -121 10 -60 6 -119 9 -131 6
-37 -10 -74 -57 -130 -167 -57 -112 -84 -145 -109 -136 -38 15 -3 120 58 167
45 36 31 110 -23 121 -76 15 -190 -135 -190 -251 0 -99 70 -172 165 -172 86 0
139 50 216 203 l50 100 72 -7 c40 -4 74 -8 76 -10 2 -2 -13 -40 -33 -85 -28
-61 -37 -92 -34 -118 3 -26 -3 -48 -22 -81 -31 -54 -104 -223 -114 -265 -4
-16 -11 -46 -16 -66 l-10 -36 -77 5 c-99 5 -237 -22 -361 -72 l-92 -37 -32 36
c-35 40 -128 91 -229 124 l-65 21 -18 58 c-48 152 -152 290 -264 350 -33 18
-67 32 -75 32 -8 0 -25 8 -37 18 -22 18 -22 18 76 64 134 63 225 99 529 213
143 54 328 127 410 164 134 59 186 86 379 195 155 87 340 226 749 561 129 106
393 304 405 305 2 0 0 -47 -4 -104z m3636 -29 c52 -39 181 -141 285 -227 105
-86 235 -192 290 -236 101 -80 399 -284 415 -284 5 0 26 -12 47 -26 56 -39
321 -165 458 -219 66 -26 219 -84 340 -130 252 -94 312 -119 449 -183 98 -46
98 -46 76 -64 -12 -10 -29 -18 -37 -18 -8 0 -42 -14 -74 -32 -113 -59 -217
-197 -265 -350 l-18 -58 -65 -21 c-101 -33 -194 -84 -229 -124 l-32 -36 -92
37 c-124 50 -262 77 -361 72 -77 -5 -78 -4 -83 21 -23 100 -84 255 -134 341
-19 33 -25 55 -22 81 3 26 -6 57 -34 118 -20 45 -35 83 -33 85 2 2 36 6 76 10
l72 7 50 -100 c78 -154 130 -203 217 -203 92 0 164 75 164 170 0 118 -113 269
-190 253 -54 -11 -68 -85 -22 -121 60 -47 95 -152 57 -167 -26 -9 -51 23 -115
148 -84 161 -90 164 -249 150 -66 -6 -124 -11 -129 -11 -5 0 -28 42 -51 93
-24 50 -48 103 -54 116 -24 50 -48 56 -224 56 -135 0 -165 3 -173 15 -15 23
-12 28 20 45 34 18 88 19 140 4 52 -16 85 -6 100 31 27 64 -45 113 -165 114
-88 1 -153 -23 -194 -70 -36 -41 -45 -70 -39 -129 7 -55 38 -100 91 -127 38
-20 55 -22 187 -20 l145 2 28 -66 c16 -36 27 -67 25 -68 -2 -2 -48 -7 -102
-13 -83 -8 -102 -14 -117 -32 -10 -13 -22 -20 -26 -18 -18 11 -255 -14 -342
-36 l-92 -23 -35 67 c-48 91 -134 190 -236 272 -85 68 -86 69 -72 95 19 36 18
159 -1 261 l-16 82 48 54 c59 66 106 143 136 221 19 51 22 76 21 191 l-2 132
47 -31 c25 -17 89 -63 141 -101z m-3419 -20 c31 -58 34 -69 37 -177 l4 -115
-20 18 c-11 10 -37 51 -58 90 -32 60 -38 84 -42 149 -2 42 -1 89 2 103 7 26 8
26 25 11 11 -10 34 -45 52 -79z m3097 -21 c-3 -71 -8 -93 -40 -157 -21 -41
-46 -83 -58 -94 l-20 -18 0 99 c1 113 16 166 69 240 29 42 34 45 43 30 6 -10
8 -55 6 -100z m-4103 -271 c-149 -128 -401 -294 -610 -402 -138 -70 -425 -196
-433 -188 -6 6 97 172 156 251 201 270 417 369 807 372 l120 1 -40 -34z m5290
24 c219 -27 361 -87 488 -208 44 -42 107 -112 139 -155 59 -79 162 -245 156
-251 -7 -7 -292 116 -428 185 -80 40 -203 111 -274 157 -123 81 -360 255 -372
274 -7 13 182 11 291 -2z m-2683 -324 l77 -55 -69 -68 c-79 -79 -96 -121 -85
-211 9 -75 54 -210 113 -334 43 -90 50 -114 56 -191 5 -78 4 -92 -13 -120 -32
-51 -147 -156 -171 -156 -24 0 -139 105 -171 156 -17 28 -18 42 -13 120 6 77
13 101 55 190 59 124 95 229 110 320 17 103 4 141 -81 226 l-69 68 77 55 c42
30 84 54 92 54 8 0 50 -24 92 -54z m-1475 8 c39 -48 71 -106 66 -119 -3 -8
-14 -14 -25 -14 -11 0 -28 -4 -38 -10 -32 -17 -42 10 -34 89 3 39 9 71 12 71
2 0 11 -8 19 -17z m2798 -58 c8 -75 -4 -102 -35 -85 -10 6 -27 10 -38 10 -33
0 -32 26 1 76 61 91 62 91 72 -1z m-1626 -165 c22 -22 45 -40 52 -40 17 0 6
-101 -21 -180 -12 -36 -38 -100 -57 -142 l-36 -78 -139 132 -140 132 65 63
c74 70 193 153 219 153 9 0 35 -18 57 -40z m564 -6 c37 -25 97 -73 134 -107
l65 -63 -139 -132 -140 -132 -41 88 c-65 139 -104 312 -71 312 6 0 28 18 50
40 22 22 48 40 57 40 9 0 48 -20 85 -46z m-1453 -59 c170 -25 281 -71 385
-160 26 -22 77 -65 114 -96 36 -31 115 -104 175 -162 l109 -106 -7 -79 c-6
-74 -5 -82 25 -141 20 -40 58 -88 110 -140 48 -48 79 -87 79 -99 0 -43 -44
-137 -114 -243 -39 -60 -80 -124 -91 -141 -17 -27 -27 -34 -61 -36 -68 -5
-149 32 -217 99 -33 33 -66 59 -73 59 -11 0 -12 13 -8 59 19 177 -92 424 -285
632 -42 46 -96 121 -136 190 -36 63 -75 123 -86 134 -27 27 -93 25 -122 -4
-20 -20 -22 -35 -28 -189 -4 -124 -12 -193 -30 -267 -19 -84 -23 -127 -23
-265 0 -153 2 -171 27 -247 15 -45 44 -106 63 -135 31 -46 34 -55 23 -73 -7
-11 -16 -42 -20 -69 -17 -102 -125 -230 -186 -218 -15 3 -39 13 -53 22 -14 10
-72 41 -130 70 -117 58 -189 107 -214 145 -15 23 -14 29 11 102 21 62 27 97
27 173 l1 95 -48 73 c-34 50 -46 76 -39 85 5 7 14 35 21 62 19 80 102 348 117
375 7 14 20 49 29 78 36 113 170 264 335 374 83 56 87 58 155 58 39 0 113 -7
165 -15z m2519 -42 c165 -110 300 -261 336 -375 9 -29 22 -64 29 -78 15 -27
98 -295 117 -375 7 -27 16 -55 21 -62 7 -9 -5 -35 -39 -85 l-48 -73 1 -95 c0
-76 6 -111 27 -173 25 -73 26 -79 11 -102 -25 -38 -97 -87 -214 -145 -58 -29
-117 -61 -131 -71 -58 -41 -113 -22 -174 61 -41 57 -65 109 -65 146 0 14 -7
38 -16 54 -16 27 -16 29 9 62 104 136 136 411 76 668 -16 68 -24 143 -28 262
-6 154 -8 169 -28 189 -29 29 -95 31 -122 4 -11 -11 -50 -71 -86 -134 -40 -69
-94 -144 -136 -190 -193 -208 -304 -455 -285 -632 4 -46 3 -59 -8 -59 -7 0
-40 -26 -73 -59 -68 -67 -149 -104 -217 -99 -34 2 -44 9 -61 36 -11 18 -53 82
-92 144 -71 108 -113 198 -113 240 0 12 31 51 79 99 52 52 90 100 110 140 30
59 31 67 25 141 l-7 79 124 120 c68 66 150 142 183 167 32 26 81 66 108 90
114 99 307 158 522 161 l79 1 86 -57z m-3852 -337 c2 -2 -8 -42 -33 -132 -16
-55 -12 -87 17 -145 38 -76 172 -199 332 -304 79 -52 147 -155 147 -221 0 -51
-24 -153 -46 -196 -18 -34 -41 -36 -141 -9 -106 27 -130 45 -173 128 -31 59
-39 86 -45 155 -28 350 -95 504 -226 521 -19 2 -45 9 -56 16 -12 6 -31 11 -42
11 -12 0 -21 3 -21 6 0 3 19 46 42 96 l42 90 100 -7 c56 -4 102 -8 103 -9z
m5112 -75 c22 -49 41 -92 41 -95 0 -3 -9 -6 -21 -6 -11 0 -30 -5 -42 -11 -11
-7 -37 -14 -56 -16 -69 -10 -103 -37 -141 -112 -41 -82 -70 -220 -85 -409 -6
-69 -14 -96 -44 -155 -33 -64 -43 -75 -92 -99 -30 -15 -87 -33 -128 -40 -69
-12 -74 -11 -87 7 -22 30 -45 113 -51 185 -5 65 -5 67 40 136 33 51 61 81 104
109 99 65 218 161 267 216 82 91 106 158 83 230 -8 24 -17 58 -20 74 -3 17 -9
38 -12 47 -7 18 7 20 156 26 l46 2 42 -89z m-4829 19 c89 -11 220 -40 220 -49
0 -3 -20 -70 -44 -147 -25 -78 -48 -158 -51 -178 -4 -20 -10 -36 -14 -36 -11
0 -129 87 -192 141 -31 26 -68 66 -84 88 -27 40 -27 41 -11 75 9 19 16 44 16
57 0 29 27 59 54 59 12 0 60 -5 106 -10z m4442 -7 c10 -9 18 -29 18 -46 0 -16
7 -41 16 -57 16 -27 16 -29 -16 -73 -35 -49 -83 -93 -194 -175 -73 -55 -86
-61 -86 -38 0 8 -22 87 -50 177 -27 90 -50 167 -50 170 0 9 130 40 205 48 111
13 137 12 157 -6z m-3455 -75 c14 -24 58 -78 97 -121 228 -252 306 -479 224
-658 -30 -65 -83 -129 -107 -129 -32 0 -136 59 -180 102 -50 49 -95 137 -112
217 -15 73 -6 316 16 401 9 36 18 102 22 148 3 45 7 82 9 82 2 0 16 -19 31
-42z m2376 -134 c15 -26 38 -208 38 -308 0 -169 -37 -280 -121 -364 -42 -42
-148 -102 -181 -102 -24 0 -77 64 -107 129 -83 180 -5 405 231 666 35 39 77
90 93 115 l29 45 6 -86 c3 -47 8 -90 12 -95z m-5443 8 c19 -9 58 -39 85 -67
53 -52 115 -158 102 -172 -12 -12 -112 45 -167 94 -44 39 -100 131 -100 163 0
13 25 7 80 -18z m8540 17 c0 -31 -57 -123 -100 -162 -55 -49 -155 -106 -167
-94 -11 12 43 109 89 162 40 45 74 69 133 92 39 15 45 15 45 2z m-8750 -43 c0
-32 66 -144 117 -197 70 -73 142 -118 251 -156 l82 -28 21 -65 c44 -132 96
-220 146 -248 15 -9 15 -15 -9 -68 -59 -133 -93 -296 -86 -408 l4 -66 -36 -10
c-19 -5 -48 -12 -65 -16 -43 -10 -230 -91 -273 -118 -27 -16 -47 -22 -73 -18
-26 3 -57 -6 -118 -34 -45 -20 -83 -35 -85 -33 -2 2 -6 36 -10 76 l-7 72 100
50 c156 79 201 127 201 219 0 122 -117 191 -249 147 -66 -22 -149 -87 -168
-133 -13 -32 -13 -37 5 -61 29 -39 83 -41 112 -4 47 60 152 97 167 58 9 -26
-23 -51 -148 -115 -91 -48 -124 -70 -140 -96 -22 -36 -22 -41 -3 -234 l5 -56
-93 -43 c-51 -24 -104 -48 -117 -54 -50 -24 -56 -48 -56 -224 0 -135 -3 -165
-15 -173 -23 -15 -28 -12 -46 22 -12 24 -15 45 -9 87 13 113 12 122 -17 144
-102 76 -172 -185 -85 -315 13 -18 38 -43 57 -56 29 -20 44 -23 93 -20 68 5
102 27 137 89 23 42 24 51 22 189 l-2 145 62 25 c35 14 66 27 70 28 5 2 8 -16
8 -40 0 -76 18 -160 40 -183 11 -12 18 -24 15 -27 -11 -10 17 -252 39 -339
l22 -90 -67 -35 c-91 -48 -190 -134 -273 -237 l-69 -86 -28 14 c-37 20 -154
19 -258 0 l-80 -16 -73 61 c-79 67 -182 121 -267 140 -36 9 -87 10 -158 6
l-105 -7 61 88 c33 49 123 166 198 260 76 94 199 247 274 339 133 165 278 368
335 470 107 190 134 241 184 353 32 69 105 254 164 411 123 327 160 417 223
552 37 79 49 96 59 87 8 -6 14 -17 14 -23z m9025 -224 c24 -59 88 -226 143
-372 55 -146 123 -319 151 -385 55 -127 153 -319 177 -346 8 -8 14 -20 14 -26
0 -18 199 -310 284 -418 44 -55 150 -185 236 -290 165 -201 249 -309 319 -413
l43 -63 -105 7 c-71 4 -122 3 -158 -6 -85 -19 -188 -73 -267 -140 l-73 -61
-80 16 c-104 19 -221 20 -258 0 l-29 -14 -63 81 c-78 99 -186 194 -278 242
l-69 36 18 63 c22 74 38 182 44 296 3 57 10 89 21 101 17 19 35 109 35 178 0
24 3 42 8 40 4 -1 35 -14 70 -28 l62 -25 -2 -140 c-2 -122 1 -146 19 -186 28
-62 72 -92 142 -97 64 -4 109 19 148 76 65 98 46 288 -33 324 -20 10 -29 8
-52 -9 -22 -17 -27 -27 -24 -59 9 -123 7 -174 -9 -189 -20 -20 -46 -10 -54 22
-3 14 -3 84 0 157 6 115 4 135 -12 165 -20 36 -24 39 -161 102 l-94 43 6 51
c3 27 8 86 11 130 9 112 -1 125 -153 204 -126 65 -158 90 -149 116 15 38 134
-3 171 -60 23 -36 80 -32 109 7 18 24 18 30 7 58 -18 44 -93 106 -159 131
-137 51 -261 -16 -261 -143 0 -92 45 -140 202 -219 l100 -50 -7 -72 c-4 -40
-9 -74 -11 -76 -2 -2 -40 13 -85 33 -61 28 -92 37 -118 34 -26 -4 -46 2 -73
18 -43 27 -230 108 -273 118 -16 4 -46 11 -65 16 l-35 9 -1 113 c0 123 -19
206 -75 347 -28 69 -29 75 -12 84 48 27 98 115 142 247 l21 65 82 28 c46 16
108 44 139 62 98 60 195 179 224 275 18 59 27 55 67 -25 22 -42 59 -125 83
-183z m-7228 181 c38 -4 44 -9 63 -49 39 -79 85 -369 58 -359 -7 3 -89 23
-181 44 -93 22 -171 42 -174 45 -18 18 94 307 126 326 9 6 27 7 41 4 14 -3 44
-8 67 -11z m5392 7 c34 -18 147 -307 128 -327 -3 -3 -81 -22 -174 -44 -92 -21
-174 -41 -181 -44 -27 -10 19 280 58 360 20 41 25 45 58 45 21 0 44 5 52 10
19 12 37 12 59 0z m-6504 -419 c39 -18 65 -36 65 -45 0 -20 -46 -66 -66 -66
-12 0 -74 112 -74 135 0 9 8 6 75 -24z m7585 24 c0 -23 -62 -135 -74 -135 -20
0 -66 46 -66 66 0 9 26 27 63 44 63 30 77 34 77 25z m-3804 -57 c10 -24 48
-88 84 -143 91 -139 94 -150 53 -203 -36 -47 -67 -137 -77 -224 l-7 -58 -79 0
-79 0 -7 58 c-10 87 -41 177 -77 224 -41 53 -38 64 53 203 36 55 74 119 84
143 10 23 22 42 26 42 4 0 16 -19 26 -42z m-3022 1 c109 -19 390 -81 430 -95
21 -8 49 -14 63 -14 20 0 30 -13 60 -76 28 -57 46 -82 79 -104 54 -38 123 -65
214 -84 40 -8 77 -21 81 -28 5 -7 13 -36 19 -65 13 -61 5 -395 -10 -423 -24
-45 -165 -70 -250 -44 -30 9 -70 17 -89 19 -30 2 -36 8 -57 51 -80 167 -272
304 -559 400 -67 22 -154 62 -221 100 -146 84 -163 87 -210 40 -47 -47 -44
-64 40 -210 41 -71 78 -155 105 -234 92 -278 229 -466 395 -546 43 -21 49 -27
51 -57 2 -19 10 -59 19 -89 26 -85 1 -226 -44 -250 -28 -15 -362 -23 -423 -10
-29 6 -58 14 -65 19 -7 4 -20 41 -28 81 -19 91 -46 160 -84 214 -22 32 -47 51
-103 78 -67 33 -75 40 -80 70 -3 18 -26 121 -51 228 -61 263 -70 323 -63 427
7 105 45 230 111 362 l46 91 90 45 c92 46 212 90 284 105 60 12 181 11 250 -1z
m6343 -27 c51 -17 133 -52 182 -77 l91 -45 45 -91 c25 -49 60 -131 77 -182 28
-82 32 -105 32 -207 1 -141 -9 -209 -71 -464 l-48 -198 -76 -38 c-55 -28 -82
-49 -100 -77 -35 -53 -66 -135 -84 -217 -7 -38 -20 -73 -27 -77 -7 -5 -36 -13
-65 -19 -61 -13 -395 -5 -423 10 -48 25 -69 197 -36 284 10 26 16 56 13 67 -4
15 5 24 46 44 170 81 304 265 398 546 27 79 64 162 105 233 84 146 87 165 40
212 -47 47 -64 44 -213 -41 -70 -41 -153 -79 -220 -100 -208 -68 -393 -177
-478 -281 -22 -26 -53 -74 -71 -107 -28 -53 -35 -60 -65 -62 -19 -2 -59 -10
-89 -19 -84 -25 -226 -1 -249 43 -5 9 -12 95 -16 192 -7 169 1 260 24 297 4 7
41 20 82 29 88 18 180 54 224 87 19 15 46 55 68 100 30 63 40 76 60 76 14 0
42 6 63 14 34 12 276 66 419 95 28 5 100 8 160 7 91 -3 126 -9 202 -34z
m-8278 -234 c-89 -227 -209 -469 -313 -632 -68 -106 -204 -295 -261 -361 l-34
-40 -1 115 c0 205 38 390 108 525 43 81 150 198 256 279 68 53 243 164 258
165 4 1 -2 -23 -13 -51z m9935 2 c208 -123 367 -273 435 -411 69 -140 101
-307 101 -514 l-1 -110 -34 40 c-57 66 -193 255 -261 361 -73 114 -206 370
-257 494 -58 139 -77 190 -72 190 2 0 43 -23 89 -50z m-5682 -1 c78 -75 237
-137 324 -125 34 4 45 1 62 -17 33 -35 62 -111 69 -180 l6 -63 -40 -12 c-22
-7 -57 -23 -78 -37 l-37 -26 -67 55 c-37 31 -88 78 -114 106 -36 39 -53 50
-77 50 -47 0 -74 -34 -89 -110 -19 -102 -52 -220 -63 -226 -6 -4 -61 46 -122
110 -95 98 -116 116 -142 116 -40 0 -70 -33 -78 -87 -3 -23 -22 -86 -41 -140
l-36 -98 -88 -1 -89 -1 -21 44 c-29 61 -42 124 -35 177 6 42 10 46 60 71 30
15 73 49 100 78 49 54 114 176 114 213 0 32 10 35 44 15 55 -33 153 -64 183
-57 15 3 39 8 53 11 28 6 89 69 127 133 13 23 27 42 29 42 2 0 23 -18 46 -41z
m1431 -1 c38 -64 99 -127 127 -133 14 -3 38 -8 53 -11 30 -7 128 24 183 57 34
20 44 17 44 -15 0 -37 65 -159 114 -213 27 -29 70 -63 100 -78 50 -25 54 -29
60 -71 7 -53 -6 -116 -35 -177 l-21 -44 -88 1 -88 1 -36 97 c-19 53 -38 116
-42 140 -8 55 -38 88 -78 88 -26 0 -47 -18 -142 -116 -61 -64 -116 -114 -122
-110 -11 6 -44 124 -63 226 -15 75 -42 110 -89 110 -24 0 -41 -11 -83 -56 -29
-31 -80 -78 -114 -105 l-61 -49 -38 25 c-20 14 -55 30 -77 37 l-40 12 6 63 c7
69 36 145 69 180 17 18 28 21 62 17 87 -12 248 50 321 124 22 22 43 41 47 41
3 1 18 -18 31 -41z m-2610 -237 c23 -15 89 -52 146 -80 145 -73 141 -69 144
-187 2 -85 7 -109 34 -171 l31 -73 -70 -40 c-39 -22 -72 -39 -73 -38 -1 2 -16
24 -33 49 -42 62 -100 113 -171 149 -70 35 -70 36 -58 200 4 58 5 131 2 163
-3 31 -3 57 0 57 4 0 25 -13 48 -29z m3762 -28 c-3 -32 -2 -105 2 -163 12
-164 12 -165 -58 -200 -71 -36 -129 -87 -171 -149 -17 -25 -32 -47 -33 -49 -1
-1 -34 16 -73 38 l-70 40 31 73 c27 62 32 86 34 171 3 119 -1 113 149 190 60
30 125 66 144 80 19 14 39 25 43 26 4 0 5 -26 2 -57z m-4990 -58 c244 -70 437
-201 508 -344 29 -60 32 -73 32 -163 -1 -130 -3 -133 -133 -133 -84 0 -105 4
-155 27 -145 68 -274 253 -348 498 -12 41 -35 101 -51 133 l-29 58 58 -29 c32
-16 85 -37 118 -47z m6317 18 c-16 -32 -39 -92 -51 -133 -74 -245 -203 -430
-348 -498 -50 -23 -71 -27 -155 -27 -130 0 -132 3 -133 133 0 90 3 103 32 163
72 146 254 268 518 348 39 12 90 33 115 46 25 13 46 24 48 25 1 0 -11 -26 -26
-57z m-3594 -322 c311 -192 316 -199 247 -293 -31 -42 -51 -55 -172 -113 -75
-36 -152 -77 -171 -91 -31 -24 -74 -101 -113 -202 -8 -22 -11 -21 -87 38 -101
77 -140 86 -296 71 -61 -6 -133 -11 -159 -11 -52 0 -120 29 -148 63 -15 19
-15 25 -2 62 7 22 39 87 70 145 90 166 121 230 150 310 14 41 28 77 30 79 2 2
33 -25 70 -61 94 -90 163 -123 218 -102 38 15 98 139 120 251 l7 33 74 -63
c41 -34 114 -87 162 -116z m981 96 c65 -240 150 -266 322 -101 65 64 79 73 79
54 0 -27 80 -209 142 -322 38 -69 80 -152 93 -184 22 -54 22 -59 7 -80 -25
-34 -96 -64 -149 -64 -26 0 -98 5 -159 11 -155 15 -195 5 -295 -71 l-78 -59
-24 53 c-13 29 -30 69 -36 89 -18 54 -71 94 -229 169 -126 61 -146 74 -177
116 -61 83 -46 111 111 207 145 89 268 173 319 218 28 25 51 44 51 43 1 0 11
-36 23 -79z m-426 13 c26 -7 47 -15 47 -19 0 -3 -26 -22 -57 -40 -32 -19 -84
-54 -116 -78 -31 -23 -62 -43 -67 -43 -5 0 -36 20 -67 43 -32 24 -84 59 -115
78 -32 18 -58 37 -58 41 0 3 24 11 53 17 28 6 61 13 72 15 37 9 260 -1 308
-14z m-4053 -247 c18 -76 38 -159 45 -185 16 -55 24 -52 -95 -38 -119 15 -187
30 -247 56 -50 22 -53 25 -53 59 0 20 -5 45 -11 57 -22 42 -3 67 79 106 81 37
205 81 234 82 13 0 23 -28 48 -137z m7846 116 c37 -12 105 -38 151 -59 87 -41
107 -66 84 -108 -6 -12 -11 -37 -11 -57 0 -34 -3 -37 -52 -59 -61 -26 -129
-41 -248 -56 -119 -14 -111 -17 -95 38 7 26 27 109 45 185 21 90 36 137 45
137 7 0 44 -9 81 -21z m-5868 -115 c24 -14 63 -52 88 -86 l44 -60 -41 -46
c-22 -26 -43 -58 -46 -73 -3 -18 -10 -26 -22 -23 -9 1 -59 10 -111 20 -52 9
-107 23 -122 30 -53 27 -98 12 -117 -39 -9 -22 -4 -48 24 -138 19 -61 38 -128
41 -150 6 -37 5 -39 -20 -39 -14 0 -75 15 -134 34 -146 47 -169 49 -202 14
-24 -26 -25 -53 -5 -101 8 -19 23 -83 33 -141 19 -103 19 -106 1 -106 -10 0
-43 -20 -72 -44 l-55 -44 -51 34 c-84 57 -154 173 -119 198 62 46 99 254 64
369 l-14 46 67 6 c183 18 233 68 245 245 2 30 5 57 7 59 2 3 25 -1 52 -8 76
-22 219 -10 294 24 34 15 64 34 67 42 8 19 45 11 104 -23z m3868 22 c3 -8 33
-26 67 -41 73 -33 218 -46 289 -26 24 7 47 13 52 14 4 1 10 -25 12 -58 7 -104
22 -149 62 -188 40 -38 79 -52 183 -62 l67 -6 -15 -47 c-23 -75 -13 -223 21
-297 14 -32 34 -63 42 -70 37 -26 -31 -141 -117 -199 l-51 -34 -55 44 c-29 24
-62 44 -72 44 -18 0 -18 3 1 106 10 58 25 122 33 141 20 48 19 75 -5 101 -33
35 -56 33 -202 -14 -59 -19 -120 -34 -134 -34 -25 0 -26 2 -20 39 3 22 22 89
41 150 28 90 33 116 24 138 -19 51 -64 66 -117 39 -15 -7 -70 -21 -122 -30
-52 -10 -103 -19 -112 -21 -12 -2 -18 3 -18 16 0 10 -20 43 -45 73 l-45 55 48
63 c62 82 173 144 188 104z m-6356 -68 c1 -13 7 -34 15 -48 8 -14 14 -38 15
-55 1 -116 155 -186 474 -216 116 -11 135 -15 200 -48 63 -33 74 -43 98 -92
15 -30 33 -87 40 -128 12 -69 11 -74 -7 -87 -33 -24 -144 -54 -201 -54 -46 0
-63 6 -122 44 -49 32 -79 61 -107 103 -173 263 -325 386 -435 353 -66 -21
-143 -40 -145 -38 -2 2 -6 48 -10 104 l-7 100 89 42 c48 22 91 41 96 41 4 1 7
-9 7 -21z m8841 -20 l91 -42 -7 -100 c-4 -56 -8 -102 -9 -103 -3 -3 -62 12
-133 33 -120 36 -233 -46 -414 -301 -65 -93 -89 -118 -144 -153 -55 -35 -75
-42 -117 -42 -52 0 -143 22 -192 47 -27 14 -28 17 -22 67 6 57 38 158 60 192
8 11 48 37 89 56 64 31 91 37 198 48 326 31 457 93 473 223 2 19 9 44 15 55 6
12 11 30 11 41 0 12 2 21 5 21 2 0 45 -19 96 -42z m-5778 -50 c-20 -35 -49
-92 -64 -128 -23 -53 -32 -65 -51 -65 -68 0 -268 19 -268 24 0 11 61 65 110
99 108 72 235 131 282 132 l27 0 -36 -62z m2733 18 c84 -40 207 -121 247 -163
l28 -30 -113 -7 c-62 -4 -130 -9 -151 -13 -35 -5 -38 -4 -49 28 -6 19 -33 76
-60 128 -26 51 -48 95 -48 98 0 13 79 -9 146 -41z m-1401 -169 c16 -25 56 -50
189 -117 l168 -85 32 -74 32 -73 -18 -176 c-10 -97 -20 -177 -22 -179 -1 -1
-73 -12 -160 -23 -141 -19 -159 -19 -179 -5 -12 8 -42 15 -67 15 -25 0 -55 -7
-67 -15 -20 -14 -38 -14 -179 5 -87 11 -159 21 -160 23 -5 5 -34 287 -34 329
0 25 13 70 29 108 l29 65 168 85 c133 67 173 92 189 117 11 18 22 32 25 32 3
0 14 -14 25 -32z m-1990 -142 c44 -9 177 -19 295 -24 118 -5 227 -14 242 -19
32 -13 43 -52 33 -122 -5 -39 -21 -69 -77 -147 -88 -123 -129 -204 -129 -251
0 -21 4 -71 9 -112 5 -41 9 -76 8 -76 0 -1 -35 3 -76 8 -41 5 -91 9 -112 9
-47 0 -128 -41 -251 -129 -78 -56 -108 -72 -147 -77 -70 -10 -109 1 -122 33
-5 15 -14 124 -19 242 -5 118 -15 251 -24 295 -8 44 -15 81 -15 81 0 1 28 -7
63 -19 42 -13 91 -20 149 -21 78 -1 90 1 110 22 21 20 23 32 22 110 -1 58 -8
107 -21 150 -12 34 -20 62 -19 62 0 0 37 -7 81 -15z m3994 -47 c-48 -152 -31
-263 41 -281 46 -12 140 -3 218 21 34 11 62 17 62 13 0 -3 -7 -42 -16 -86 -9
-44 -19 -174 -24 -290 -4 -115 -13 -222 -18 -237 -13 -32 -52 -43 -122 -33
-39 5 -70 22 -159 85 -176 124 -196 130 -351 112 -41 -5 -76 -9 -76 -8 -1 0 2
30 7 66 21 158 10 192 -120 373 -59 84 -71 107 -77 153 -8 64 7 109 39 119 12
3 119 10 237 15 118 6 247 16 285 24 39 7 75 14 82 15 7 1 5 -19 -8 -61z
m-6337 22 c25 -17 72 -63 105 -103 57 -69 123 -161 123 -170 0 -3 -15 -8 -33
-11 -18 -3 -98 -26 -177 -51 -80 -25 -148 -45 -151 -45 -12 0 -39 128 -51 235
-10 97 -10 106 7 125 11 12 31 20 50 20 17 0 40 7 51 15 25 19 24 19 76 -15z
m8692 15 c11 -8 34 -15 51 -15 19 0 39 -8 50 -20 16 -18 17 -28 6 -127 -9 -87
-35 -216 -47 -231 -1 -2 -77 19 -169 47 -92 28 -174 51 -181 51 -23 0 -17 13
38 86 85 114 129 163 176 194 52 34 51 34 76 15z m-5577 -176 c26 -11 59 -11
170 -1 213 19 209 19 284 -37 70 -53 65 -45 174 -301 l33 -76 -126 -93 c-100
-74 -134 -94 -162 -95 -43 -2 -94 -36 -115 -77 -9 -16 -21 -29 -28 -29 -8 0
-71 -25 -142 -55 -70 -30 -131 -52 -136 -50 -4 3 -53 68 -108 144 -100 138
-100 139 -110 217 -10 79 -10 79 22 131 18 29 63 97 101 152 54 78 69 109 73
146 6 50 5 50 70 24z m2456 -25 c4 -35 19 -66 63 -130 33 -47 78 -115 101
-152 l42 -67 -10 -79 c-10 -79 -10 -80 -110 -217 -55 -76 -104 -141 -108 -143
-4 -3 -66 19 -136 49 -71 30 -134 55 -142 55 -7 0 -19 13 -28 29 -21 41 -72
75 -115 77 -28 1 -62 21 -162 95 l-126 93 32 76 c106 248 107 249 176 302 l65
50 95 -6 c52 -3 138 -8 190 -11 73 -5 101 -3 120 8 40 24 47 20 53 -29z
m-5169 -241 l71 -48 95 1 c76 0 111 6 173 27 l78 27 29 -21 c41 -31 80 -89
140 -209 29 -58 60 -116 70 -130 9 -14 19 -38 22 -53 12 -61 -116 -169 -218
-186 -27 -4 -58 -13 -69 -20 -18 -11 -27 -8 -73 23 -29 19 -90 48 -135 63 -76
25 -94 27 -247 27 -138 0 -181 -4 -265 -23 -74 -18 -143 -26 -266 -30 -187 -7
-201 -12 -214 -77 -10 -53 11 -75 147 -155 68 -40 151 -99 186 -131 140 -130
276 -216 417 -264 66 -23 98 -28 182 -28 70 -1 103 -5 103 -12 0 -7 26 -38 59
-71 67 -68 104 -149 99 -217 -2 -34 -9 -44 -36 -61 -17 -11 -81 -52 -141 -91
-106 -70 -200 -114 -243 -114 -12 0 -51 31 -99 79 -52 52 -100 90 -140 110
-59 30 -67 31 -141 25 l-79 -7 -111 114 c-61 63 -138 146 -170 184 -33 39 -75
88 -94 110 -97 113 -163 327 -164 534 0 73 0 74 57 160 110 165 261 300 375
336 29 9 62 21 72 27 26 14 310 103 380 119 32 7 59 16 62 21 8 13 12 11 88
-39z m7900 39 c3 -5 30 -14 62 -21 70 -16 354 -105 380 -119 10 -6 43 -18 72
-27 113 -36 262 -168 375 -335 57 -85 57 -85 57 -160 -1 -155 -31 -297 -90
-415 -45 -91 -155 -226 -333 -409 l-116 -119 -79 7 c-74 6 -82 4 -139 -24 -40
-20 -88 -58 -140 -110 -50 -51 -86 -80 -100 -80 -43 0 -131 41 -241 113 -62
39 -126 81 -144 92 -27 17 -34 27 -36 61 -5 68 32 149 99 217 33 33 59 64 59
71 0 7 32 11 98 11 113 0 204 24 317 83 85 45 209 135 290 212 33 32 115 89
183 129 136 80 157 102 147 155 -13 65 -27 70 -214 77 -123 4 -192 12 -266 30
-84 19 -127 23 -265 23 -153 0 -171 -2 -247 -27 -45 -15 -105 -43 -135 -63
-51 -34 -53 -35 -79 -20 -15 9 -39 16 -53 16 -56 0 -163 64 -207 123 -25 34
-27 81 -5 107 8 8 41 69 74 135 61 121 100 180 146 216 25 19 25 19 103 -8 62
-21 97 -27 173 -27 l95 -1 70 47 c74 50 81 53 89 40z m-6874 -72 c36 -71 83
-126 150 -175 l49 -36 -40 -68 -39 -69 -73 31 c-62 27 -86 32 -171 34 -118 3
-114 0 -182 134 -26 52 -62 118 -80 147 -19 29 -34 53 -34 55 0 1 88 3 195 5
l194 3 31 -61z m6180 53 c0 -2 -16 -28 -35 -58 -20 -30 -56 -97 -81 -149 -24
-51 -53 -101 -63 -110 -14 -13 -42 -17 -117 -19 -86 -2 -109 -7 -172 -34 l-72
-31 -35 62 c-19 35 -35 68 -35 73 0 6 18 23 41 39 59 40 124 117 154 180 l26
55 194 -3 c107 -2 195 -4 195 -5z m-5745 -325 c13 -198 21 -173 -66 -212 -43
-18 -101 -48 -129 -65 l-53 -33 6 42 c6 47 57 159 111 244 40 61 103 136 116
136 4 0 11 -51 15 -112z m4948 73 c76 -85 174 -266 184 -341 l6 -42 -53 33
c-28 17 -86 47 -129 65 -69 31 -76 36 -75 61 4 105 18 263 24 263 4 0 24 -18
43 -39z m-2765 -40 c10 -5 -9 -25 -61 -65 l-75 -58 -96 13 c-53 7 -96 15 -96
18 1 11 120 93 148 102 29 9 158 2 180 -10z m700 10 c31 -9 151 -90 152 -102
0 -3 -43 -11 -96 -18 l-96 -13 -74 58 c-41 31 -72 59 -69 62 17 17 139 25 183
13z m-298 -102 c169 -136 155 -118 140 -181 -29 -128 -27 -125 -81 -131 -26
-3 -65 -15 -87 -26 -37 -19 -92 -72 -106 -103 -5 -11 -7 -11 -12 0 -14 31 -69
84 -106 103 -22 11 -61 23 -87 26 -54 6 -52 3 -81 131 -10 45 -10 56 1 67 50
48 267 215 279 215 8 0 71 -45 140 -101z m-5759 29 c41 -21 83 -46 94 -58 l18
-20 -99 0 c-113 1 -166 16 -240 68 -61 44 -47 54 67 50 75 -3 94 -7 160 -40z
m11498 33 c10 -7 2 -18 -35 -45 -67 -49 -129 -66 -242 -66 -82 0 -93 2 -82 15
18 22 75 55 139 81 59 25 191 33 220 15z m-11819 -142 c133 -101 291 -132 476
-93 l75 15 53 -48 c80 -73 156 -122 212 -135 l50 -12 16 -101 c22 -134 61
-249 115 -336 l43 -71 -73 -77 c-64 -68 -197 -249 -197 -270 0 -5 -13 -11 -29
-14 -21 -4 -42 -25 -81 -79 -30 -40 -57 -77 -60 -81 -7 -8 -75 78 -87 109 -3
8 21 53 53 101 58 86 93 166 94 212 0 14 -9 44 -21 68 -38 78 -132 113 -213
79 -75 -31 -152 -143 -163 -236 -5 -40 -2 -51 16 -69 42 -42 105 -17 117 47 9
52 28 85 65 116 24 21 34 24 45 15 8 -6 14 -18 14 -26 0 -19 -35 -86 -74 -141
-89 -125 -97 -181 -35 -263 22 -30 54 -75 71 -101 l30 -48 -30 -47 c-17 -27
-49 -72 -71 -102 -64 -86 -58 -123 49 -288 59 -89 69 -119 48 -139 -13 -14
-19 -12 -47 12 -37 31 -56 64 -65 116 -12 66 -73 88 -116 43 -19 -21 -22 -31
-17 -69 13 -94 88 -201 162 -232 100 -41 210 18 231 124 10 48 -21 132 -82
223 -31 46 -59 89 -61 96 -6 16 77 137 86 126 4 -4 31 -41 61 -81 39 -54 60
-75 81 -79 16 -3 29 -9 29 -13 0 -22 129 -200 195 -269 l75 -79 -43 -71 c-54
-87 -93 -202 -115 -336 l-16 -101 -48 -12 c-56 -13 -137 -64 -214 -134 l-54
-50 -76 16 c-185 39 -341 8 -474 -93 -30 -22 -59 -41 -64 -41 -19 0 8 232 84
695 71 434 75 476 75 785 0 309 -4 351 -75 785 -76 463 -103 695 -84 695 5 0
34 -19 64 -41z m11950 -7 c0 -75 -26 -269 -85 -632 -73 -455 -79 -518 -79
-800 0 -297 9 -380 89 -860 62 -370 89 -620 66 -620 -5 0 -28 16 -52 36 -121
101 -297 137 -480 99 -79 -17 -72 -19 -147 47 -69 63 -160 116 -208 124 -41 6
-44 8 -44 36 0 57 -41 233 -72 306 -17 41 -46 97 -65 125 l-34 51 30 23 c42
33 137 151 200 248 32 48 61 82 74 85 18 5 99 98 138 159 7 10 12 12 15 5 3
-6 22 -35 44 -64 l39 -52 -48 -72 c-86 -127 -104 -171 -99 -243 3 -53 9 -68
33 -94 40 -41 76 -59 121 -59 108 0 218 117 231 245 5 44 2 56 -16 74 -11 11
-32 21 -46 21 -29 0 -65 -32 -65 -58 0 -34 -51 -122 -80 -137 -24 -12 -30 -12
-39 -1 -18 22 -4 57 65 162 93 142 100 182 45 254 -15 19 -46 63 -70 98 l-42
62 42 63 c24 34 55 78 70 97 55 70 48 113 -44 252 -66 99 -85 144 -69 160 33
33 95 -32 118 -122 14 -55 48 -80 91 -64 110 38 -12 303 -152 330 -53 10 -102
-4 -141 -38 -43 -38 -56 -68 -55 -130 0 -53 28 -115 102 -224 l47 -70 -41 -62
c-23 -34 -44 -61 -47 -61 -3 0 -32 37 -65 82 -39 53 -68 83 -82 85 -15 2 -34
23 -58 62 -53 87 -167 232 -210 266 l-37 30 35 51 c19 28 48 84 65 125 31 73
72 249 72 306 0 28 3 30 45 36 48 8 149 70 236 146 l46 40 72 -15 c184 -39
358 -3 480 99 24 20 47 36 52 36 5 0 9 -22 9 -48z m-7677 23 c41 -6 71 -22
187 -106 77 -55 141 -103 144 -108 3 -4 -19 -66 -49 -136 -30 -71 -55 -134
-55 -141 0 -7 -16 -21 -34 -32 -44 -26 -80 -93 -71 -133 4 -17 2 -29 -3 -29
-6 0 -50 -53 -98 -119 l-88 -119 -75 32 c-257 110 -249 105 -302 175 -56 75
-56 71 -37 284 10 111 10 144 -1 170 -26 65 -26 64 24 70 37 4 68 19 146 73
167 116 201 134 234 129 17 -2 52 -7 78 -10z m3470 -1 c18 -9 76 -48 130 -87
122 -87 161 -107 209 -107 l37 0 -21 -47 c-20 -46 -21 -54 -9 -183 19 -217 19
-217 -38 -291 -47 -62 -52 -66 -177 -121 -71 -31 -146 -63 -166 -72 l-36 -14
-26 39 c-15 22 -56 78 -93 125 -51 67 -66 93 -67 123 -2 44 -36 95 -77 116
-16 9 -29 22 -29 30 0 7 -25 71 -55 141 -51 120 -53 129 -37 144 9 9 74 57
143 107 120 86 130 92 195 101 38 5 73 10 77 11 4 0 22 -6 40 -15z m-4682 -51
l56 -24 -1 -89 -1 -89 -98 -36 c-54 -19 -117 -38 -140 -41 -54 -8 -87 -38 -87
-78 0 -26 18 -47 116 -142 64 -61 114 -116 110 -122 -6 -11 -124 -44 -226 -63
-76 -15 -110 -42 -110 -90 0 -25 10 -41 51 -78 28 -25 75 -76 105 -112 l55
-67 -26 -37 c-14 -21 -30 -56 -37 -78 l-12 -39 -61 4 c-66 6 -146 36 -182 70
-18 17 -21 28 -17 62 12 88 -51 247 -129 328 -37 38 -39 43 -22 52 10 6 44 31
77 54 58 44 75 64 85 105 2 12 7 32 10 45 6 25 -28 128 -58 178 -20 34 -17 44
15 44 37 0 159 65 213 114 30 27 63 70 78 101 23 46 32 54 58 58 54 7 120 -4
178 -30z m5949 27 c11 0 27 -19 44 -55 16 -31 49 -74 79 -101 54 -49 176 -114
213 -114 11 0 23 -3 27 -6 3 -3 -10 -38 -29 -77 -40 -83 -50 -130 -37 -160 6
-12 14 -35 19 -51 8 -26 86 -95 150 -132 18 -11 16 -15 -28 -61 -81 -87 -137
-230 -123 -318 6 -40 4 -45 -31 -73 -40 -33 -129 -62 -190 -62 -38 0 -40 1
-58 53 -10 28 -27 62 -38 74 l-21 22 56 68 c31 38 78 89 106 114 41 37 51 53
51 78 0 48 -34 75 -110 90 -100 19 -220 52 -226 63 -3 5 46 60 110 121 98 95
116 118 116 143 0 40 -33 70 -88 78 -24 4 -87 23 -140 42 l-97 36 -1 89 -1 88
51 22 c63 28 112 39 150 33 16 -2 36 -4 46 -4z m-8142 -23 c7 -8 7 -18 2 -27
-6 -8 -10 -25 -10 -36 0 -44 -47 -31 -123 32 -30 26 -27 30 28 37 63 8 93 7
103 -6z m10295 -4 c8 -5 -33 -42 -82 -71 -39 -23 -61 -19 -61 12 0 11 -4 28
-10 36 -19 30 9 42 80 35 36 -4 68 -9 73 -12z m-5823 -23 l156 -24 27 -91 c26
-85 26 -91 10 -103 -77 -56 -123 -127 -123 -192 0 -22 -1 -40 -2 -40 -2 0 -27
9 -56 20 -66 25 -97 25 -174 -1 l-61 -20 -65 64 -64 64 68 178 67 177 31 -4
c17 -3 101 -15 186 -28z m1485 -146 l67 -177 -64 -64 -65 -64 -61 20 c-77 26
-108 26 -174 1 -29 -11 -54 -20 -55 -20 -2 0 -3 18 -3 40 0 65 -46 136 -123
192 -16 12 -16 18 10 105 26 85 30 93 53 93 14 1 86 11 160 24 207 36 176 54
255 -150z m-3184 -36 c21 -44 21 -54 13 -165 -12 -156 -9 -264 6 -294 7 -13
38 -54 67 -92 53 -66 54 -67 31 -76 -101 -39 -178 -82 -202 -113 -14 -19 -55
-96 -91 -171 -58 -121 -71 -141 -113 -172 -94 -69 -101 -64 -293 247 -29 48
-82 121 -116 162 l-63 74 33 7 c112 22 236 82 251 120 21 55 -12 124 -102 218
-36 37 -63 69 -61 70 2 2 39 17 83 32 79 29 155 65 300 145 44 24 104 54 135
66 51 21 56 21 77 6 12 -9 32 -38 45 -64z m4849 -5 c164 -89 227 -119 309
-149 42 -15 78 -29 80 -31 2 -1 -25 -33 -61 -70 -106 -111 -133 -188 -83 -239
32 -32 114 -70 197 -90 l66 -16 -72 -88 c-39 -48 -93 -126 -120 -171 -116
-196 -166 -259 -205 -259 -14 0 -48 16 -74 36 -40 29 -55 50 -88 122 -106 231
-118 246 -238 298 -50 21 -91 43 -91 48 0 4 22 36 49 70 26 34 53 71 58 81 20
39 23 110 12 254 -11 136 -11 151 6 195 10 27 30 59 43 71 24 22 27 22 66 9
22 -8 88 -40 146 -71z m-3570 72 c0 -10 -54 -141 -67 -161 -12 -19 -170 -90
-180 -80 -6 6 55 137 75 160 9 10 49 34 87 52 70 33 85 38 85 29z m2117 -25
c37 -17 76 -38 87 -48 20 -18 91 -161 83 -168 -10 -10 -168 60 -180 80 -13 20
-67 151 -67 161 0 9 9 6 77 -25z m-4894 -5 c81 -21 145 -56 195 -106 43 -44
102 -147 102 -180 0 -24 -64 -77 -129 -107 -183 -84 -408 -4 -678 241 -46 41
-96 80 -113 87 -47 19 -36 30 33 30 34 0 80 5 101 11 142 39 385 51 489 24z
m8017 -9 c36 -9 102 -19 148 -23 45 -3 82 -9 82 -13 0 -4 -14 -13 -30 -20 -17
-7 -70 -48 -118 -92 -107 -97 -253 -196 -347 -234 -60 -24 -84 -28 -170 -29
-87 0 -107 3 -155 26 -66 31 -130 84 -130 108 0 36 62 140 109 184 55 51 108
81 184 102 69 20 334 14 427 -9z m-4381 -173 c28 -18 97 -161 83 -175 -6 -6
-35 -6 -75 0 -75 10 -99 3 -161 -47 -63 -51 -70 -45 -80 69 -7 78 2 101 63
147 40 31 47 33 95 27 28 -3 62 -13 75 -21z m493 -6 c60 -46 70 -69 63 -147
-11 -114 -18 -120 -81 -69 -62 50 -86 57 -160 46 -43 -6 -69 -6 -76 1 -12 12
49 149 76 171 16 13 67 26 118 30 9 0 36 -14 60 -32z m-1324 -160 l63 -63 -20
-62 c-26 -77 -26 -108 -1 -174 11 -29 20 -54 20 -55 0 -2 -18 -3 -40 -3 -55 0
-108 -29 -162 -89 l-46 -51 -91 28 c-75 22 -91 31 -91 47 0 11 -12 91 -26 178
-19 119 -23 162 -14 171 10 11 315 133 335 135 6 0 38 -28 73 -62z m2229 -3
c95 -37 173 -72 173 -78 0 -6 -12 -90 -27 -186 l-27 -176 -91 -27 -90 -27 -20
27 c-50 70 -121 113 -186 113 -35 0 -40 2 -34 18 41 96 44 138 14 218 l-22 58
64 62 c35 34 66 62 68 63 2 1 82 -29 178 -65z m-1815 -97 c80 -55 82 -73 10
-102 -29 -12 -62 -31 -74 -43 -12 -12 -31 -45 -43 -74 -29 -72 -47 -70 -102
10 -49 72 -52 98 -23 166 16 37 28 50 62 66 68 30 99 26 170 -23z m1323 23
c36 -16 50 -28 65 -62 30 -66 26 -98 -22 -170 -55 -81 -74 -83 -104 -8 -27 68
-46 87 -114 114 -74 30 -72 48 8 103 72 49 98 52 167 23z m-664 -80 c43 0 52
-15 17 -25 -13 -4 -33 -17 -45 -28 -13 -11 -36 -20 -53 -20 -17 0 -40 9 -53
20 -12 11 -32 24 -44 28 -13 3 -23 10 -23 15 0 10 89 19 134 13 16 -1 46 -3
67 -3z m-351 -75 c-11 -12 -20 -30 -20 -41 0 -28 -37 -56 -73 -54 -66 2 -72 2
-86 -1 -7 -2 -15 1 -17 6 -3 10 105 85 123 85 5 0 24 11 43 24 41 28 61 14 30
-19z m613 -5 c18 0 126 -75 123 -85 -2 -5 -10 -9 -17 -7 -16 4 -31 4 -75 1
-39 -3 -84 27 -84 56 0 12 -9 30 -19 39 -11 10 -17 24 -14 32 4 10 13 8 41
-11 20 -14 41 -25 45 -25z m-6348 -213 c41 -317 35 -668 -16 -990 -9 -55 -13
-66 -24 -57 -25 20 -153 293 -182 385 -25 81 -28 104 -27 230 0 130 3 147 32
233 38 112 84 213 142 313 42 71 44 73 51 46 4 -15 15 -87 24 -160z m12123 45
c34 -65 78 -168 98 -228 32 -93 38 -126 42 -221 5 -126 -9 -210 -59 -339 -33
-86 -149 -314 -160 -314 -3 0 -11 33 -17 73 -58 375 -58 719 0 1095 8 55 14
70 23 62 7 -6 40 -63 73 -128z m-7618 13 l13 -95 -58 -76 c-39 -50 -61 -71
-66 -63 -13 22 -20 143 -10 177 9 31 90 151 102 152 3 0 11 -43 19 -95z m3068
35 c24 -33 48 -74 53 -92 10 -35 2 -175 -11 -183 -4 -3 -34 28 -65 69 l-57 74
13 96 c7 53 15 96 18 96 3 0 25 -27 49 -60z m-1635 -12 c17 0 48 1 67 1 19 0
50 -1 67 -1 22 -1 42 7 58 22 l24 23 11 -29 c17 -43 39 -63 77 -70 18 -3 38
-14 43 -24 13 -25 65 -44 100 -36 30 6 31 5 25 -28 -7 -36 14 -89 38 -99 8 -3
17 -21 21 -40 7 -38 27 -60 70 -77 l29 -11 -23 -24 c-13 -14 -23 -36 -22 -52
0 -15 1 -48 1 -73 0 -25 -1 -58 -1 -73 -1 -16 9 -38 22 -52 l22 -24 -35 -15
c-34 -14 -67 -58 -67 -90 0 -8 -6 -19 -13 -23 -30 -18 -49 -62 -43 -99 l7 -35
-35 7 c-36 6 -81 -12 -98 -41 -4 -7 -23 -16 -41 -19 -38 -7 -60 -27 -77 -70
l-11 -29 -24 23 c-16 15 -36 23 -58 22 -17 0 -48 -1 -67 -1 -19 0 -50 1 -67 1
-21 1 -41 -6 -56 -20 -24 -23 -37 -20 -37 8 0 24 -41 59 -77 66 -18 3 -34 12
-37 20 -9 24 -66 46 -102 39 -33 -6 -34 -5 -28 25 8 35 -11 87 -36 100 -10 5
-21 25 -24 43 -7 38 -27 60 -69 76 l-29 11 27 32 c23 27 26 38 20 67 -9 45 -9
57 0 102 6 29 3 40 -19 66 -26 31 -25 43 4 43 24 0 59 41 66 77 3 18 12 34 20
37 23 9 46 67 41 102 -5 32 -5 32 27 27 35 -5 93 18 102 41 3 8 19 17 37 20
36 7 77 42 77 66 0 28 13 31 37 8 15 -14 35 -21 56 -20z m-4550 -276 c-132
-67 -333 -116 -333 -81 0 6 -18 28 -40 50 -22 22 -40 48 -40 57 0 26 81 142
152 218 l63 67 132 -139 131 -139 -65 -33z m9605 108 c51 -77 53 -99 8 -134
-19 -14 -38 -35 -41 -46 -5 -15 -15 -20 -43 -20 -55 0 -174 36 -274 82 l-87
41 132 140 132 139 65 -69 c36 -38 84 -98 108 -133z m-5546 99 c-4 -14 -4 -21
-1 -80 1 -42 -25 -79 -57 -79 -11 0 -29 -9 -38 -19 -10 -11 -24 -17 -32 -14
-10 4 -8 13 11 41 14 20 25 41 25 45 0 18 75 126 85 123 6 -2 9 -10 7 -17z
m1158 -16 c42 -77 55 -99 77 -135 17 -28 19 -37 8 -41 -7 -3 -21 3 -31 14 -9
10 -27 19 -39 19 -24 0 -57 40 -55 68 0 9 0 38 0 65 0 26 5 47 10 47 5 0 19
-17 30 -37z m-2525 -8 c72 -8 135 -15 142 -15 13 0 15 -7 38 -193 14 -115 14
-130 0 -149 -19 -29 -19 -107 0 -135 14 -20 13 -38 -4 -178 -11 -86 -21 -159
-23 -161 -5 -4 -262 -33 -323 -35 -26 -2 -65 8 -110 28 l-70 31 -85 168 c-67
133 -92 173 -117 189 -18 11 -32 22 -32 25 0 3 14 14 32 25 25 16 50 56 117
189 l85 168 65 29 c76 33 104 35 285 14z m4148 -19 l57 -28 80 -164 c66 -134
87 -168 115 -187 19 -12 35 -24 35 -27 0 -3 -16 -15 -35 -27 -27 -18 -50 -55
-117 -190 l-83 -167 -72 -31 -72 -31 -177 18 c-97 10 -178 19 -180 21 -2 1
-12 72 -23 157 -17 135 -18 157 -5 182 8 15 14 45 14 68 0 23 -6 53 -14 68
-13 25 -12 47 5 182 11 85 21 155 22 157 2 1 59 9 127 17 173 20 251 16 323
-18z m-3040 -22 c25 -8 21 -26 -14 -70 -50 -62 -58 -90 -47 -163 6 -41 6 -67
0 -73 -14 -14 -157 54 -175 83 -8 13 -18 47 -21 75 -6 48 -4 55 27 95 46 61
69 70 147 63 36 -3 73 -8 83 -10z m1824 -6 c9 -7 29 -31 45 -52 25 -35 28 -45
22 -90 -3 -28 -13 -62 -21 -75 -18 -29 -161 -97 -175 -83 -6 6 -6 32 0 73 11
73 3 101 -47 163 -48 60 -43 69 49 80 54 6 109 -1 127 -16z m-2322 -104 c33
-9 70 -18 81 -21 17 -4 23 -15 28 -55 4 -28 16 -68 26 -88 18 -35 72 -90 102
-104 10 -5 10 -7 -2 -12 -8 -4 -34 -25 -56 -48 -41 -40 -74 -117 -74 -171 0
-23 -14 -29 -128 -55 -63 -15 -45 -29 -181 140 -58 71 -100 132 -99 142 4 24
217 288 231 288 7 -1 39 -8 72 -16z m2830 -129 l117 -145 -117 -145 c-64 -80
-122 -145 -129 -145 -6 1 -38 8 -71 16 -33 9 -70 18 -81 21 -17 4 -23 15 -27
53 -8 65 -38 120 -87 163 l-41 35 54 53 c53 54 77 107 77 172 0 19 7 26 33 32
17 5 55 14 82 20 28 7 55 13 61 14 7 0 65 -64 129 -144z m-4330 -132 c7 -9 7
-17 0 -26 -6 -7 -41 -61 -80 -120 -38 -58 -73 -106 -76 -107 -12 0 -31 95 -36
185 -6 94 9 241 28 276 10 19 17 10 82 -87 40 -59 76 -114 82 -121z m5807 175
c26 -103 11 -428 -21 -428 -3 0 -28 35 -54 78 -26 42 -61 96 -79 120 l-32 42
32 43 c18 23 54 77 80 119 26 43 50 77 54 78 3 0 12 -24 20 -52z m-6310 -76
c35 -11 89 -23 121 -27 l57 -6 0 -78 0 -78 -31 -7 c-17 -3 -42 -6 -54 -6 -44
0 -155 -41 -197 -73 -53 -41 -64 -38 -203 53 -55 36 -119 74 -142 84 -48 21
-53 31 -20 40 12 3 76 40 142 83 161 105 169 107 222 67 23 -18 70 -41 105
-52z m6943 -2 c55 -36 119 -74 143 -84 23 -10 42 -22 42 -26 0 -4 -23 -17 -52
-31 -28 -13 -92 -52 -142 -86 -50 -35 -98 -63 -106 -63 -9 0 -21 -5 -27 -11
-8 -8 -24 -1 -57 25 -51 39 -138 69 -228 80 l-58 7 0 79 0 79 58 6 c105 12
215 55 251 98 17 21 55 5 176 -73z m-7839 51 c61 -44 144 -137 144 -161 0 -24
-105 -139 -157 -171 -28 -18 -42 -19 -119 -13 -75 6 -102 14 -188 54 -126 59
-233 96 -322 111 -103 17 -141 4 -226 -81 l-68 -69 -55 77 c-30 42 -54 84 -54
92 0 8 24 50 54 92 l55 77 68 -69 c79 -79 121 -96 211 -85 76 9 209 54 328
111 72 35 115 49 163 54 118 12 125 11 166 -19z m8748 -31 c135 -64 226 -95
316 -110 110 -18 146 -6 232 80 l68 69 55 -77 c30 -42 55 -83 55 -90 0 -7 -19
-41 -41 -75 -72 -106 -61 -104 -138 -27 -84 85 -122 98 -225 81 -88 -15 -194
-51 -322 -111 -86 -40 -113 -48 -188 -54 -77 -6 -90 -5 -119 13 -50 30 -157
147 -157 169 0 24 87 122 144 164 39 28 42 28 130 22 79 -6 102 -13 190 -54z
m-5239 -32 c4 -13 17 -33 28 -45 11 -13 20 -36 20 -53 0 -17 -9 -40 -20 -53
-11 -12 -24 -32 -28 -44 -3 -13 -12 -23 -18 -23 -9 0 -12 34 -12 120 0 86 3
120 12 120 6 0 15 -10 18 -22z m1440 -98 c0 -86 -3 -120 -12 -120 -6 0 -15 10
-18 23 -4 12 -17 32 -28 44 -11 13 -20 36 -20 53 0 17 9 40 20 53 11 12 24 32
28 45 3 12 12 22 18 22 9 0 12 -34 12 -120z m-1613 -161 l-4 -84 41 -55 c23
-30 41 -60 41 -67 0 -17 -36 -25 -119 -27 -76 -1 -100 12 -142 81 -18 29 -19
39 -10 89 6 31 16 64 23 72 16 19 149 83 163 78 6 -2 9 -37 7 -87z m1880 40
c48 -24 64 -51 73 -115 6 -47 4 -54 -27 -95 -47 -61 -70 -71 -148 -64 -117 11
-118 14 -62 89 48 64 52 78 40 156 -14 89 -1 92 124 29z m-3593 9 c46 -31 54
-43 112 -167 87 -184 104 -205 197 -248 42 -19 87 -39 100 -44 22 -8 21 -11
-38 -87 -77 -101 -82 -127 -68 -334 12 -154 11 -158 -11 -205 -12 -26 -33 -56
-45 -65 -21 -15 -26 -15 -80 7 -32 13 -115 55 -184 93 -113 62 -295 142 -322
142 -19 0 -10 13 61 87 88 94 114 151 93 208 -15 38 -139 98 -252 120 l-33 7
33 36 c61 68 124 156 192 269 91 152 140 213 171 213 14 0 47 -15 74 -32z
m5332 -31 c25 -34 76 -111 112 -172 36 -60 97 -149 135 -197 l70 -86 -51 -13
c-139 -32 -237 -94 -237 -148 1 -47 38 -111 107 -182 36 -38 64 -70 62 -72 -2
-2 -47 -20 -99 -40 -52 -20 -153 -69 -225 -107 -71 -39 -157 -81 -189 -94 -56
-23 -61 -23 -82 -8 -12 10 -32 41 -45 71 -22 54 -22 57 -10 202 13 143 9 214
-12 254 -5 10 -32 47 -58 81 -27 34 -49 66 -49 70 0 5 28 20 61 34 107 44 123
54 161 105 21 27 61 103 90 168 47 106 59 124 103 158 74 58 99 54 156 -24z
m-6607 13 c30 -12 110 -57 177 -100 67 -44 127 -80 134 -80 23 0 38 -47 32
-100 -8 -67 -49 -139 -109 -195 -26 -24 -48 -51 -48 -59 0 -13 -10 -15 -59
-10 -74 8 -174 -9 -272 -47 -96 -37 -260 -145 -360 -238 -45 -41 -123 -97
-190 -136 -63 -37 -120 -72 -128 -78 -24 -20 -32 -58 -21 -93 19 -58 38 -64
195 -64 117 0 159 -4 255 -27 101 -24 136 -27 285 -27 159 0 175 1 252 27 45
15 106 44 135 63 46 31 55 34 73 23 11 -7 42 -16 69 -20 103 -17 234 -129 220
-187 -4 -15 -15 -39 -26 -54 -10 -15 -35 -62 -54 -105 -45 -98 -116 -206 -154
-233 l-29 -20 -78 27 c-62 21 -97 27 -173 27 l-96 1 -71 -49 c-53 -36 -76 -46
-85 -39 -7 6 -35 15 -63 22 -80 19 -348 102 -375 117 -14 7 -49 20 -78 29
-114 36 -265 171 -375 336 -56 84 -57 88 -57 155 0 82 23 238 46 314 24 82 69
164 122 225 26 29 67 78 90 108 24 30 97 110 163 177 l119 123 77 -6 c49 -3
90 -1 110 6 50 18 150 96 200 154 52 60 65 63 147 33z m7912 -60 c51 -53 98
-90 138 -110 56 -28 64 -30 138 -24 l79 7 126 -129 c129 -132 272 -301 311
-366 56 -91 102 -292 102 -443 l0 -80 -65 -96 c-113 -167 -248 -287 -368 -324
-29 -9 -63 -22 -77 -30 -26 -14 -330 -107 -390 -120 -19 -4 -40 -12 -47 -17
-9 -7 -34 4 -84 38 -55 36 -83 48 -121 52 -60 6 -172 -13 -246 -40 -52 -19
-52 -19 -78 1 -46 36 -85 94 -146 216 -33 66 -66 127 -73 135 -21 24 -21 64 0
97 39 62 153 133 212 133 14 0 37 7 52 16 26 15 28 14 79 -20 30 -20 90 -48
135 -63 77 -26 93 -27 252 -27 144 0 185 4 270 24 74 18 141 25 261 29 181 7
198 13 210 77 10 52 -13 76 -148 155 -68 40 -150 97 -183 129 -133 125 -279
218 -420 266 -66 23 -98 28 -182 28 -85 1 -103 4 -103 16 0 8 -22 34 -49 57
-56 48 -98 124 -107 194 -8 58 5 83 58 110 22 11 82 48 131 82 97 65 185 106
228 107 20 0 46 -19 105 -80z m-8816 10 c36 -12 100 -38 143 -57 l77 -36 -62
-66 c-35 -37 -94 -100 -133 -140 l-69 -74 -63 66 c-70 74 -153 193 -153 219 0
9 18 35 40 57 22 22 40 45 40 52 0 17 101 6 180 -21z m9725 10 c3 -11 22 -32
41 -46 23 -18 34 -35 34 -52 0 -31 -91 -158 -163 -230 l-54 -53 -131 139 -132
139 78 35 c42 20 106 45 142 56 36 12 72 23 80 26 8 2 34 5 57 5 33 1 43 -3
48 -19z m-8065 -89 c5 -21 21 -55 35 -76 l26 -37 -28 -37 c-15 -20 -62 -72
-105 -116 -60 -61 -78 -86 -78 -108 0 -43 36 -72 110 -86 104 -20 220 -52 227
-64 3 -6 -46 -60 -110 -121 -126 -120 -136 -139 -97 -188 13 -17 33 -27 63
-31 23 -3 88 -22 143 -42 l101 -36 -5 -47 c-2 -26 1 -65 6 -85 l11 -37 -49
-25 c-64 -33 -129 -46 -184 -39 -42 6 -46 10 -71 60 -44 89 -178 190 -281 212
-40 8 -40 6 0 92 34 74 40 155 15 205 -12 26 -104 104 -154 132 -13 7 -8 17
28 55 81 88 132 217 125 321 -3 50 -2 51 39 80 47 33 117 55 180 56 41 1 43 0
53 -38z m6388 19 c23 -7 60 -29 82 -47 34 -30 38 -37 29 -55 -15 -29 6 -143
41 -217 16 -34 52 -86 80 -115 l50 -53 -27 -12 c-49 -23 -143 -105 -149 -131
-3 -14 -10 -37 -16 -51 -12 -33 3 -91 43 -171 16 -31 25 -59 21 -61 -4 -3 -23
-8 -42 -12 -98 -20 -243 -133 -279 -218 -18 -41 -23 -45 -64 -51 -54 -8 -82
-3 -165 31 l-63 26 8 46 c4 25 6 65 6 88 l-1 42 66 24 c108 40 164 57 189 57
34 0 63 34 63 74 0 31 -11 44 -100 127 -55 51 -107 103 -115 116 -15 22 -14
24 12 34 15 6 83 23 150 38 138 31 163 46 163 99 0 28 -8 42 -41 71 -22 20
-70 71 -106 114 l-65 77 24 29 c14 16 31 50 38 76 l13 47 56 -5 c31 -2 75 -10
99 -17z m-4823 -85 l58 -75 -13 -95 c-7 -52 -15 -95 -19 -95 -12 1 -92 120
-102 152 -12 39 1 188 16 188 1 0 29 -34 60 -75z m932 35 c33 0 55 -44 55
-113 1 -33 -3 -62 -8 -63 -9 -3 -84 107 -84 123 0 4 -11 25 -25 45 -28 41 -15
59 21 27 11 -11 30 -19 41 -19z m1290 -8 c-22 -36 -35 -58 -77 -134 -11 -21
-25 -38 -30 -38 -5 0 -10 21 -10 48 0 26 0 55 0 66 -1 23 38 66 60 66 9 0 25
9 34 19 10 11 24 17 31 14 11 -4 9 -13 -8 -41z m948 -29 c4 -55 2 -89 -7 -116
-16 -45 -90 -149 -99 -139 -11 12 -31 171 -23 185 16 29 109 147 115 147 4 0
10 -35 14 -77z m-2758 -113 c54 -61 108 -90 163 -90 22 0 40 -1 40 -2 0 -2 -9
-27 -20 -56 -25 -66 -25 -97 1 -174 l20 -61 -64 -65 -64 -64 -119 45 c-257 97
-237 87 -231 121 3 17 15 101 28 187 l23 155 86 26 c47 14 87 26 88 27 2 1 24
-22 49 -49z m2408 20 l81 -24 27 -176 c15 -96 27 -180 27 -186 0 -6 -79 -42
-175 -79 l-175 -68 -66 65 -67 65 22 57 c30 80 27 122 -14 219 -6 15 -1 17 36
17 57 0 134 44 174 99 17 22 35 39 40 38 6 -2 46 -14 90 -27z m-1959 -150 c27
-68 46 -87 114 -114 75 -30 73 -49 -8 -103 -72 -49 -104 -53 -170 -23 -34 15
-46 29 -62 65 -33 76 -28 97 38 188 20 28 41 47 50 45 9 -2 26 -28 38 -58z
m1471 -8 c49 -72 53 -104 23 -170 -15 -33 -29 -47 -62 -62 -66 -30 -98 -26
-170 23 -83 57 -82 73 2 106 68 27 87 50 119 142 15 44 38 34 88 -39z m-2427
-79 c46 -62 87 -113 93 -113 5 0 7 -13 3 -31 -8 -41 25 -105 70 -131 18 -11
34 -26 34 -32 0 -7 25 -71 56 -142 l55 -129 -25 -21 c-13 -12 -78 -60 -144
-107 -117 -85 -120 -86 -198 -96 -79 -10 -79 -10 -131 22 -29 18 -97 63 -152
101 -77 53 -109 69 -145 73 -51 6 -52 8 -31 49 18 35 19 68 3 255 l-12 146 50
68 c34 47 61 73 89 85 192 87 291 127 296 122 3 -4 43 -58 89 -119z m3574 39
c125 -55 130 -59 177 -121 56 -74 57 -77 38 -296 -11 -124 -11 -133 9 -178
l21 -47 -35 0 c-45 0 -96 -26 -214 -110 -138 -98 -143 -100 -226 -90 -38 5
-72 9 -76 10 -8 0 -256 177 -280 200 -16 15 -14 23 37 141 30 68 55 132 55
142 0 10 14 24 33 33 38 18 77 80 77 122 0 22 25 63 93 154 l92 124 35 -14
c19 -7 93 -39 164 -70z m-2246 40 c12 -8 22 -24 22 -37 0 -12 9 -30 19 -39 11
-10 17 -24 14 -32 -4 -10 -13 -8 -41 11 -20 14 -41 25 -47 25 -6 0 -27 12 -46
26 -19 14 -44 30 -56 35 -35 13 -28 32 10 27 17 -3 41 -2 52 2 22 8 38 4 73
-18z m750 15 c44 7 41 -12 -5 -37 -77 -42 -99 -55 -135 -77 -28 -17 -37 -19
-41 -8 -3 7 3 21 14 31 10 9 19 25 19 34 0 18 35 54 60 62 8 3 24 2 35 -2 11
-4 35 -5 53 -3z m-383 -117 c11 -10 30 -21 43 -25 12 -3 22 -12 22 -18 0 -9
-34 -12 -120 -12 -86 0 -120 3 -120 12 0 6 10 15 23 18 12 4 31 15 42 25 38
34 72 34 110 0z m-369 -151 c62 -50 90 -58 163 -47 41 6 67 6 73 0 14 -14 -54
-156 -83 -175 -13 -8 -47 -18 -75 -22 -47 -6 -54 -4 -95 27 -61 47 -71 70 -63
148 10 114 17 120 80 69z m707 -51 c10 -93 1 -118 -62 -166 -41 -31 -48 -33
-95 -27 -72 10 -94 27 -131 108 -42 91 -39 100 34 91 87 -12 107 -8 164 36 28
22 59 39 67 37 11 -2 17 -23 23 -79z m-4023 40 c65 -29 130 -83 130 -107 0
-23 -45 -115 -76 -156 -56 -74 -178 -132 -304 -144 -89 -10 -257 3 -349 26
-36 8 -102 19 -146 22 l-80 6 44 29 c24 15 85 64 135 108 142 126 252 194 371
230 86 26 202 20 275 -14z m7523 17 c118 -31 262 -120 414 -258 46 -41 96 -80
113 -87 16 -7 30 -16 30 -20 0 -4 -35 -10 -77 -13 -43 -2 -121 -14 -173 -26
-119 -27 -316 -30 -403 -7 -126 34 -223 112 -272 219 -31 64 -31 78 -2 104
105 94 232 124 370 88z m-4653 -125 c70 -25 124 -25 179 0 24 11 45 20 47 20
2 0 4 -17 4 -37 1 -56 31 -113 88 -164 l51 -46 -26 -89 -26 -90 -180 -28
c-209 -33 -189 -39 -233 78 -15 39 -42 109 -61 155 l-33 85 27 30 c65 72 97
106 103 106 3 -1 30 -9 60 -20z m1348 0 c67 -25 107 -25 178 1 l56 21 65 -63
c46 -47 63 -69 60 -84 -6 -26 -124 -325 -131 -332 -3 -3 -87 7 -187 23 l-182
29 -28 89 -28 90 22 15 c38 26 89 84 103 118 8 18 14 51 14 73 0 22 1 40 3 40
1 0 26 -9 55 -20z m-1743 -114 l71 -33 32 -83 c18 -45 31 -85 28 -87 -7 -8
-150 63 -168 83 -16 18 -78 145 -78 159 0 9 36 -3 115 -39z m2420 23 c-19 -57
-56 -127 -81 -151 -27 -24 -152 -84 -160 -75 -6 6 55 156 71 175 5 6 160 72
168 72 5 0 5 -9 2 -21z m-1216 -92 c36 -39 93 -67 152 -74 27 -3 49 -7 49 -8
0 -1 9 -38 20 -81 11 -44 20 -84 20 -90 0 -10 -132 -124 -246 -211 -49 -38
-33 -45 -213 101 -99 81 -121 103 -117 120 2 12 12 53 22 92 l17 72 48 5 c70
8 114 33 162 88 36 42 43 46 51 31 5 -9 20 -30 35 -45z m-2549 -238 c75 -32
70 -14 56 -207 l-9 -123 -29 28 c-73 68 -195 284 -205 362 l-6 42 64 -37 c35
-21 93 -50 129 -65z m5183 39 c-30 -104 -128 -271 -196 -336 l-34 -33 -6 113
c-4 62 -10 130 -13 151 -6 34 -4 39 17 44 13 3 69 30 124 59 55 29 105 53 112
53 9 1 8 -13 -4 -51z m-7763 -10 c0 -11 4 -28 10 -38 17 -31 -10 -43 -85 -35
-36 4 -65 11 -65 15 0 9 63 60 94 77 26 14 46 6 46 -19z m10257 -14 c29 -20
53 -40 53 -44 0 -4 -32 -11 -71 -14 -79 -8 -106 2 -89 34 6 10 10 28 10 39 0
32 37 26 97 -15z m-6282 -29 c70 -30 134 -55 141 -55 7 0 21 -16 32 -34 23
-38 91 -79 125 -75 15 2 65 -29 148 -91 110 -82 126 -97 119 -115 -5 -11 -37
-85 -72 -164 -62 -142 -64 -145 -127 -193 -74 -55 -71 -55 -282 -36 -122 10
-141 10 -181 -5 -24 -9 -46 -17 -50 -17 -3 0 -8 21 -11 46 -4 37 -24 74 -106
196 -82 121 -101 155 -97 176 3 15 8 51 11 80 6 45 18 69 88 165 62 87 130
177 132 177 0 0 59 -25 130 -55z m2387 -2 c153 -201 168 -227 178 -308 11 -91
8 -101 -92 -240 -81 -113 -108 -165 -108 -209 l0 -36 -42 22 c-40 21 -45 21
-187 10 -223 -18 -217 -19 -289 36 -59 44 -66 54 -113 157 -28 61 -61 135 -73
166 l-23 56 21 13 c11 7 67 49 124 93 83 64 111 80 141 81 44 2 95 36 116 77
9 16 23 29 33 30 9 0 71 24 137 54 66 29 123 53 127 54 4 0 26 -25 50 -56z
m-3431 -12 c20 -5 81 -40 135 -79 176 -125 206 -134 364 -113 36 5 66 8 66 7
1 0 -3 -50 -9 -109 -11 -108 -11 -108 17 -165 16 -31 54 -93 86 -137 89 -124
100 -145 100 -195 0 -66 -10 -90 -39 -102 -14 -5 -120 -14 -236 -18 -115 -5
-246 -16 -290 -24 -44 -9 -83 -16 -86 -16 -3 0 5 37 18 83 31 106 29 205 -5
240 -20 19 -33 22 -105 22 -55 -1 -104 -8 -149 -22 -38 -12 -68 -20 -68 -20 0
1 7 38 16 82 9 44 20 175 25 290 4 116 11 222 15 236 10 44 65 59 145 40z
m4413 -2 c13 -6 27 -21 31 -33 3 -11 10 -113 15 -226 5 -113 16 -243 24 -290
9 -47 16 -88 16 -91 0 -4 -28 2 -62 13 -85 26 -176 34 -222 18 -71 -23 -84
-124 -37 -277 11 -35 18 -63 18 -63 -1 0 -40 7 -87 16 -47 8 -179 19 -295 24
-115 5 -220 12 -232 15 -32 10 -46 55 -38 117 6 44 22 74 96 182 102 149 123
201 109 279 -4 29 -11 71 -13 94 -5 40 -3 43 16 38 40 -8 162 -18 187 -16 41
4 103 38 218 118 59 42 121 79 137 83 46 12 91 11 119 -1z m-7788 -88 c-10
-11 -50 -36 -89 -57 -64 -33 -82 -38 -158 -42 -48 -2 -94 0 -103 5 -15 8 -12
13 20 38 71 54 138 74 248 75 97 0 99 0 82 -19z m11276 1 c26 -9 68 -32 94
-50 59 -42 48 -52 -56 -52 -56 0 -90 7 -133 24 -63 26 -137 73 -137 87 0 17
182 9 232 -9z m-6075 -58 c40 -31 71 -60 68 -64 -8 -13 -148 -21 -183 -11 -32
9 -151 90 -152 102 0 6 114 24 169 28 16 0 51 -19 98 -55z m856 40 c31 -4 57
-10 57 -13 0 -12 -110 -86 -147 -99 -39 -13 -178 -8 -188 8 -2 4 30 33 72 65
69 51 81 56 113 51 19 -3 61 -8 93 -12z m-3253 -66 c34 -59 38 -73 26 -80 -39
-22 -120 -93 -145 -129 -16 -22 -38 -60 -48 -85 l-18 -45 -197 3 c-109 2 -198
4 -198 5 0 1 12 19 26 40 14 21 50 85 80 143 80 157 76 153 170 151 80 -2 176
20 234 54 14 8 26 14 27 15 1 0 20 -32 43 -72z m5724 5 c77 -2 103 -6 118 -19
10 -10 40 -63 67 -118 27 -56 64 -123 82 -151 l34 -50 -197 -3 -197 -2 -27 57
c-30 63 -93 135 -154 178 -22 15 -40 33 -40 39 0 6 16 39 36 72 l36 61 72 -31
c61 -26 85 -31 170 -33z m-8271 32 c100 -19 223 -19 259 -1 26 14 27 13 90
-67 77 -98 186 -193 276 -240 l68 -36 -23 -91 c-22 -89 -48 -324 -37 -342 3
-5 -5 -17 -17 -27 -19 -15 -24 -33 -33 -120 -5 -56 -13 -100 -16 -99 -3 2 -33
14 -68 28 l-62 25 2 145 c2 132 0 149 -20 187 -27 53 -72 84 -127 91 -59 6
-88 -3 -129 -39 -47 -41 -71 -106 -70 -194 1 -81 20 -136 58 -160 22 -15 31
-15 56 -5 37 15 47 48 31 100 -27 92 3 189 50 159 11 -7 14 -42 14 -172 0
-176 6 -200 56 -224 13 -6 66 -30 117 -54 50 -23 92 -46 92 -51 0 -5 -5 -63
-11 -129 -14 -159 -11 -165 150 -249 125 -64 157 -89 148 -115 -15 -38 -120
-3 -167 58 -36 45 -110 31 -121 -23 -15 -76 135 -190 251 -190 99 0 172 70
172 165 0 86 -50 139 -203 216 l-100 50 7 72 c4 40 8 74 10 76 2 2 40 -13 85
-33 61 -28 92 -37 118 -34 26 3 48 -3 81 -22 86 -50 241 -111 341 -134 25 -5
26 -6 21 -83 -5 -99 22 -237 73 -363 33 -83 35 -94 21 -102 -46 -26 -105 -127
-145 -249 l-21 -65 -58 -18 c-153 -48 -291 -152 -350 -265 -18 -32 -32 -66
-32 -74 0 -8 -8 -25 -18 -37 -18 -22 -18 -22 -64 76 -62 132 -106 241 -185
453 -146 394 -275 689 -347 794 -14 21 -26 42 -26 46 0 23 -214 327 -338 481
-78 96 -203 252 -279 346 -76 94 -167 213 -202 263 l-63 92 105 -7 c71 -4 122
-3 158 6 86 19 188 73 264 138 39 33 72 61 75 61 3 1 40 -6 83 -14z m10380
-15 c41 0 111 7 156 15 l80 16 73 -61 c79 -67 182 -121 267 -140 36 -9 87 -10
158 -6 l105 7 -43 -63 c-72 -107 -182 -248 -360 -465 -245 -297 -385 -486
-466 -631 -100 -178 -128 -230 -164 -309 -52 -112 -124 -291 -204 -508 -89
-241 -139 -364 -197 -487 -41 -87 -54 -106 -65 -97 -7 6 -13 17 -13 23 0 32
-66 144 -117 197 -70 73 -142 118 -250 156 l-82 28 -33 93 c-29 86 -90 202
-106 202 -4 0 -15 7 -25 14 -16 13 -16 18 12 87 56 141 75 225 75 347 1 112 1
113 26 118 107 25 271 89 347 137 27 17 48 23 74 19 26 -3 57 6 118 34 45 20
83 35 85 33 2 -2 7 -36 11 -76 l7 -72 -100 -50 c-157 -79 -202 -127 -202 -219
0 -127 124 -194 261 -143 66 25 141 87 159 131 11 28 11 34 -7 58 -14 19 -31
28 -55 30 -30 3 -39 -2 -58 -28 -40 -56 -152 -93 -167 -55 -9 26 23 51 149
116 153 79 161 91 153 209 -3 47 -8 105 -11 131 l-5 45 93 43 c51 23 104 48
118 54 51 25 62 68 55 213 -3 73 -3 143 0 157 8 32 34 42 54 22 16 -15 18 -66
9 -189 -3 -32 2 -42 24 -59 77 -57 149 80 118 226 -13 66 -42 113 -90 145 -46
31 -130 28 -179 -8 -60 -42 -74 -94 -73 -255 l2 -140 -53 -22 c-93 -40 -87
-40 -87 8 0 69 -18 160 -35 179 -11 12 -17 44 -20 101 -6 113 -22 221 -45 296
l-18 63 69 36 c94 49 189 132 273 236 l70 87 27 -15 c17 -8 57 -14 102 -14z
m-5179 -195 c25 -19 99 -19 135 -1 25 13 46 13 181 -5 85 -11 155 -21 157 -23
2 -2 12 -81 22 -177 l19 -174 -32 -75 -32 -75 -167 -83 c-135 -67 -172 -90
-190 -117 -12 -19 -24 -35 -27 -34 -3 0 -14 14 -25 32 -16 25 -56 50 -189 117
l-169 85 -30 74 -31 74 18 176 c9 96 19 177 20 179 3 2 272 38 306 40 8 1 24
-5 34 -13z m-2405 -95 c20 0 20 2 -5 -135 -8 -44 -22 -99 -31 -122 -13 -35
-13 -48 -3 -72 21 -52 55 -55 181 -16 61 19 128 38 150 41 37 6 39 5 39 -20 0
-14 -16 -75 -35 -135 -41 -128 -44 -172 -12 -201 25 -24 39 -23 154 9 40 11
99 23 132 27 56 6 59 5 66 -17 4 -13 24 -45 45 -70 l39 -46 -35 -52 c-39 -57
-97 -104 -152 -122 -27 -9 -37 -9 -40 0 -5 16 -77 51 -137 67 -65 18 -180 18
-237 0 l-46 -13 -7 66 c-18 183 -69 233 -245 244 -30 2 -57 5 -59 8 -2 2 2 24
9 49 7 26 11 84 8 140 -3 81 -8 105 -35 163 -18 37 -37 67 -43 67 -6 0 -8 11
-4 28 13 54 56 114 115 157 l60 44 55 -44 c30 -25 63 -45 73 -45z m5172 10
c25 -26 54 -66 64 -93 l17 -46 -26 -31 c-58 -70 -84 -248 -51 -356 8 -27 15
-49 15 -49 0 0 -30 -1 -68 -3 -97 -4 -141 -19 -184 -61 -42 -43 -57 -92 -58
-188 0 -35 -1 -63 -3 -63 -2 0 -25 7 -51 16 -36 12 -70 15 -139 11 -122 -7
-153 -17 -239 -79 -13 -10 -27 -7 -75 18 -43 22 -70 46 -106 93 l-47 63 40 45
c22 26 43 57 46 70 5 17 13 23 33 23 37 -1 200 -35 237 -50 42 -18 80 -6 99
31 15 29 14 36 -24 166 -53 176 -53 177 4 169 25 -4 84 -21 132 -37 98 -33
138 -38 171 -20 31 16 38 56 19 110 -19 53 -47 189 -47 224 0 18 7 27 24 31
12 3 43 23 67 45 44 39 44 39 74 22 16 -9 50 -36 76 -61z m-6991 -145 c79 -25
159 -48 177 -51 18 -3 33 -10 33 -14 0 -28 -174 -236 -229 -275 -40 -27 -41
-27 -75 -11 -19 9 -45 16 -58 16 -14 0 -33 9 -42 19 -16 18 -17 29 -7 122 12
105 40 239 50 239 4 0 71 -20 151 -45z m8754 -21 c9 -37 22 -113 28 -170 11
-96 11 -105 -7 -124 -10 -11 -29 -20 -42 -20 -13 0 -37 -7 -53 -15 -27 -14
-33 -14 -60 0 -41 21 -127 112 -194 204 -31 43 -56 81 -56 85 0 3 10 6 23 7
12 0 90 22 172 49 83 26 155 48 161 49 6 1 19 -29 28 -65z m-8101 10 c93 -24
117 -39 117 -75 0 -46 -29 -151 -53 -194 -16 -27 -40 -48 -87 -73 -59 -32 -79
-37 -219 -53 -195 -22 -284 -43 -358 -84 -65 -36 -103 -83 -103 -129 -1 -17
-7 -42 -15 -56 -8 -14 -14 -35 -15 -47 0 -13 -2 -23 -5 -23 -2 0 -45 19 -95
42 l-92 42 7 95 c4 53 9 99 11 103 4 6 26 1 130 -28 30 -9 63 -12 80 -8 103
25 212 127 353 334 37 55 70 88 119 122 77 54 119 60 225 32z m7494 -28 c52
-34 80 -61 118 -117 59 -86 161 -213 201 -250 89 -82 160 -108 237 -86 93 27
131 36 133 34 2 -1 6 -48 10 -103 l7 -100 -91 -42 c-50 -23 -93 -42 -95 -42
-3 0 -7 12 -10 28 -28 139 -41 169 -92 207 -67 52 -223 89 -455 110 -83 8
-211 62 -236 100 -22 34 -54 134 -61 192 l-6 53 39 16 c64 28 126 42 181 43
46 1 61 -5 120 -43z m-6736 -47 c44 -23 68 -165 43 -249 -9 -30 -17 -70 -19
-89 -2 -30 -8 -36 -51 -57 -74 -36 -155 -104 -213 -180 -65 -86 -150 -259
-189 -385 -19 -60 -54 -138 -96 -211 -86 -150 -89 -167 -42 -214 47 -47 66
-44 211 40 72 41 153 78 233 105 153 51 283 117 378 192 72 58 150 154 176
218 11 28 19 34 48 36 19 2 60 10 90 19 60 18 113 15 193 -10 26 -9 52 -24 57
-34 15 -28 23 -362 10 -423 -6 -29 -14 -58 -19 -65 -4 -7 -38 -19 -76 -27 -87
-19 -165 -48 -216 -82 -30 -20 -50 -46 -79 -104 -35 -68 -43 -77 -72 -82 -18
-3 -116 -26 -218 -50 -232 -56 -336 -71 -442 -65 -99 7 -225 46 -357 113 l-91
45 -46 91 c-66 132 -104 257 -111 362 -7 104 2 164 63 427 25 107 48 210 51
228 5 30 13 37 80 70 56 27 81 46 103 78 38 54 65 123 84 213 8 40 17 75 20
78 3 4 27 12 53 19 36 11 94 12 238 8 105 -3 197 -10 206 -15z m6186 11 c26
-6 54 -14 61 -19 7 -4 19 -38 27 -76 19 -90 49 -168 85 -219 22 -32 47 -51
103 -78 67 -33 75 -40 80 -70 3 -18 26 -116 50 -218 56 -232 71 -336 65 -442
-7 -99 -46 -225 -113 -357 l-45 -91 -91 -45 c-49 -25 -131 -60 -182 -77 -82
-28 -105 -32 -207 -32 -139 -1 -214 10 -430 64 -91 23 -180 44 -198 47 -30 5
-37 13 -70 80 -27 56 -46 81 -78 103 -54 38 -123 65 -214 84 -40 8 -77 21 -81
28 -24 37 -31 128 -24 300 8 200 10 205 83 226 74 21 126 23 182 6 30 -9 70
-17 89 -19 29 -2 36 -8 60 -54 88 -172 264 -299 543 -392 80 -27 161 -64 233
-105 145 -84 164 -87 211 -40 47 47 44 66 -40 211 -41 72 -78 153 -105 233
-93 280 -229 467 -398 547 -41 20 -50 29 -46 44 3 11 -3 41 -13 66 -21 55 -23
143 -6 205 23 80 30 84 145 91 178 10 275 9 324 -1z m-2519 -242 c30 -6 102
-5 204 3 155 13 158 12 205 -10 26 -12 55 -33 65 -45 15 -21 15 -26 -12 -92
-16 -38 -56 -118 -89 -179 -59 -106 -131 -265 -131 -288 0 -7 -4 -19 -10 -27
-7 -11 -22 -1 -77 51 -74 72 -136 109 -181 109 -58 0 -118 -95 -151 -237 l-13
-52 -74 62 c-40 34 -113 86 -161 116 -313 193 -317 197 -246 293 28 38 51 57
97 78 216 96 286 144 307 207 6 20 23 60 36 89 l24 53 80 -61 c57 -44 92 -63
127 -70z m-1324 31 c25 -56 50 -99 70 -116 17 -15 95 -57 174 -95 126 -61 146
-74 177 -116 53 -72 48 -97 -28 -153 -34 -26 -111 -75 -171 -110 -59 -35 -148
-96 -196 -136 l-88 -71 -17 71 c-21 88 -61 172 -93 198 -53 41 -129 13 -233
-87 -66 -65 -79 -73 -79 -53 0 27 -77 203 -133 303 -33 59 -75 142 -93 184
-31 72 -32 76 -16 98 9 13 40 33 67 45 49 22 53 22 205 10 86 -7 168 -10 183
-7 15 3 37 8 50 11 13 2 54 29 92 59 39 30 75 55 80 55 6 1 28 -40 49 -90z
m-830 -249 c18 -41 47 -99 65 -129 l32 -54 -41 6 c-50 6 -168 61 -252 118 -67
44 -128 98 -128 111 0 4 28 8 63 9 34 1 89 5 122 9 104 13 102 14 139 -70z
m2954 64 l113 -7 -33 -34 c-44 -46 -148 -115 -240 -158 -74 -35 -155 -57 -147
-39 3 5 31 64 64 132 l60 123 35 -5 c19 -3 86 -9 148 -12z m-6977 -220 c118
-160 198 -289 286 -459 70 -138 196 -425 188 -433 -1 -2 -41 19 -87 47 -212
125 -368 273 -437 412 -68 138 -101 311 -101 519 l1 105 34 -40 c19 -22 71
-90 116 -151z m10919 -103 c-19 -171 -65 -307 -138 -413 -44 -64 -135 -152
-226 -220 -80 -59 -245 -162 -252 -156 -12 13 214 498 286 613 74 117 182 272
254 364 l81 104 3 -99 c2 -54 -2 -141 -8 -193z m-9335 242 c-4 -10 -24 -91
-45 -181 -21 -90 -41 -166 -44 -169 -19 -20 -309 95 -327 130 -8 14 -8 30 1
58 7 20 13 47 14 60 0 12 12 30 26 40 30 23 158 56 260 68 120 14 123 13 115
-6z m7831 -13 c50 -10 112 -27 138 -38 42 -19 46 -24 46 -57 0 -20 5 -45 11
-57 23 -44 4 -67 -96 -114 -86 -40 -220 -82 -230 -72 -4 4 -73 290 -82 340
l-5 28 63 -6 c35 -3 105 -14 155 -24z m-6587 -25 c12 -12 16 -38 16 -113 0
-89 -3 -103 -32 -162 -71 -145 -238 -261 -486 -338 -51 -16 -116 -41 -145 -56
l-53 -27 30 58 c16 32 34 79 41 103 7 25 28 86 47 135 89 226 216 370 362 412
60 17 199 9 220 -12z m5405 -14 c142 -70 255 -233 336 -488 17 -54 42 -118 56
-142 13 -24 24 -45 24 -47 0 -3 -26 9 -57 25 -32 15 -85 36 -118 46 -245 70
-438 201 -508 345 -28 59 -31 74 -31 161 -1 107 7 125 57 132 80 12 179 -1
241 -32z m-4377 -254 c-27 -62 -32 -86 -34 -171 -2 -75 -6 -103 -19 -117 -9
-10 -59 -39 -110 -63 -52 -25 -119 -61 -149 -81 -30 -19 -56 -35 -58 -35 -1 0
-3 88 -5 195 l-3 194 54 26 c65 30 133 88 182 155 l36 49 68 -40 69 -39 -31
-73z m3293 10 c18 -16 59 -41 90 -57 69 -35 72 -44 58 -205 -5 -60 -6 -134 -3
-162 4 -29 4 -53 0 -53 -4 0 -25 13 -48 29 -23 15 -89 52 -146 80 -144 73
-144 73 -142 168 2 80 -15 156 -49 224 -21 40 -25 35 74 90 l49 27 42 -57 c23
-31 56 -69 75 -84z m-1693 -30 c32 -24 84 -59 116 -78 31 -18 57 -37 57 -40 0
-4 -24 -13 -52 -21 -104 -26 -428 -11 -428 21 0 4 30 24 66 46 37 21 89 56
117 77 28 21 55 38 59 38 4 0 34 -20 65 -43z m-1232 -70 c19 -54 38 -117 41
-140 8 -54 38 -87 78 -87 25 0 48 18 143 116 61 64 116 113 121 110 11 -6 44
-126 63 -226 15 -76 42 -110 90 -110 25 0 41 10 78 51 25 28 76 75 112 105
l67 55 37 -26 c21 -14 56 -30 78 -37 l40 -12 -6 -65 c-6 -75 -25 -125 -62
-170 -24 -28 -30 -30 -69 -25 -88 13 -232 -44 -319 -124 -46 -44 -50 -46 -61
-28 -37 64 -106 142 -132 150 -16 5 -39 13 -51 19 -30 13 -77 3 -160 -37 l-71
-34 -21 65 c-39 117 -126 224 -216 264 -38 17 -43 23 -48 61 -7 53 3 108 32
174 l22 51 89 -1 89 -1 36 -98z m2568 44 c31 -70 39 -117 31 -170 -6 -37 -11
-43 -51 -61 -85 -38 -198 -182 -218 -280 -4 -19 -9 -38 -11 -42 -2 -3 -30 7
-62 22 -83 42 -148 57 -172 42 -11 -7 -29 -12 -41 -12 -25 0 -88 -64 -126
-127 -13 -24 -26 -43 -27 -43 -2 0 -23 18 -47 41 -83 77 -239 137 -323 125
-35 -6 -45 -3 -63 16 -34 36 -63 112 -69 180 l-6 63 53 19 c30 10 64 27 76 38
l22 21 63 -51 c35 -27 86 -75 115 -106 42 -45 59 -56 83 -56 50 0 74 33 94
130 25 123 47 200 59 207 5 3 60 -47 121 -111 92 -96 117 -116 141 -116 35 0
75 35 75 65 0 12 16 69 36 126 19 57 38 111 40 119 4 12 24 15 94 16 l89 1 24
-56z m-1319 -292 c3 -17 6 -42 6 -54 0 -46 42 -155 76 -201 26 -33 33 -49 25
-57 -6 -6 -11 -17 -11 -24 0 -7 -30 -59 -68 -115 -37 -57 -76 -122 -86 -145
-10 -24 -22 -43 -26 -43 -4 0 -16 19 -26 43 -10 23 -48 87 -84 142 -78 121
-94 159 -73 176 43 36 86 146 98 252 l6 57 78 0 79 0 6 -31z m-1464 -110 c46
-48 90 -131 90 -172 0 -16 7 -41 16 -56 15 -26 14 -28 -20 -79 -20 -30 -48
-90 -63 -135 -25 -76 -27 -94 -27 -247 0 -138 4 -181 23 -265 18 -74 26 -143
30 -266 7 -187 12 -201 77 -214 53 -10 75 11 155 147 40 68 98 150 129 184
207 223 316 460 296 645 -4 46 -3 59 8 59 7 0 40 26 73 59 68 67 149 104 217
99 34 -2 44 -9 61 -36 11 -18 53 -82 92 -144 72 -110 113 -198 113 -241 0 -14
-29 -50 -80 -100 -52 -52 -90 -100 -110 -140 -28 -57 -30 -65 -24 -139 l7 -79
-114 -111 c-63 -61 -145 -138 -184 -170 -38 -33 -88 -75 -110 -94 -113 -97
-327 -163 -533 -164 -71 0 -76 2 -145 46 -178 115 -314 264 -352 386 -9 29
-22 64 -29 78 -15 27 -98 295 -117 375 -7 28 -16 55 -21 62 -7 9 5 35 39 85
l48 73 -1 95 c0 76 -6 111 -27 173 l-27 78 21 29 c31 41 89 80 209 140 58 29
116 60 130 70 31 22 69 29 93 17 10 -5 36 -26 57 -48z m2910 31 c14 -10 72
-41 130 -70 120 -60 178 -99 209 -140 l21 -29 -27 -78 c-21 -62 -27 -97 -27
-173 l-1 -95 48 -73 c34 -51 46 -76 39 -85 -5 -7 -13 -28 -17 -47 -13 -60
-106 -364 -120 -390 -8 -14 -21 -48 -30 -77 -38 -123 -166 -264 -350 -386 -68
-46 -72 -47 -145 -47 -211 1 -425 67 -537 167 -23 21 -64 55 -90 75 -26 21
-108 96 -182 167 l-134 130 7 79 c6 74 5 82 -25 141 -20 40 -58 88 -110 140
-48 48 -79 87 -79 99 0 42 42 132 113 240 39 62 81 126 92 144 17 27 27 34 61
36 68 5 149 -32 217 -99 33 -33 66 -59 73 -59 11 0 12 -13 8 -59 -20 -185 90
-424 297 -645 31 -34 87 -113 123 -176 81 -140 105 -164 155 -155 20 3 46 17
59 31 21 24 22 34 22 167 0 119 4 161 27 257 24 101 27 136 27 285 0 159 -1
175 -27 252 -15 45 -43 105 -63 135 -34 51 -35 53 -20 79 9 15 16 40 16 56 1
56 65 160 128 206 36 27 70 26 112 -3z m-2430 -287 c79 -89 108 -226 76 -350
-31 -123 -119 -266 -259 -420 -41 -46 -80 -96 -87 -113 -7 -16 -16 -30 -20
-30 -4 0 -10 37 -13 83 -4 45 -13 111 -22 147 -22 85 -31 328 -16 401 18 87
62 168 120 222 50 47 139 97 172 97 10 0 32 -17 49 -37z m1926 7 c155 -77 225
-213 225 -436 0 -100 -23 -282 -38 -308 -4 -5 -9 -48 -12 -95 l-6 -86 -29 45
c-16 25 -61 80 -100 123 -228 252 -306 479 -224 658 30 65 83 129 107 129 10
0 44 -13 77 -30z m-3042 -18 c22 -43 46 -144 46 -195 0 -37 -9 -59 -42 -112
-35 -55 -60 -79 -153 -144 -254 -181 -336 -293 -302 -414 26 -91 36 -131 34
-133 -1 -1 -47 -5 -103 -9 l-100 -7 -42 90 c-23 50 -42 93 -42 96 0 3 9 6 21
6 11 0 29 5 41 11 11 6 36 13 56 15 128 16 192 154 223 478 11 117 15 135 49
200 40 78 72 101 180 130 88 23 117 21 134 -12z m4173 9 c106 -27 130 -45 173
-128 31 -59 39 -86 45 -155 28 -351 96 -505 227 -522 20 -2 45 -9 56 -15 12
-6 30 -11 41 -11 12 0 21 -3 21 -6 0 -3 -19 -46 -42 -96 l-42 -90 -100 7 c-56
4 -102 8 -103 9 -2 2 8 42 34 133 34 120 -50 236 -301 413 -94 67 -118 90
-154 145 -33 53 -42 75 -42 112 0 51 24 152 46 195 18 34 41 36 141 9z m-5872
-176 c14 -14 25 -33 25 -41 0 -15 -127 -80 -137 -71 -9 10 56 137 71 137 8 0
27 -11 41 -25z m7516 -41 c17 -36 28 -68 26 -71 -10 -9 -137 56 -137 71 0 21
41 64 63 65 13 1 27 -18 48 -65z m-6321 -151 c-12 -105 -41 -227 -65 -274 -13
-24 -22 -29 -51 -29 -19 0 -44 -5 -56 -11 -42 -23 -67 -3 -108 84 -37 80 -80
205 -80 232 0 9 46 24 138 45 75 18 157 38 182 45 25 7 46 11 48 10 2 -2 -2
-47 -8 -102z m5263 47 l139 -32 -7 -36 c-10 -55 -33 -119 -75 -209 -41 -87
-66 -107 -108 -84 -12 6 -36 11 -55 11 -32 0 -37 4 -57 45 -23 49 -54 192 -64
297 l-6 67 47 -13 c27 -8 110 -28 186 -46z m-6221 21 c140 -56 224 -75 346
-75 112 -1 113 -1 118 -26 25 -106 90 -272 139 -350 15 -25 21 -46 17 -71 -3
-26 6 -57 34 -118 20 -45 35 -83 33 -85 -2 -2 -36 -7 -76 -11 l-72 -7 -50 100
c-77 154 -130 204 -216 204 -95 0 -165 -73 -165 -172 0 -89 79 -221 150 -250
28 -11 34 -11 58 7 39 29 43 86 7 109 -57 37 -98 156 -60 171 26 9 51 -23 116
-149 79 -152 92 -162 204 -153 44 3 103 8 130 11 l51 6 43 -94 c24 -51 48
-104 54 -117 24 -50 48 -56 224 -56 135 0 165 -3 173 -15 15 -23 12 -28 -22
-46 -24 -12 -45 -15 -87 -9 -112 13 -122 12 -144 -17 -77 -102 184 -173 315
-85 57 39 80 84 76 148 -5 70 -35 114 -97 142 -40 18 -64 21 -186 19 l-140 -2
-24 57 c-13 32 -25 64 -28 71 -4 8 8 12 38 12 82 0 163 18 181 41 10 11 22 18
27 15 17 -11 251 15 342 38 l90 22 36 -68 c48 -93 131 -188 235 -272 l87 -70
-15 -27 c-19 -37 -18 -155 1 -258 l16 -80 -61 -73 c-67 -79 -121 -182 -140
-267 -9 -37 -11 -88 -6 -158 l7 -104 -63 42 c-104 70 -211 153 -463 359 -132
108 -277 224 -322 258 -97 73 -322 222 -336 222 -6 0 -18 6 -26 14 -53 48
-335 177 -621 286 -443 168 -513 196 -622 248 -95 44 -116 58 -107 68 6 8 17
14 24 14 7 0 44 16 83 35 124 62 227 196 278 357 l18 58 65 21 c99 33 183 75
219 110 17 17 32 35 32 40 0 12 0 12 82 -20z m7038 20 c0 -5 15 -23 32 -40 36
-35 120 -77 219 -110 l65 -21 18 -58 c51 -161 154 -295 278 -357 39 -19 76
-35 83 -35 7 0 18 -6 24 -13 18 -22 -177 -110 -559 -252 -395 -148 -669 -268
-773 -339 -21 -14 -41 -26 -46 -26 -13 0 -247 -157 -350 -234 -54 -41 -188
-148 -297 -238 -222 -182 -377 -303 -472 -367 l-63 -43 7 105 c4 71 3 122 -6
158 -19 85 -73 188 -140 267 l-61 73 16 80 c19 104 20 221 0 258 l-14 28 81
64 c99 78 194 186 241 277 l36 68 90 -22 c91 -23 325 -49 342 -38 5 3 17 -4
27 -15 18 -23 99 -41 181 -41 48 0 48 6 8 -87 l-22 -53 -140 2 c-122 2 -146
-1 -186 -19 -62 -28 -92 -72 -97 -142 -4 -64 19 -109 76 -148 95 -64 292 -47
323 28 10 27 9 34 -8 57 -22 29 -32 30 -144 17 -42 -6 -63 -3 -87 9 -34 18
-37 23 -22 46 8 12 38 15 173 15 176 0 200 6 224 56 6 13 30 66 54 117 l43 94
51 -6 c27 -3 86 -8 130 -11 112 -9 125 1 204 153 65 126 90 158 116 149 38
-15 -3 -134 -60 -171 -36 -23 -32 -80 7 -109 24 -18 30 -18 58 -7 71 29 150
161 150 250 0 99 -70 172 -165 172 -86 0 -139 -50 -216 -204 l-50 -100 -72 7
c-40 4 -74 9 -76 11 -2 2 13 40 33 85 28 61 37 92 34 118 -4 25 2 46 17 71 49
78 114 244 139 350 5 25 6 25 123 26 125 2 223 24 351 79 63 27 72 29 72 16z
m-7600 -234 c0 -22 -68 -129 -108 -170 -20 -21 -60 -49 -89 -62 -83 -40 -88
-35 -47 50 32 64 79 112 158 159 64 38 86 44 86 23z m8166 -23 c79 -47 126
-95 158 -159 41 -85 36 -90 -49 -49 -64 32 -112 79 -159 158 -58 97 -47 108
50 50z m-4040 -56 c99 -95 106 -109 98 -214 -6 -77 -13 -101 -55 -190 -59
-124 -95 -229 -110 -320 -17 -103 -4 -141 81 -225 77 -77 79 -66 -27 -138 -34
-22 -67 -41 -73 -41 -6 0 -39 19 -73 41 -106 72 -104 61 -27 138 85 84 98 122
81 225 -15 91 -51 196 -110 320 -42 89 -49 113 -55 190 -5 78 -4 92 13 120 32
51 147 156 171 156 13 0 48 -25 86 -62z m-2112 19 c3 -18 26 -98 51 -177 25
-80 45 -148 45 -151 0 -12 -128 -39 -235 -51 -97 -10 -106 -10 -125 7 -11 10
-20 29 -20 43 0 13 -7 39 -16 58 -16 33 -15 34 17 78 17 25 53 63 78 84 65 55
182 142 191 142 4 0 11 -15 14 -33z m4142 -19 c111 -82 159 -126 193 -174 32
-44 33 -45 17 -78 -9 -19 -16 -45 -16 -58 0 -14 -9 -33 -20 -43 -19 -17 -28
-17 -125 -7 -106 12 -235 39 -235 51 0 3 20 70 44 147 25 78 48 158 51 178 4
20 11 36 15 36 4 0 38 -23 76 -52z m-2296 -638 c12 -36 24 -90 27 -121 5 -52
4 -57 -16 -64 -11 -3 -33 -22 -47 -41 -16 -21 -35 -34 -49 -34 -30 0 -131 70
-217 149 l-71 65 139 133 139 132 37 -77 c20 -42 46 -106 58 -142z m663 -110
c-84 -79 -188 -150 -218 -150 -14 0 -33 13 -49 34 -14 19 -36 38 -47 41 -20 7
-21 12 -16 64 6 65 34 154 84 263 l36 78 139 -133 140 -132 -69 -65z m-1083
-76 c56 -59 158 -138 247 -193 33 -20 53 -40 55 -54 3 -19 68 -76 147 -128
l24 -15 -53 -38 c-28 -20 -58 -40 -66 -43 -8 -3 -58 23 -111 58 -148 96 -229
108 -300 46 -67 -59 -81 -130 -40 -208 56 -106 240 -186 297 -129 41 41 15
103 -47 115 -52 9 -86 29 -117 66 -24 28 -26 34 -12 47 21 22 49 11 170 -68
142 -91 176 -94 265 -26 31 24 75 55 99 70 l42 26 43 -26 c23 -15 67 -46 98
-70 89 -68 123 -65 265 26 121 79 149 90 170 68 14 -13 12 -19 -12 -47 -31
-37 -65 -57 -117 -66 -92 -18 -86 -135 7 -135 114 0 250 108 263 209 8 56 -2
86 -43 131 -74 82 -159 75 -312 -26 -53 -35 -102 -64 -107 -64 -6 0 -37 19
-69 42 l-59 42 24 15 c79 52 144 109 147 128 2 14 22 34 55 54 88 54 190 133
248 193 l56 57 62 -39 c83 -54 214 -100 342 -120 l107 -16 7 -41 c8 -50 42
-109 109 -189 28 -34 57 -68 64 -77 10 -13 9 -30 -3 -88 -28 -134 -14 -285 36
-384 12 -23 39 -64 60 -91 22 -27 39 -53 39 -57 0 -23 -231 3 -645 72 -459 76
-533 83 -835 83 -302 0 -376 -7 -835 -83 -414 -69 -645 -95 -645 -72 0 4 17
30 39 57 21 27 48 68 60 91 50 99 64 250 36 384 -12 58 -13 75 -3 88 7 9 36
43 64 77 67 80 101 139 109 189 l7 41 107 16 c128 20 260 66 338 118 32 21 60
39 63 39 3 1 30 -24 60 -55z m-2775 -29 c129 -53 383 -185 499 -259 106 -68
295 -204 361 -261 l40 -34 -115 -1 c-205 0 -390 38 -525 108 -127 67 -279 231
-396 429 -27 46 -49 86 -49 88 0 5 40 -10 185 -70z m6886 -17 c-117 -199 -269
-363 -396 -430 -135 -70 -320 -108 -525 -108 l-115 1 40 34 c148 128 399 293
610 401 137 71 426 197 433 189 2 -1 -19 -41 -47 -87z m-4852 -78 c33 0 26
-41 -16 -99 -21 -28 -41 -51 -44 -51 -4 0 -10 32 -13 71 -8 79 2 106 34 89 10
-6 28 -10 39 -10z m2756 -74 c-4 -39 -9 -73 -11 -75 -5 -5 -26 20 -64 77 -31
48 -30 72 4 72 11 0 28 4 36 10 9 6 19 5 28 -2 10 -9 12 -28 7 -82z m-2900
-590 c-9 -28 -32 -73 -52 -100 -31 -43 -37 -47 -45 -32 -6 10 -8 54 -6 99 4
88 32 166 86 237 l27 35 3 -94 c2 -66 -2 -110 -13 -145z m3033 125 c32 -64 37
-86 40 -157 2 -45 0 -90 -6 -100 -9 -15 -14 -12 -43 30 -53 74 -68 127 -69
240 l0 99 20 -18 c12 -11 37 -53 58 -94z m-1340 -366 c112 -5 400 -40 409 -49
14 -14 -231 -138 -364 -183 -105 -37 -111 -38 -253 -38 -142 0 -147 1 -255 38
-103 36 -324 143 -353 171 -11 11 -8 14 20 19 165 30 507 57 628 51 30 -2 106
-6 168 -9z"/>
<path d="M5292 11904 c-26 -18 -29 -63 -6 -98 14 -23 13 -26 -10 -50 -31 -31
-35 -85 -8 -109 20 -18 72 -23 88 -8 5 5 41 11 81 13 84 4 113 23 113 73 0 36
-19 57 -72 80 -22 9 -49 32 -67 59 -41 59 -75 71 -119 40z"/>
<path d="M7432 11913 c-7 -2 -26 -25 -43 -49 -18 -27 -45 -50 -67 -59 -53 -23
-72 -44 -72 -80 0 -50 29 -69 113 -73 40 -2 76 -8 82 -13 16 -16 71 -10 88 9
26 28 21 78 -9 108 -23 24 -24 27 -10 50 43 65 -11 136 -82 107z"/>
<path d="M4548 11703 c-9 -10 -19 -43 -23 -73 -4 -35 -18 -71 -36 -99 -35 -54
-36 -75 -4 -106 32 -32 59 -31 120 5 28 16 65 30 83 30 65 0 96 74 50 117 -13
11 -35 23 -50 27 -25 6 -28 11 -28 45 0 24 -7 44 -18 54 -24 22 -75 22 -94 0z"/>
<path d="M2705 10635 c-39 -38 -29 -82 25 -110 27 -14 28 -17 18 -45 -14 -41
5 -85 43 -100 24 -10 33 -10 55 5 15 9 28 25 31 35 2 9 19 24 37 32 61 30 96
67 96 103 0 46 -29 65 -101 65 -35 0 -76 8 -104 20 -60 26 -71 25 -100 -5z"/>
<path d="M8157 11702 c-10 -10 -17 -35 -17 -55 0 -32 -4 -37 -27 -43 -16 -4
-38 -16 -50 -27 -46 -42 -16 -117 47 -117 17 0 54 -13 83 -30 65 -36 90 -38
122 -5 32 31 31 52 -4 106 -16 25 -32 66 -36 94 -9 70 -28 95 -69 95 -19 0
-40 -8 -49 -18z"/>
<path d="M9995 10640 c-25 -11 -64 -19 -102 -19 -73 -1 -103 -22 -103 -70 0
-32 29 -62 92 -95 20 -11 39 -28 41 -37 7 -28 51 -51 82 -43 38 9 61 61 47
103 -10 29 -9 32 18 46 54 28 64 72 25 110 -28 29 -46 30 -100 5z"/>
<path d="M2165 10095 c-30 -29 -31 -46 -5 -104 12 -27 20 -65 20 -100 0 -72
19 -101 65 -101 36 0 64 26 99 92 11 20 28 39 37 41 9 3 25 16 34 31 36 55
-28 121 -95 98 -28 -10 -31 -9 -45 18 -28 54 -72 64 -110 25z"/>
<path d="M1269 8311 c-25 -16 -66 -32 -94 -36 -70 -9 -95 -28 -95 -69 0 -42
26 -66 72 -66 31 0 37 -4 43 -27 3 -16 16 -38 27 -50 44 -47 118 -16 118 50 0
17 14 55 30 82 36 61 37 88 5 120 -31 32 -52 31 -106 -4z"/>
<path d="M10557 10109 c-9 -5 -24 -23 -32 -39 -14 -27 -17 -28 -45 -18 -41 14
-85 -5 -100 -43 -10 -24 -10 -33 5 -55 9 -15 25 -28 34 -31 9 -2 26 -21 37
-41 35 -66 63 -92 98 -92 49 0 66 25 66 97 0 39 7 76 20 104 26 58 25 75 -5
104 -26 27 -49 31 -78 14z"/>
<path d="M11425 8315 c-32 -32 -31 -59 5 -120 16 -27 30 -65 30 -82 0 -66 74
-97 118 -50 11 12 24 34 27 50 6 23 12 27 45 27 45 0 70 24 70 68 0 39 -26 58
-95 67 -28 4 -69 20 -94 36 -54 35 -75 36 -106 4z"/>
<path d="M6350 9950 c-26 -26 -26 -80 0 -108 44 -47 120 -13 120 55 0 42 -30
73 -70 73 -17 0 -39 -9 -50 -20z"/>
<path d="M4606 9479 c-34 -27 -35 -71 -1 -104 49 -49 120 -18 118 51 -2 67
-63 95 -117 53z"/>
<path d="M8107 9488 c-59 -45 -30 -138 43 -138 31 0 70 44 70 78 0 54 -70 92
-113 60z"/>
<path d="M5832 9234 c-31 -21 -31 -98 1 -145 53 -80 187 -94 233 -25 34 53
-16 118 -75 98 -32 -11 -51 0 -51 28 0 22 -42 60 -66 60 -11 0 -30 -7 -42 -16z"/>
<path d="M5419 9119 c-16 -16 -20 -30 -17 -67 3 -40 0 -47 -17 -50 -28 -6 -65
-42 -65 -64 0 -117 184 -84 221 40 31 104 -57 206 -122 141z"/>
<path d="M6882 9227 c-12 -13 -22 -30 -22 -38 0 -28 -20 -38 -51 -27 -59 20
-109 -45 -75 -98 46 -69 180 -55 233 25 32 47 32 124 1 145 -32 22 -61 20 -86
-7z"/>
<path d="M7291 9121 c-32 -32 -46 -94 -32 -140 37 -125 221 -161 221 -43 0 22
-37 58 -65 64 -17 3 -20 10 -17 50 3 37 -1 51 -17 67 -26 26 -65 27 -90 2z"/>
<path d="M4507 8592 c-55 -61 25 -162 128 -162 103 0 183 102 125 160 -27 27
-62 25 -98 -5 l-29 -24 -23 24 c-28 30 -79 33 -103 7z"/>
<path d="M4207 8292 c-25 -28 -21 -74 8 -102 l24 -23 -24 -29 c-30 -36 -32
-71 -5 -98 58 -58 160 22 160 125 0 102 -109 187 -163 127z"/>
<path d="M8040 8590 c-40 -40 -16 -106 51 -141 94 -47 219 7 219 96 0 63 -65
86 -117 41 l-28 -24 -28 24 c-35 29 -70 31 -97 4z"/>
<path d="M8481 8281 c-55 -51 -67 -129 -30 -191 41 -69 99 -90 139 -50 27 27
25 62 -5 98 l-24 29 24 23 c16 15 25 34 25 55 0 67 -74 87 -129 36z"/>
<path d="M3322 8197 c-46 -49 -16 -118 52 -120 69 -2 100 69 51 118 -31 32
-74 33 -103 2z"/>
<path d="M9375 8195 c-49 -48 -18 -120 49 -118 48 1 76 27 76 68 0 67 -78 98
-125 50z"/>
<path d="M6354 7822 c-40 -26 -44 -93 -8 -121 71 -56 164 14 123 92 -16 30
-28 37 -69 37 -19 0 -40 -4 -46 -8z"/>
<path d="M1044 7524 c-25 -24 -27 -24 -51 -9 -35 23 -84 16 -102 -16 -21 -39
-7 -74 44 -109 27 -19 51 -45 60 -68 23 -53 44 -72 80 -72 50 0 69 29 73 113
2 40 8 76 13 82 16 16 10 71 -9 88 -28 26 -78 21 -108 -9z"/>
<path d="M1027 5532 c-9 -10 -23 -34 -32 -54 -9 -23 -33 -49 -60 -68 -51 -35
-65 -70 -44 -109 18 -32 69 -40 104 -17 23 15 26 14 49 -9 31 -31 85 -34 109
-7 19 20 23 77 7 87 -5 3 -10 37 -10 74 0 54 -4 74 -21 95 -25 31 -77 36 -102
8z"/>
<path d="M11647 7532 c-18 -20 -23 -72 -8 -87 5 -6 11 -42 13 -82 4 -84 23
-113 73 -113 36 0 53 16 83 76 11 22 39 52 61 67 47 31 61 68 40 106 -18 32
-67 39 -102 16 -24 -15 -26 -15 -51 9 -31 31 -85 35 -109 8z"/>
<path d="M11674 5529 c-13 -15 -19 -40 -22 -92 -2 -40 -8 -76 -13 -81 -16 -17
-10 -72 9 -89 28 -26 78 -21 108 9 24 23 27 24 50 10 50 -33 114 -9 114 43 0
33 -16 57 -55 81 -20 12 -45 41 -56 64 -12 22 -28 49 -37 59 -21 24 -74 22
-98 -4z"/>
<path d="M5665 7625 c-27 -26 -31 -51 -14 -89 31 -68 149 -37 149 39 0 68 -86
100 -135 50z"/>
<path d="M7022 7627 c-42 -44 -24 -102 38 -125 75 -28 132 67 75 123 -32 33
-83 34 -113 2z"/>
<path d="M3823 7458 c-12 -13 -23 -32 -25 -43 -3 -17 -10 -20 -50 -17 -37 3
-51 -1 -67 -17 -41 -41 -18 -98 48 -120 48 -16 69 -14 117 10 79 38 116 149
65 190 -31 25 -63 24 -88 -3z"/>
<path d="M3566 6968 c-9 -12 -16 -32 -16 -43 0 -24 39 -65 61 -65 28 0 38 -20
27 -51 -20 -59 45 -109 98 -75 69 46 55 180 -25 233 -47 32 -124 32 -145 1z"/>
<path d="M8889 7461 c-51 -41 -14 -152 65 -190 48 -24 69 -26 117 -10 66 22
89 79 48 120 -16 16 -30 20 -67 17 -40 -3 -47 0 -50 17 -6 30 -42 65 -68 65
-12 0 -32 -8 -45 -19z"/>
<path d="M9089 6966 c-50 -34 -73 -85 -66 -149 3 -39 11 -56 31 -74 33 -28 56
-29 87 -4 19 15 24 29 24 66 0 45 2 48 35 59 45 14 61 55 39 94 -12 23 -22 27
-64 30 -40 2 -57 -2 -86 -22z"/>
<path d="M5175 7135 c-51 -50 -18 -135 52 -135 75 0 104 118 37 149 -38 17
-63 13 -89 -14z"/>
<path d="M7550 7153 c-52 -19 -65 -74 -29 -124 51 -72 159 -5 124 78 -19 44
-54 61 -95 46z"/>
<path d="M5005 6468 c-28 -16 -35 -28 -35 -68 0 -41 7 -53 37 -69 36 -19 70
-13 92 15 57 72 -16 166 -94 122z"/>
<path d="M7701 6454 c-27 -34 -27 -74 1 -109 19 -24 26 -27 62 -22 48 7 66 28
66 76 0 42 -7 54 -37 70 -36 19 -70 13 -92 -15z"/>
<path d="M2850 6450 c-45 -45 -11 -120 55 -120 43 0 75 29 75 68 0 61 -86 96
-130 52z"/>
<path d="M9842 6447 c-45 -48 -12 -117 55 -117 42 0 73 30 73 70 0 65 -83 95
-128 47z"/>
<path d="M3659 6062 c-21 -18 -28 -53 -18 -90 4 -13 -8 -22 -51 -42 -8 -4 -22
-19 -30 -33 -13 -24 -13 -30 0 -54 13 -24 23 -28 65 -31 59 -3 104 21 136 70
31 50 23 142 -15 175 -33 28 -56 29 -87 5z"/>
<path d="M3714 5531 c-90 -41 -65 -136 34 -129 40 3 47 0 50 -17 2 -11 13 -30
25 -42 47 -52 125 -6 112 67 -10 54 -42 97 -89 119 -52 26 -79 26 -132 2z"/>
<path d="M9063 6065 c-48 -34 -55 -136 -13 -195 30 -43 72 -62 128 -58 38 2
49 8 61 30 22 39 6 80 -39 94 -33 11 -35 14 -35 59 0 71 -51 106 -102 70z"/>
<path d="M8965 5536 c-95 -43 -133 -175 -60 -208 39 -18 78 0 91 42 12 34 13
35 57 32 101 -8 122 94 27 132 -48 19 -75 20 -115 2z"/>
<path d="M5172 5777 c-30 -32 -29 -81 3 -112 56 -57 152 -1 124 72 -25 66 -85
85 -127 40z"/>
<path d="M7521 5771 c-30 -41 -27 -85 5 -110 35 -28 69 -26 99 4 36 35 37 76
2 113 -31 33 -80 30 -106 -7z"/>
<path d="M5667 5282 c-9 -10 -20 -32 -23 -49 -13 -66 87 -112 136 -63 33 33
30 76 -8 107 -33 28 -83 30 -105 5z"/>
<path d="M7028 5279 c-37 -27 -38 -76 -4 -109 76 -71 183 41 110 115 -22 21
-74 18 -106 -6z"/>
<path d="M6345 5095 c-30 -30 -32 -64 -4 -99 26 -33 88 -37 119 -6 20 20 27
74 12 96 -26 39 -93 44 -127 9z"/>
<path d="M4210 4758 c-27 -29 -25 -61 4 -95 l24 -28 -24 -28 c-45 -53 -22
-117 43 -117 60 0 113 66 113 140 0 109 -102 190 -160 128z"/>
<path d="M4565 4355 c-67 -35 -97 -112 -57 -148 28 -25 74 -21 102 8 l23 24
29 -24 c36 -30 71 -32 98 -5 58 58 -22 160 -127 160 -21 0 -51 -7 -68 -15z"/>
<path d="M8490 4754 c-60 -51 -76 -122 -44 -190 45 -94 164 -99 164 -7 0 17
-8 38 -20 48 -11 10 -20 23 -20 30 0 7 9 20 20 30 41 37 11 115 -44 115 -14 0
-38 -12 -56 -26z"/>
<path d="M8094 4351 c-69 -42 -92 -103 -54 -141 27 -27 68 -25 100 5 l27 25
27 -25 c71 -65 157 15 99 92 -44 60 -139 81 -199 44z"/>
<path d="M3344 4716 c-49 -21 -58 -65 -23 -110 27 -34 71 -35 104 -1 29 28 32
65 8 93 -25 28 -52 33 -89 18z"/>
<path d="M9388 4714 c-35 -18 -44 -53 -24 -92 37 -71 136 -47 136 33 0 55 -61
86 -112 59z"/>
<path d="M1226 4739 c-17 -14 -26 -30 -26 -50 0 -28 -2 -29 -43 -29 -52 0 -77
-22 -77 -68 0 -39 26 -58 95 -67 28 -4 69 -20 94 -36 53 -34 70 -36 105 -8 34
27 33 59 -4 126 -16 29 -30 66 -30 83 0 62 -63 89 -114 49z"/>
<path d="M2200 2990 c-15 -15 -20 -33 -20 -79 0 -38 -8 -77 -21 -107 -23 -56
-19 -87 16 -110 35 -23 72 -11 96 31 19 31 22 33 50 23 40 -14 84 5 99 43 10
24 10 33 -5 55 -9 15 -25 28 -34 31 -9 2 -26 21 -37 41 -48 90 -100 116 -144
72z"/>
<path d="M11480 4740 c-12 -12 -20 -34 -20 -52 0 -18 -14 -55 -30 -83 -36 -61
-37 -88 -5 -120 31 -32 51 -31 107 4 29 18 67 32 101 36 62 8 90 29 90 70 0
39 -30 65 -73 65 -33 0 -39 4 -45 28 -16 65 -84 93 -125 52z"/>
<path d="M10498 2982 c-12 -15 -32 -44 -42 -64 -11 -20 -28 -39 -37 -41 -9 -3
-25 -16 -34 -31 -36 -55 28 -121 94 -98 28 10 31 8 50 -23 24 -42 61 -54 96
-31 36 23 40 56 16 111 -13 30 -21 69 -21 104 0 72 -19 101 -65 101 -24 0 -40
-8 -57 -28z"/>
<path d="M7370 3928 c-48 -13 -98 -64 -111 -112 -28 -103 59 -198 122 -135 16
16 20 30 17 66 -3 44 -1 47 27 54 74 21 74 113 0 132 -11 3 -36 1 -55 -5z"/>
<path d="M6763 3761 c-40 -25 -51 -62 -29 -96 17 -26 42 -35 91 -32 22 2 30
-3 33 -18 6 -30 42 -65 68 -65 12 0 32 8 45 19 44 36 21 137 -43 184 -40 30
-124 34 -165 8z"/>
<path d="M5360 3927 c-38 -19 -48 -61 -24 -94 12 -15 32 -30 45 -33 22 -6 24
-11 21 -52 -3 -37 1 -51 17 -67 53 -53 131 5 131 96 -1 97 -115 187 -190 150z"/>
<path d="M5892 3763 c-45 -22 -74 -67 -80 -123 -3 -39 0 -52 17 -69 11 -11 32
-21 46 -21 29 0 65 32 65 58 0 30 18 41 50 29 58 -22 110 46 76 99 -30 45
-111 58 -174 27z"/>
<path d="M4606 3425 c-33 -31 -34 -74 -3 -103 50 -47 121 -15 121 55 0 67 -68
95 -118 48z"/>
<path d="M8100 3430 c-44 -44 -13 -130 48 -130 66 0 95 78 47 125 -29 30 -68
32 -95 5z"/>
<path d="M6352 2957 c-45 -48 -16 -127 48 -127 65 0 95 83 47 128 -30 28 -68
28 -95 -1z"/>
<path d="M2783 2418 c-31 -15 -48 -60 -35 -97 10 -28 8 -31 -23 -50 -42 -24
-54 -61 -31 -96 23 -36 56 -40 111 -16 32 14 68 21 110 21 71 0 95 17 95 67 0
34 -27 63 -93 98 -20 11 -37 25 -37 32 0 14 -48 53 -64 52 -6 0 -21 -5 -33
-11z"/>
<path d="M4485 1375 c-32 -31 -31 -52 4 -106 18 -28 32 -64 36 -99 9 -66 27
-90 70 -90 41 0 65 27 65 72 0 31 4 37 28 43 15 3 37 16 50 27 46 44 15 118
-50 118 -18 0 -55 14 -83 30 -61 36 -88 37 -120 5z"/>
<path d="M9945 2405 c-14 -13 -25 -28 -25 -32 0 -5 -17 -17 -37 -28 -64 -34
-93 -64 -93 -96 0 -48 31 -69 99 -69 38 0 75 -7 106 -21 55 -24 88 -20 111 16
23 35 11 72 -31 96 -31 19 -33 22 -23 50 13 38 -4 82 -38 98 -35 16 -42 14
-69 -14z"/>
<path d="M8195 1370 c-27 -16 -65 -30 -82 -30 -66 0 -97 -74 -50 -118 12 -11
34 -24 50 -27 23 -6 27 -12 27 -45 0 -45 24 -70 67 -70 41 0 60 25 68 90 4 35
18 71 36 99 35 54 36 75 4 106 -32 32 -59 31 -120 -5z"/>
<path d="M5267 1152 c-26 -28 -21 -78 9 -108 24 -25 24 -27 9 -51 -23 -35 -16
-84 16 -102 39 -21 74 -7 109 44 19 27 45 51 68 60 53 23 72 44 72 80 0 50
-29 69 -113 73 -40 2 -76 8 -81 13 -17 16 -72 10 -89 -9z"/>
<path d="M7445 1161 c-6 -5 -42 -11 -82 -13 -84 -4 -113 -23 -113 -73 0 -36
19 -57 72 -80 23 -9 49 -33 68 -60 35 -51 70 -65 109 -44 32 18 39 67 16 102
-15 24 -15 26 9 51 31 31 35 85 8 109 -20 18 -72 23 -87 8z"/>
</g>
</svg>
